<?xml version="1.0" encoding="UTF-8" standalone="no"?>
<!-- Generator: Adobe Illustrator 21.0.0, SVG Export Plug-In . SVG Version: 6.00 Build 0)  -->

<svg
   version="1.1"
   id="svg2"
   inkscape:version="1.2.2 (732a01da63, 2022-12-09)"
   sodipodi:docname="recommended_finger_placement.svg"
   sodipodi:version="0.32"
   x="0px"
   y="0px"
   viewBox="0 0 500 400.00001"
   xml:space="preserve"
   width="500"
   height="400"
   xmlns:inkscape="http://www.inkscape.org/namespaces/inkscape"
   xmlns:sodipodi="http://sodipodi.sourceforge.net/DTD/sodipodi-0.dtd"
   xmlns="http://www.w3.org/2000/svg"
   xmlns:svg="http://www.w3.org/2000/svg"><defs
   id="defs171" />
<style
   type="text/css"
   id="style2">
	.st0{fill:#FFFFFF;stroke:#000000;}
	.st1{fill:#DFDFDF;stroke:#000000;}
	.st2{fill:#F64747;stroke:#000000;}
	.st3{fill:#F1F227;stroke:#000000;}
	.st4{fill:#00BFFF;stroke:#000000;}
	.st5{fill:#EFEFEF;stroke:#000000;}
	.st6{fill:none;stroke:#000000;stroke-width:3;}
	.st7{font-family:'Arial-BoldMT';}
	.st8{font-size:14.0347px;}
	.st9{fill:none;stroke:#000000;stroke-width:2;}
	.st10{fill:#FFFFFF;stroke:#000000;stroke-miterlimit:10;}
</style>

<sodipodi:namedview
   bordercolor="#666666"
   borderopacity="1.0"
   gridtolerance="15px"
   id="base"
   inkscape:current-layer="layer1"
   inkscape:cx="585.36852"
   inkscape:cy="258.67348"
   inkscape:document-units="px"
   inkscape:grid-points="true"
   inkscape:guide-bbox="true"
   inkscape:pageopacity="0"
   inkscape:pageshadow="2"
   inkscape:window-height="974"
   inkscape:window-maximized="1"
   inkscape:window-width="1920"
   inkscape:window-x="-11"
   inkscape:window-y="-11"
   inkscape:zoom="1.0437869"
   pagecolor="#000000"
   showborder="false"
   showgrid="true"
   showguides="true"
   inkscape:showpageshadow="2"
   inkscape:pagecheckerboard="0"
   inkscape:deskcolor="#d1d1d1">
	
		<inkscape:grid
   color="#0000ff"
   empcolor="#0000ff"
   empopacity="0.25098039"
   empspacing="4"
   id="GridFromPre046Settings"
   opacity="0.12156863"
   originx="0"
   originy="0"
   spacingx="7.5"
   spacingy="7.5"
   type="xygrid">
		</inkscape:grid>
</sodipodi:namedview>
<g
   id="layer1"
   inkscape:groupmode="layer"
   inkscape:label="Layer 1">
	
	
	
	
	
	
	
	
	
	
	
	
	
	
	
	
	
	
	
	
	
	
	
	
	
	
	
	
	
	
	
	
	
	
	
	
	
	
	
	
	
	
	
	
	
	
	
	
	
	
	
	
	
	
	
	
	
	
	
	
	
	
	
	
	
	
	
	
	
	
	
	
	
	
	
	
	
	
	
	
	
	
	
	
	
	
	
	
	
	
	
	
	
	
	
	
	
	
	
	
	
	
	
	
	
	
	
	
	
	
	
	
	
	
	
	
	
	
	
	
	
	
	
	
	
	
	
	
<g
   id="g595"
   transform="matrix(0.74340867,0,0,0.74340867,-29.075615,-3.8657251)"><g
     id="g1036"
     inkscape:label="keyboard"
     transform="matrix(0.8,0,0,0.8,11.84,1.04)"><path
       id="rect2186"
       class="st0"
       d="m 59.7,5.7 h 52.6 V 58.3 H 59.7 Z" /><path
       id="rect2218"
       class="st0"
       d="m 112.3,5.7 h 52.6 v 52.6 h -52.6 c 0,0 0,-52.6 0,-52.6 z" /><path
       id="rect2222"
       class="st0"
       d="m 164.9,5.7 h 52.6 v 52.6 h -52.6 z" /><path
       id="rect2228"
       class="st0"
       d="m 217.6,5.7 h 52.6 v 52.6 h -52.6 z" /><path
       id="rect2230"
       class="st0"
       d="m 270.2,5.7 h 52.6 v 52.6 h -52.6 z" /><path
       id="rect2232"
       class="st0"
       d="m 322.8,5.7 h 52.6 v 52.6 h -52.6 z" /><path
       id="rect2234"
       class="st0"
       d="M 375.4,5.7 H 428 v 52.6 h -52.6 z" /><path
       id="rect2236"
       class="st0"
       d="m 428.1,5.7 h 52.6 v 52.6 h -52.6 z" /><path
       id="rect2238"
       class="st0"
       d="m 480.7,5.7 h 52.6 v 52.6 h -52.6 z" /><path
       id="rect2240"
       class="st0"
       d="M 533.3,5.7 H 586 V 58.3 H 533.4 V 5.7 Z" /><path
       id="rect2242"
       class="st0"
       d="m 586,5.7 h 52.6 V 58.3 H 586 Z" /><path
       id="rect2244"
       class="st0"
       d="m 638.6,5.7 h 52.6 v 52.6 h -52.6 z" /><path
       id="rect2246"
       class="st0"
       d="m 691.2,5.7 h 52.6 v 52.6 h -52.6 z" /><path
       id="rect2248"
       class="st1"
       d="M 743.9,5.7 H 849.2 V 58.3 H 743.9 Z" /><path
       id="rect2250"
       class="st1"
       d="m 59.7,58.3 h 78.9 V 111 H 59.7 Z" /><path
       id="rect2252"
       class="st0"
       d="m 138.6,58.3 h 52.6 V 111 h -52.6 z" /><path
       id="rect2254"
       class="st0"
       d="m 191.2,58.3 h 52.6 V 111 h -52.6 z" /><path
       id="rect2256"
       class="st0"
       d="m 243.9,58.3 h 52.6 V 111 h -52.6 z" /><path
       id="rect2258"
       class="st2"
       d="m 296.5,58.3 h 52.6 V 111 h -52.6 z" /><path
       id="rect2262"
       class="st0"
       d="m 349.1,58.3 h 52.6 V 111 h -52.6 z" /><path
       id="rect2264"
       class="st3"
       d="m 401.8,58.3 h 52.6 V 111 h -52.6 z" /><path
       id="rect2266"
       class="st0"
       d="M 454.4,58.3 H 507 V 111 h -52.6 z" /><path
       id="rect2270"
       class="st0"
       d="m 507,58.3 h 52.6 V 111 H 507 Z" /><path
       id="rect2272"
       class="st0"
       d="m 559.7,58.3 h 52.6 V 111 h -52.6 z" /><path
       id="rect2274"
       class="st0"
       d="m 612.3,58.3 h 52.6 V 111 h -52.6 z" /><path
       id="rect2278"
       class="st0"
       d="m 664.9,58.3 h 52.6 V 111 h -52.6 z" /><path
       id="rect2280"
       class="st0"
       d="m 717.5,58.3 h 52.6 V 111 h -52.6 z" /><path
       id="rect2284"
       class="st0"
       d="m 770.2,58.3 h 78.9 V 111 h -78.9 z" /><path
       id="rect2286"
       class="st1"
       d="m 59.7,111 h 92.1 v 52.6 H 59.7 Z" /><path
       id="rect2292"
       class="st0"
       d="m 151.8,111 h 52.6 v 52.6 h -52.6 z" /><path
       id="rect2296"
       class="st0"
       d="M 204.4,111 H 257 v 52.6 h -52.6 z" /><path
       id="rect2298"
       class="st0"
       d="m 257,111 h 52.6 v 52.6 H 257 Z" /><path
       id="rect2300"
       class="st0"
       d="m 309.7,111 h 52.6 v 52.6 h -52.6 z" /><path
       id="rect2302"
       class="st0"
       d="m 362.3,111 h 52.6 v 52.6 h -52.6 z" /><path
       id="rect2306"
       class="st0"
       d="m 414.9,111 h 52.6 v 52.6 h -52.6 z" /><path
       id="rect2308"
       class="st0"
       d="m 467.6,111 h 52.6 v 52.6 h -52.6 z" /><path
       id="rect2312"
       class="st0"
       d="m 520.2,111 h 52.6 v 52.6 h -52.6 z" /><path
       id="rect2314"
       class="st0"
       d="m 572.8,111 h 52.6 v 52.6 h -52.6 z" /><path
       id="rect2316"
       class="st0"
       d="M 625.4,111 H 678 v 52.6 h -52.6 z" /><path
       id="rect2318"
       class="st0"
       d="m 678.1,111 h 52.6 v 52.6 h -52.6 z" /><path
       id="rect2320"
       class="st1"
       d="m 730.7,111 h 118.4 v 52.6 H 730.7 Z" /><path
       id="rect2322"
       class="st1"
       d="m 59.7,163.6 h 118.4 v 52.6 H 59.7 Z" /><path
       id="rect2324"
       class="st0"
       d="m 178.1,163.6 h 52.6 v 52.6 h -52.6 z" /><path
       id="rect2326"
       class="st0"
       d="m 230.7,163.6 h 52.6 v 52.6 h -52.6 z" /><path
       id="rect2330"
       class="st0"
       d="M 283.3,163.6 H 336 v 52.6 h -52.6 v -52.6 z" /><path
       id="rect2334"
       class="st0"
       d="m 336,163.6 h 52.6 v 52.6 H 336 Z" /><path
       id="rect2336"
       class="st4"
       d="m 388.6,163.6 h 52.6 v 52.6 h -52.6 z" /><path
       id="rect2338"
       class="st0"
       d="m 441.2,163.6 h 52.6 v 52.6 h -52.6 z" /><path
       id="rect2340"
       class="st0"
       d="m 493.9,163.6 h 52.6 v 52.6 h -52.6 z" /><path
       id="rect2342"
       class="st0"
       d="m 546.5,163.6 h 52.6 v 52.6 h -52.6 z" /><path
       id="rect2344"
       class="st0"
       d="m 599.1,163.6 h 52.6 v 52.6 h -52.6 z" /><path
       id="rect2346"
       class="st0"
       d="m 651.8,163.6 h 52.6 v 52.6 h -52.6 z" /><path
       id="rect2348"
       class="st1"
       d="m 704.4,163.6 h 144.7 v 52.6 H 704.4 Z" /><path
       id="rect2350"
       class="st1"
       d="m 59.7,216.2 h 78.9 v 52.6 H 59.7 Z" /><path
       id="rect2352"
       class="st1"
       d="m 770.2,216.2 h 78.9 v 52.6 h -78.9 z" /><path
       id="rect2354"
       class="st1"
       d="m 191.2,216.2 h 78.9 v 52.6 h -78.9 z" /><path
       id="rect2360"
       class="st1"
       d="m 586,216.2 h 78.9 v 52.6 H 586 Z" /><path
       id="rect2362"
       class="st0"
       d="M 270.2,216.2 H 586 v 52.6 H 270.2 Z" /><path
       id="rect2364"
       class="st5"
       d="m 138.6,216.2 h 52.6 v 52.6 h -52.6 z" /><path
       id="rect2366"
       class="st5"
       d="m 664.9,216.2 h 52.6 v 52.6 h -52.6 z" /><path
       id="rect2368"
       class="st5"
       d="m 717.5,216.2 h 52.6 v 52.6 h -52.6 z" /><path
       id="flowRoot4146"
       class="st5"
       d="M 59.7,5.7" /><path
       id="text5091"
       d="M 125.8,22.2 125,15.4 v -4.1 h 3.2 v 4.1 l -0.8,6.8 h -1.6 m -0.8,4.2 v -3 h 3.1 v 3 H 125 m 0.8,26.4 V 42.7 h -3.5 v -2.1 h 0.2 c 1.3,0 2.2,-0.2 2.8,-0.6 0.6,-0.4 0.9,-1.1 1,-2 h 2.4 v 14.7 l -2.9,0.1" /><path
       id="text5103"
       d="m 80.1,18.2 v 2.3 c -0.7,0.5 -1.4,0.8 -2,1.1 -0.6,0.2 -1.3,0.3 -1.9,0.3 -0.3,0 -0.6,0 -0.9,-0.1 -0.3,-0.1 -0.6,-0.1 -0.9,-0.2 -0.2,-0.1 -0.4,-0.1 -0.7,-0.3 -1.5,-0.5 -2.6,-0.8 -3.4,-0.8 -0.6,0 -1.2,0.1 -1.8,0.4 -0.6,0.3 -1.3,0.7 -2.1,1.2 v -2.3 c 0.7,-0.5 1.4,-0.9 2.1,-1.1 0.7,-0.2 1.3,-0.4 1.9,-0.4 0.8,0 1.8,0.2 3,0.6 v 0 c 0.1,0 0.3,0.1 0.6,0.2 1.1,0.4 1.9,0.6 2.5,0.6 0.6,0 1.2,-0.1 1.8,-0.4 0.4,-0.2 1.1,-0.6 1.8,-1.1 m -9.9,18.2 h 2.7 l 2,3.8 h -1.5 l -3.2,-3.8" /><path
       id="text5127"
       d="m 179.4,23.7 c -0.4,0.6 -0.8,1 -1.3,1.3 -0.5,0.3 -1.1,0.4 -1.7,0.4 -1.1,0 -1.9,-0.3 -2.5,-0.9 -0.6,-0.6 -0.8,-1.5 -0.8,-2.6 0,-1.6 0.5,-3 1.4,-4.1 1,-1.1 2.1,-1.7 3.5,-1.7 0.5,0 1,0.1 1.4,0.3 0.4,0.2 0.7,0.6 1,1 l 0.5,-1 h 1.8 l -1.5,6.1 c 0,0.1 0,0.2 -0.1,0.2 0,0.1 0,0.1 0,0.2 0,0.2 0.1,0.4 0.2,0.5 0.2,0.1 0.4,0.2 0.7,0.2 0.3,0 0.5,-0.1 0.8,-0.2 0.3,-0.1 0.6,-0.3 0.8,-0.6 0.6,-0.5 1,-1.2 1.3,-1.9 0.3,-0.7 0.5,-1.5 0.5,-2.4 0,-1.6 -0.6,-3 -1.9,-4.1 -1.3,-1.1 -2.9,-1.6 -4.9,-1.6 -1,0 -1.9,0.1 -2.7,0.3 -0.8,0.2 -1.6,0.6 -2.3,1 -1.2,0.8 -2.1,1.8 -2.7,2.9 -0.6,1.2 -0.9,2.5 -0.9,3.9 0,2.1 0.7,3.8 2.1,5 1.4,1.3 3.3,1.9 5.7,1.9 1.1,0 2.2,-0.2 3.2,-0.5 1.1,-0.3 2,-0.8 3,-1.5 l 0.8,1.2 c -1,0.8 -2.2,1.4 -3.3,1.8 -1.2,0.4 -2.4,0.6 -3.7,0.6 -1.3,0 -2.5,-0.2 -3.6,-0.5 -1.1,-0.3 -2.1,-0.8 -2.9,-1.5 -1.1,-0.8 -1.9,-1.8 -2.4,-2.9 -0.5,-1.1 -0.8,-2.3 -0.8,-3.7 0,-1.1 0.2,-2.2 0.5,-3.3 0.4,-1 0.9,-2 1.6,-2.8 1,-1.2 2.2,-2.2 3.7,-2.8 1.4,-0.6 3,-1 4.8,-1 1.2,0 2.2,0.2 3.3,0.5 1,0.3 1.9,0.7 2.7,1.3 0.9,0.7 1.6,1.5 2.1,2.5 0.5,0.9 0.7,2 0.7,3.1 0,1.1 -0.2,2.2 -0.7,3.1 -0.4,1 -1.1,1.8 -1.9,2.4 -0.5,0.4 -1,0.7 -1.6,0.9 -0.6,0.2 -1.1,0.3 -1.8,0.3 -0.7,0 -1.3,-0.1 -1.6,-0.4 -0.3,0 -0.5,-0.4 -0.5,-0.9 m 0.5,-4.4 c -0.1,-0.6 -0.3,-1 -0.6,-1.3 -0.3,-0.3 -0.7,-0.4 -1.2,-0.4 -0.8,0 -1.5,0.4 -2,1.3 -0.6,0.8 -0.9,1.9 -0.9,3.1 0,0.6 0.1,1.1 0.4,1.4 0.3,0.3 0.7,0.5 1.2,0.5 0.6,0 1.1,-0.2 1.6,-0.6 0.5,-0.4 0.8,-1 1,-1.7 l 0.5,-2.3 m -7.5,33.5 c 0,-1.3 0.3,-2.4 0.8,-3.3 0.5,-0.9 1.5,-1.8 2.9,-2.8 0.2,-0.1 0.5,-0.3 0.9,-0.6 1.9,-1.2 2.8,-2.3 2.8,-3.4 0,-0.7 -0.2,-1.2 -0.6,-1.5 -0.4,-0.4 -0.9,-0.6 -1.6,-0.6 -0.7,0 -1.3,0.2 -1.7,0.7 -0.4,0.5 -0.6,1.1 -0.6,2 v 0.1 h -2.7 c 0,-1.7 0.5,-3 1.4,-3.9 0.9,-0.9 2.2,-1.4 3.9,-1.4 1.5,0 2.7,0.4 3.6,1.2 0.9,0.8 1.4,1.9 1.4,3.3 0,1 -0.2,1.8 -0.7,2.5 -0.5,0.7 -1.4,1.5 -2.7,2.5 -0.3,0.2 -0.7,0.5 -1.2,0.8 -1.3,0.8 -2,1.5 -2.2,1.9 h 6.7 v 2.5 h -10.4" /><path
       id="text5139"
       d="m 231,17.7 -0.9,2.5 h 2.6 l 0.9,-2.5 H 231 m 0,-6.3 h 2.3 l -1.5,4.3 h 2.5 l 1.5,-4.3 h 2.3 l -1.5,4.3 h 2.9 l -0.8,2.1 h -2.9 l -0.9,2.5 h 3 l -0.7,2.1 h -3 l -1.5,4.3 h -2.3 l 1.5,-4.3 h -2.5 l -1.5,4.3 h -2.3 l 1.5,-4.3 h -3 l 0.8,-2.1 h 2.9 l 0.9,-2.5 h -3.1 l 0.8,-2.1 h 3.1 l 1.5,-4.3 m -4.6,36.9 h 2.8 c 0,0.8 0.2,1.4 0.6,1.9 0.4,0.4 1,0.6 1.7,0.6 0.7,0 1.3,-0.2 1.7,-0.6 0.4,-0.4 0.6,-0.9 0.6,-1.7 0,-0.7 -0.2,-1.3 -0.7,-1.6 -0.5,-0.4 -1.2,-0.6 -2.1,-0.6 0,0 -0.1,0 -0.2,0 -0.1,0 -0.2,0 -0.2,0 v -2 h 0.3 c 0.8,0 1.5,-0.2 1.9,-0.5 0.4,-0.3 0.6,-0.8 0.6,-1.5 0,-0.6 -0.2,-1 -0.5,-1.3 -0.3,-0.3 -0.8,-0.5 -1.4,-0.5 -0.7,0 -1.2,0.2 -1.5,0.6 -0.4,0.4 -0.5,0.9 -0.5,1.6 v 0.1 h -2.8 c 0,-1.5 0.5,-2.7 1.3,-3.5 0.9,-0.8 2.1,-1.2 3.6,-1.2 1.5,0 2.6,0.4 3.5,1.1 0.9,0.7 1.3,1.7 1.3,2.9 0,0.6 -0.1,1.2 -0.4,1.7 -0.3,0.5 -0.7,0.9 -1.3,1.2 0.8,0.3 1.3,0.8 1.7,1.4 0.4,0.6 0.6,1.3 0.6,2.1 0,1.5 -0.5,2.6 -1.4,3.5 -1,0.9 -2.3,1.3 -4,1.3 -1.7,0 -2.9,-0.4 -3.8,-1.3 -1,-0.9 -1.4,-2.1 -1.4,-3.7 v 0" /><path
       id="text5145"
       d="m 282.9,24.5 c 0.6,-0.1 1,-0.3 1.3,-0.6 0.3,-0.3 0.4,-0.8 0.4,-1.3 0,-0.5 -0.1,-0.9 -0.4,-1.2 -0.3,-0.3 -0.7,-0.6 -1.3,-0.8 v 3.9 m -1.3,-7 V 14 c -0.5,0.1 -0.9,0.3 -1.2,0.6 -0.3,0.3 -0.4,0.7 -0.4,1.2 0,0.4 0.1,0.8 0.4,1 0.3,0.3 0.7,0.5 1.2,0.7 m 0,11.3 v -2 c -1.5,-0.1 -2.7,-0.5 -3.5,-1.3 -0.8,-0.8 -1.2,-2 -1.2,-3.5 h 2.8 c 0,0.7 0.2,1.3 0.5,1.8 0.3,0.4 0.8,0.7 1.4,0.8 v -4.3 c -1.6,-0.4 -2.7,-0.9 -3.4,-1.6 -0.7,-0.7 -1,-1.5 -1,-2.7 0,-1.3 0.4,-2.3 1.2,-3 0.8,-0.8 1.9,-1.2 3.2,-1.2 v -1.3 h 1.2 v 1.3 c 1.3,0.1 2.4,0.5 3.1,1.2 0.7,0.7 1.2,1.8 1.2,3.1 h -2.8 c 0,-0.6 -0.2,-1.1 -0.5,-1.5 -0.3,-0.3 -0.6,-0.5 -1.1,-0.6 v 3.7 c 1.7,0.5 2.9,1.1 3.6,1.8 0.7,0.7 1,1.6 1,2.7 0,1.3 -0.4,2.4 -1.2,3.1 -0.8,0.8 -1.9,1.2 -3.4,1.4 v 2 h -1.1 M 283,47.3 V 41 l -4,6.3 h 4 m 0,5.5 v -3.2 h -6.2 V 47 l 5.4,-8.5 h 3.6 v 8.8 h 1.7 v 2.3 h -1.7 v 3.2 H 283" /><path
       id="text5151"
       d="m 340.7,23 c 0,0.5 0.2,0.8 0.5,1.2 0.3,0.3 0.7,0.5 1.1,0.5 0.4,0 0.8,-0.2 1.1,-0.5 0.3,-0.3 0.5,-0.7 0.5,-1.2 0,-0.4 -0.2,-0.8 -0.5,-1.1 -0.3,-0.3 -0.7,-0.5 -1.1,-0.5 -0.5,0 -0.8,0.2 -1.1,0.5 -0.3,0.3 -0.5,0.7 -0.5,1.1 m -2.2,0 c 0,-1.1 0.4,-2 1.1,-2.7 0.7,-0.7 1.6,-1.1 2.7,-1.1 1.1,0 2,0.4 2.7,1.1 0.7,0.7 1.1,1.6 1.1,2.7 0,1.1 -0.4,2 -1.1,2.7 -0.7,0.7 -1.6,1.1 -2.7,1.1 -1.1,0 -2,-0.4 -2.7,-1.1 -0.7,-0.7 -1.1,-1.6 -1.1,-2.7 m -6,3.9 8.8,-15.1 h 1.7 l -8.8,15.1 h -1.7 m -0.9,-11.3 c 0,0.5 0.2,0.8 0.5,1.1 0.3,0.3 0.7,0.5 1.1,0.5 0.4,0 0.8,-0.2 1.1,-0.5 0.3,-0.3 0.5,-0.7 0.5,-1.1 0,-0.4 -0.2,-0.8 -0.5,-1.1 -0.3,-0.3 -0.7,-0.5 -1.1,-0.5 -0.5,0 -0.8,0.2 -1.1,0.5 -0.3,0.2 -0.5,0.6 -0.5,1.1 m -2.2,0 c 0,-1.1 0.4,-2 1.1,-2.7 0.7,-0.7 1.6,-1.1 2.7,-1.1 1.1,0 2,0.4 2.7,1.1 0.7,0.7 1.1,1.6 1.1,2.7 0,1.1 -0.4,2 -1.1,2.7 -0.7,0.7 -1.6,1.1 -2.7,1.1 -1.1,0 -2,-0.4 -2.7,-1.1 -0.7,-0.8 -1.1,-1.7 -1.1,-2.7 m 2.9,33.2 h 2.9 c 0,0.6 0.3,1.1 0.6,1.5 0.4,0.3 0.9,0.5 1.5,0.5 0.8,0 1.4,-0.2 1.8,-0.7 0.4,-0.5 0.6,-1.1 0.6,-2 0,-0.8 -0.2,-1.5 -0.6,-1.9 -0.4,-0.5 -1,-0.7 -1.8,-0.7 -0.4,0 -0.8,0.1 -1.1,0.3 -0.3,0.2 -0.6,0.4 -0.8,0.8 l -2.7,-0.2 1,-7.9 h 8.5 V 41 h -6.4 l -0.4,3 c 0.3,-0.3 0.7,-0.4 1.1,-0.6 0.4,-0.1 0.9,-0.2 1.4,-0.2 1.5,0 2.6,0.4 3.5,1.3 0.9,0.9 1.4,2.1 1.4,3.5 0,1.6 -0.5,2.8 -1.5,3.8 -1,0.9 -2.3,1.4 -4,1.4 -1.5,0 -2.7,-0.4 -3.6,-1.2 -0.8,-0.8 -1.3,-1.8 -1.4,-3.2" /><path
       id="text5157"
       d="m 387,11.4 h 2.6 l 4.9,5.8 h -2.4 l -3.8,-3.8 -3.8,3.8 H 382 l 5,-5.8 m -0.9,36.7 c 0,0.8 0.2,1.5 0.6,2 0.4,0.5 1,0.7 1.7,0.7 0.7,0 1.2,-0.2 1.6,-0.7 0.4,-0.5 0.6,-1.1 0.6,-2 0,-0.8 -0.2,-1.4 -0.6,-1.8 -0.4,-0.4 -1,-0.7 -1.7,-0.7 -0.7,0 -1.3,0.2 -1.7,0.7 -0.3,0.4 -0.5,1 -0.5,1.8 m 0,-3.9 c 0.3,-0.3 0.7,-0.6 1.2,-0.8 0.5,-0.2 1,-0.3 1.6,-0.3 1.4,0 2.6,0.4 3.5,1.3 0.9,0.9 1.3,2 1.3,3.5 0,1.5 -0.5,2.8 -1.4,3.8 -0.9,1 -2.2,1.4 -3.7,1.4 -1.8,0 -3.1,-0.6 -4.1,-1.9 -0.9,-1.2 -1.4,-3 -1.4,-5.4 0,-2.6 0.5,-4.5 1.5,-5.9 1,-1.4 2.4,-2 4.3,-2 1.3,0 2.4,0.3 3.1,1 0.8,0.7 1.2,1.6 1.3,2.8 h -3 c -0.1,-0.5 -0.3,-0.8 -0.6,-1.1 -0.3,-0.2 -0.7,-0.4 -1.3,-0.4 -0.7,0 -1.3,0.3 -1.7,1 -0.4,0.8 -0.6,1.8 -0.6,3" /><path
       id="text5163"
       d="m 439.4,19.8 -0.8,0.6 c -0.3,0.2 -0.6,0.5 -0.7,0.8 -0.2,0.3 -0.2,0.7 -0.2,1 0,0.6 0.2,1.1 0.6,1.5 0.4,0.4 0.9,0.6 1.5,0.6 0.4,0 0.9,-0.1 1.3,-0.3 0.4,-0.2 0.8,-0.5 1.1,-0.8 l -2.8,-3.4 m 0.8,-3.2 0.4,-0.3 c 0.3,-0.2 0.6,-0.5 0.7,-0.8 0.2,-0.3 0.2,-0.6 0.2,-1 0,-0.3 -0.1,-0.6 -0.3,-0.8 -0.2,-0.2 -0.5,-0.3 -0.9,-0.3 -0.4,0 -0.7,0.1 -0.9,0.3 -0.2,0.2 -0.3,0.5 -0.3,0.8 0,0.2 0.1,0.4 0.2,0.6 0.1,0.2 0.3,0.5 0.5,0.7 l 0.4,0.8 m -2.3,1.4 -0.6,-0.8 c -0.3,-0.4 -0.5,-0.8 -0.7,-1.2 -0.1,-0.4 -0.2,-0.7 -0.2,-1.1 0,-1.1 0.3,-2 1,-2.6 0.7,-0.7 1.7,-1 2.9,-1 1.2,0 2.1,0.3 2.7,0.9 0.7,0.6 1,1.4 1,2.4 0,0.8 -0.2,1.5 -0.6,2.1 -0.4,0.6 -1,1.2 -1.9,1.7 l 2.2,2.7 c 0.2,-0.3 0.4,-0.7 0.5,-1.1 0.1,-0.4 0.2,-0.9 0.3,-1.4 h 2.7 c -0.1,0.9 -0.3,1.7 -0.6,2.5 -0.3,0.8 -0.7,1.5 -1.2,2.1 l 2.8,3.4 h -3.5 l -1,-1.3 c -0.6,0.6 -1.3,1 -2,1.3 -0.7,0.3 -1.5,0.4 -2.3,0.4 -1.4,0 -2.5,-0.4 -3.4,-1.2 -0.9,-0.8 -1.3,-1.9 -1.3,-3.2 0,-1 0.2,-1.8 0.7,-2.5 0.5,-0.8 1.3,-1.5 2.5,-2.1 m 3,34.8 h -3.1 c 0.1,-2 0.6,-4 1.4,-6 0.9,-2 2.1,-3.9 3.7,-5.8 h -7.2 v -2.5 h 10.4 v 2.2 c -1.6,1.8 -2.9,3.7 -3.7,5.7 -0.8,1.9 -1.3,4.1 -1.5,6.4" /><path
       id="text5169"
       d="m 492.6,17.3 -1.8,2.5 -1.7,-1.2 2,-2.5 -2.9,-0.8 0.7,-2.1 2.8,1 v -3 h 2 v 3 l 2.8,-1 0.7,2.1 -2.9,0.8 2,2.5 -1.8,1.3 -1.9,-2.6 m -2.4,31.2 c 0,0.7 0.2,1.3 0.6,1.7 0.4,0.4 1,0.6 1.7,0.6 0.7,0 1.3,-0.2 1.7,-0.6 0.4,-0.4 0.6,-0.9 0.6,-1.7 0,-0.7 -0.2,-1.2 -0.6,-1.6 -0.4,-0.4 -1,-0.6 -1.7,-0.6 -0.7,0 -1.3,0.2 -1.7,0.6 -0.3,0.4 -0.6,0.9 -0.6,1.6 m 0.3,-6.3 c 0,0.6 0.2,1 0.5,1.3 0.4,0.3 0.9,0.5 1.5,0.5 0.7,0 1.2,-0.2 1.5,-0.5 0.4,-0.3 0.5,-0.7 0.5,-1.3 0,-0.5 -0.2,-1 -0.6,-1.3 -0.4,-0.3 -0.9,-0.5 -1.5,-0.5 -0.6,0 -1.1,0.2 -1.5,0.5 -0.2,0.3 -0.4,0.7 -0.4,1.3 m -1.1,2.8 c -0.6,-0.3 -1.1,-0.7 -1.3,-1.2 -0.3,-0.5 -0.4,-1 -0.4,-1.8 0,-1.3 0.4,-2.3 1.3,-3 0.9,-0.7 2.1,-1.1 3.6,-1.1 1.5,0 2.7,0.4 3.6,1.1 0.9,0.7 1.3,1.7 1.3,3 0,0.7 -0.1,1.3 -0.4,1.8 -0.3,0.5 -0.7,0.9 -1.3,1.2 0.7,0.3 1.3,0.8 1.6,1.4 0.4,0.6 0.5,1.3 0.5,2.2 0,1.4 -0.5,2.6 -1.4,3.4 -0.9,0.8 -2.2,1.2 -3.9,1.2 -1.7,0 -3,-0.4 -3.9,-1.2 -0.9,-0.8 -1.4,-1.9 -1.4,-3.4 0,-0.8 0.2,-1.5 0.5,-2.1 0.3,-0.6 0.9,-1.1 1.6,-1.5" /><path
       id="text5175"
       d="m 549,11.3 c -0.9,1.5 -1.6,3.1 -2.1,4.7 -0.5,1.6 -0.7,3.3 -0.7,5 0,1.8 0.2,3.4 0.7,5 0.5,1.6 1.2,3.2 2.1,4.7 h -2.2 c -1.2,-1.6 -2.1,-3.3 -2.7,-4.9 -0.6,-1.7 -0.9,-3.3 -0.9,-4.8 0,-1.6 0.3,-3.2 0.9,-4.8 0.6,-1.7 1.5,-3.3 2.7,-4.9 h 2.2 m -1.6,31.9 c 0,-0.8 -0.2,-1.5 -0.6,-2 -0.4,-0.5 -1,-0.7 -1.7,-0.7 -0.7,0 -1.2,0.2 -1.6,0.7 -0.4,0.5 -0.6,1.1 -0.6,2 0,0.8 0.2,1.4 0.6,1.9 0.4,0.4 1,0.7 1.7,0.7 0.7,0 1.3,-0.2 1.7,-0.7 0.3,-0.5 0.5,-1.2 0.5,-1.9 m 0.1,3.8 c -0.3,0.3 -0.7,0.6 -1.2,0.8 -0.5,0.2 -1,0.3 -1.6,0.3 -1.4,0 -2.6,-0.4 -3.5,-1.3 -0.9,-0.9 -1.3,-2 -1.3,-3.5 0,-1.5 0.5,-2.8 1.4,-3.8 0.9,-1 2.2,-1.4 3.7,-1.4 1.8,0 3.2,0.6 4.1,1.9 0.9,1.2 1.4,3 1.4,5.4 0,2.5 -0.5,4.5 -1.5,5.9 -1,1.4 -2.4,2 -4.3,2 -1.3,0 -2.3,-0.3 -3.1,-1 -0.8,-0.7 -1.2,-1.6 -1.3,-2.8 h 3 c 0.1,0.5 0.3,0.8 0.6,1.1 0.3,0.2 0.7,0.3 1.3,0.3 0.7,0 1.3,-0.3 1.7,-1 0.3,-0.7 0.5,-1.6 0.6,-2.9" /><path
       id="text5181"
       d="m 594.2,11.3 h 2.2 c 1.2,1.6 2.1,3.3 2.7,4.9 0.6,1.7 0.9,3.3 0.9,4.8 0,1.6 -0.3,3.2 -0.9,4.8 -0.6,1.7 -1.5,3.3 -2.7,4.9 h -2.2 c 1,-1.6 1.7,-3.1 2.1,-4.7 0.5,-1.6 0.7,-3.3 0.7,-5 0,-1.7 -0.2,-3.4 -0.7,-5 -0.4,-1.5 -1.2,-3.1 -2.1,-4.7 m 1.4,34.3 c 0,1.8 0.2,3.1 0.5,3.9 0.4,0.8 0.9,1.2 1.7,1.2 0.8,0 1.4,-0.4 1.7,-1.2 0.4,-0.8 0.5,-2.1 0.5,-3.9 0,-1.8 -0.2,-3.1 -0.5,-3.9 -0.4,-0.8 -0.9,-1.2 -1.7,-1.2 -0.8,0 -1.4,0.4 -1.7,1.2 -0.3,0.8 -0.5,2.1 -0.5,3.9 m -3.1,0 c 0,-2.5 0.4,-4.4 1.3,-5.7 0.9,-1.3 2.2,-1.9 4,-1.9 1.8,0 3.1,0.6 4,1.9 0.9,1.3 1.3,3.2 1.3,5.7 0,2.5 -0.4,4.4 -1.3,5.7 -0.9,1.2 -2.2,1.9 -4,1.9 -1.8,0 -3.1,-0.6 -4,-1.9 -0.8,-1.3 -1.3,-3.2 -1.3,-5.7" /><path
       id="text5187"
       d="m 645.2,29.3 h 10.5 v 2.1 h -10.5 v -2.1 m 2.4,19.3 v -2.8 h 5.8 v 2.8 h -5.8" /><path
       id="text5201"
       d="m 702.9,13.9 h 2.1 v 5.2 h 5.1 v 2 H 705 v 5.3 h -2.1 v -5.3 h -5.1 v -2 h 5.1 v -5.2 m -5.1,33.8 h 12.3 v 2 h -12.3 v -2 m 0,-4.5 h 12.3 v 2 h -12.3 v -2" /><path
       id="text5427"
       d="m 69.4,89.6 v -8.3 h -3 v -1.8 h 8 v 1.8 h -3 v 8.3 h -2 m 10.3,-0.9 c -0.3,0.4 -0.6,0.7 -1,0.9 -0.4,0.2 -0.9,0.3 -1.4,0.3 -0.7,0 -1.3,-0.2 -1.7,-0.6 -0.4,-0.4 -0.6,-1 -0.6,-1.8 0,-0.7 0.2,-1.2 0.6,-1.6 0.4,-0.4 1,-0.6 1.9,-0.8 0.2,0 0.5,-0.1 0.8,-0.1 0.8,-0.1 1.3,-0.4 1.3,-0.7 0,-0.3 -0.1,-0.5 -0.3,-0.6 -0.2,-0.1 -0.5,-0.2 -0.9,-0.2 -0.4,0 -0.7,0.1 -0.9,0.2 -0.2,0.2 -0.3,0.4 -0.3,0.7 v 0.1 h -1.9 v -0.1 c 0,-0.8 0.3,-1.4 0.8,-1.8 0.5,-0.4 1.3,-0.7 2.2,-0.7 1,0 1.8,0.2 2.4,0.5 0.6,0.4 0.8,0.9 0.8,1.6 v 4.2 c 0,0.3 0,0.5 0.1,0.7 0.1,0.2 0.2,0.3 0.3,0.3 v 0.3 h -2.1 c -0.1,-0.1 -0.1,-0.3 -0.2,-0.4 0.1,-0.1 0.1,-0.3 0.1,-0.4 m 0,-2.8 c -0.3,0.2 -0.7,0.3 -1.1,0.4 -0.4,0.1 -0.6,0.1 -0.7,0.1 -0.4,0.1 -0.6,0.2 -0.7,0.4 -0.2,0.1 -0.2,0.4 -0.2,0.6 0,0.3 0.1,0.5 0.3,0.7 0.2,0.2 0.4,0.2 0.7,0.2 0.5,0 1,-0.2 1.3,-0.5 0.3,-0.3 0.5,-0.7 0.5,-1.2 v -0.7 m 3.6,-6.4 h 1.9 v 3.6 c 0.2,-0.4 0.6,-0.7 0.9,-0.9 0.4,-0.2 0.8,-0.3 1.3,-0.3 0.9,0 1.6,0.4 2.2,1.1 0.6,0.7 0.9,1.7 0.9,2.9 0,1.2 -0.3,2.1 -0.9,2.9 -0.6,0.7 -1.3,1.1 -2.2,1.1 -0.5,0 -0.9,-0.1 -1.3,-0.3 -0.4,-0.2 -0.7,-0.5 -1,-1 v 1 h -1.9 l 0.1,-10.1 m 5.2,6.3 c 0,-0.7 -0.1,-1.2 -0.4,-1.6 -0.3,-0.4 -0.7,-0.6 -1.2,-0.6 -0.5,0 -0.9,0.2 -1.2,0.6 -0.3,0.4 -0.4,0.9 -0.4,1.6 0,0.8 0.1,1.3 0.4,1.7 0.3,0.4 0.7,0.6 1.2,0.6 0.5,0 1,-0.2 1.2,-0.6 0.3,-0.4 0.4,-0.9 0.4,-1.7" /><path
       id="text5207"
       d="m 752.4,44.6 h 2.5 c 0.6,0 1,-0.1 1.3,-0.3 0.3,-0.2 0.4,-0.5 0.4,-1 0,-0.5 -0.1,-0.8 -0.4,-1 -0.3,-0.2 -0.7,-0.3 -1.3,-0.3 h -2.4 l -0.1,2.6 m 0,-4.3 h 2.4 c 0.5,0 0.9,-0.1 1.1,-0.3 0.2,-0.2 0.4,-0.5 0.4,-0.8 0,-0.4 -0.1,-0.6 -0.3,-0.8 -0.2,-0.2 -0.6,-0.3 -1.1,-0.3 h -2.4 v 2.2 m -2.1,6.2 V 36.4 h 4.8 c 1,0 1.8,0.2 2.4,0.7 0.5,0.4 0.8,1.1 0.8,1.9 0,0.5 -0.1,0.9 -0.3,1.3 -0.2,0.3 -0.5,0.6 -0.9,0.8 0.5,0.2 0.9,0.5 1.2,0.9 0.3,0.4 0.4,0.9 0.4,1.5 0,1 -0.3,1.7 -1,2.3 -0.6,0.5 -1.5,0.8 -2.7,0.8 h -4.7 m 14,-1.1 c -0.3,0.4 -0.6,0.7 -1,0.9 -0.4,0.2 -0.9,0.3 -1.4,0.3 -0.7,0 -1.3,-0.2 -1.7,-0.6 -0.4,-0.4 -0.6,-1 -0.6,-1.8 0,-0.7 0.2,-1.2 0.6,-1.6 0.4,-0.4 1,-0.6 1.9,-0.8 0.2,0 0.5,-0.1 0.8,-0.1 0.8,-0.1 1.3,-0.4 1.3,-0.7 0,-0.3 -0.1,-0.5 -0.3,-0.6 -0.2,-0.1 -0.5,-0.2 -0.9,-0.2 -0.4,0 -0.7,0.1 -0.9,0.2 -0.2,0.2 -0.3,0.4 -0.3,0.7 v 0.1 H 760 v -0.1 c 0,-0.8 0.3,-1.4 0.8,-1.8 0.5,-0.4 1.3,-0.7 2.2,-0.7 1,0 1.8,0.2 2.4,0.5 0.6,0.4 0.8,0.9 0.8,1.6 V 45 c 0,0.3 0,0.5 0.1,0.7 0.1,0.2 0.2,0.3 0.3,0.3 v 0.3 h -2.1 c -0.1,-0.1 -0.1,-0.3 -0.2,-0.4 -0.1,-0.1 0.1,-0.2 0.1,-0.4 m 0,-2.7 c -0.3,0.2 -0.7,0.3 -1.1,0.4 -0.4,0.1 -0.6,0.1 -0.7,0.1 -0.4,0.1 -0.6,0.2 -0.7,0.4 -0.1,0.2 -0.2,0.4 -0.2,0.6 0,0.3 0.1,0.5 0.3,0.7 0.2,0.2 0.4,0.2 0.7,0.2 0.5,0 1,-0.2 1.3,-0.5 0.3,-0.3 0.5,-0.7 0.5,-1.2 l -0.1,-0.7 m 8.2,0.9 h 2 c -0.1,0.9 -0.4,1.7 -1,2.2 -0.6,0.5 -1.4,0.8 -2.3,0.8 -1.1,0 -1.9,-0.4 -2.5,-1.1 -0.6,-0.7 -0.9,-1.7 -0.9,-2.9 0,-1.2 0.3,-2.2 0.9,-2.9 0.6,-0.7 1.5,-1.1 2.6,-1.1 1,0 1.7,0.3 2.3,0.8 0.6,0.5 0.9,1.2 1,2.1 h -2 c -0.1,-0.4 -0.2,-0.7 -0.4,-0.9 -0.2,-0.2 -0.5,-0.3 -0.9,-0.3 -0.5,0 -0.9,0.2 -1.1,0.6 -0.2,0.4 -0.4,1 -0.4,1.7 0,0.7 0.1,1.3 0.4,1.7 0.3,0.4 0.6,0.6 1.1,0.6 0.4,0 0.7,-0.1 0.9,-0.3 0,-0.3 0.2,-0.6 0.3,-1 m 3.2,2.8 V 36.4 h 1.9 v 5.3 l 2.4,-2.7 h 2.4 l -2.6,2.8 2.8,4.7 h -2.4 l -1.8,-3.2 -0.8,0.8 v 2.4 h -1.9 m 7.4,-2.5 h 2 c 0,0.4 0.2,0.7 0.4,0.8 0.3,0.2 0.6,0.3 1.2,0.3 0.4,0 0.7,-0.1 0.9,-0.2 0.2,-0.1 0.3,-0.3 0.3,-0.6 0,-0.3 -0.4,-0.6 -1.2,-0.8 -0.3,-0.1 -0.6,-0.1 -0.8,-0.2 -1,-0.2 -1.6,-0.5 -2,-0.9 -0.4,-0.3 -0.6,-0.8 -0.6,-1.4 0,-0.8 0.3,-1.4 0.8,-1.8 0.6,-0.4 1.3,-0.7 2.2,-0.7 1,0 1.8,0.2 2.3,0.7 0.6,0.4 0.9,1.1 0.9,1.9 h -1.9 c 0,-0.3 -0.1,-0.6 -0.4,-0.7 -0.2,-0.2 -0.5,-0.3 -0.9,-0.3 -0.4,0 -0.7,0.1 -0.8,0.2 -0.2,0.1 -0.3,0.3 -0.3,0.5 0,0.3 0.5,0.6 1.5,0.8 0.2,0.1 0.4,0.1 0.5,0.1 1,0.2 1.7,0.5 2,0.8 0.4,0.3 0.5,0.8 0.5,1.4 0,0.8 -0.3,1.5 -0.9,1.9 -0.6,0.4 -1.5,0.7 -2.6,0.7 -1,0 -1.8,-0.2 -2.4,-0.7 -0.6,-0.5 -0.7,-0.9 -0.7,-1.8 v 0 m 13.3,-1.2 c 0,-0.7 -0.1,-1.3 -0.4,-1.7 -0.3,-0.4 -0.7,-0.6 -1.2,-0.6 -0.5,0 -0.9,0.2 -1.2,0.6 -0.3,0.4 -0.4,1 -0.4,1.7 0,0.7 0.1,1.2 0.4,1.6 0.3,0.4 0.7,0.6 1.2,0.6 0.5,0 0.9,-0.2 1.2,-0.6 0.3,-0.4 0.4,-0.9 0.4,-1.6 m -5.2,6.6 V 39 h 1.9 v 1 c 0.3,-0.4 0.6,-0.8 1,-1 0.4,-0.2 0.8,-0.3 1.3,-0.3 0.9,0 1.7,0.4 2.2,1.1 0.6,0.7 0.9,1.7 0.9,2.9 0,1.2 -0.3,2.2 -0.9,2.9 -0.6,0.7 -1.3,1.1 -2.2,1.1 -0.5,0 -0.9,-0.1 -1.3,-0.3 -0.4,-0.2 -0.7,-0.5 -0.9,-0.9 v 3.9 h -2 m 12.8,-3.9 c -0.3,0.4 -0.6,0.7 -1,0.9 -0.4,0.2 -0.9,0.3 -1.4,0.3 -0.7,0 -1.3,-0.2 -1.7,-0.6 -0.4,-0.4 -0.6,-1 -0.6,-1.8 0,-0.7 0.2,-1.2 0.6,-1.6 0.4,-0.4 1,-0.6 1.9,-0.8 0.2,0 0.5,-0.1 0.8,-0.1 0.8,-0.1 1.3,-0.4 1.3,-0.7 0,-0.3 -0.1,-0.5 -0.3,-0.6 -0.2,-0.1 -0.5,-0.2 -0.9,-0.2 -0.4,0 -0.7,0.1 -0.9,0.2 -0.2,0.2 -0.3,0.4 -0.3,0.7 v 0.1 h -1.9 v -0.1 c 0,-0.8 0.3,-1.4 0.8,-1.8 0.5,-0.4 1.3,-0.7 2.2,-0.7 1,0 1.8,0.2 2.4,0.5 0.6,0.4 0.8,0.9 0.8,1.6 V 45 c 0,0.3 0,0.5 0.1,0.7 0.1,0.2 0.2,0.3 0.3,0.3 v 0.3 h -2.1 c -0.1,-0.1 -0.1,-0.3 -0.2,-0.4 0.1,0 0.1,-0.2 0.1,-0.4 m 0,-2.7 c -0.3,0.2 -0.7,0.3 -1.1,0.4 -0.4,0.1 -0.6,0.1 -0.7,0.1 -0.4,0.1 -0.6,0.2 -0.7,0.4 -0.1,0.2 -0.2,0.4 -0.2,0.6 0,0.3 0.1,0.5 0.3,0.7 0.2,0.2 0.4,0.2 0.7,0.2 0.5,0 1,-0.2 1.3,-0.5 0.3,-0.3 0.5,-0.7 0.5,-1.2 l -0.1,-0.7 m 8.2,0.9 h 2 c -0.1,0.9 -0.4,1.7 -1,2.2 -0.6,0.5 -1.4,0.8 -2.3,0.8 -1.1,0 -1.9,-0.4 -2.5,-1.1 -0.6,-0.7 -0.9,-1.7 -0.9,-2.9 0,-1.2 0.3,-2.2 0.9,-2.9 0.6,-0.7 1.5,-1.1 2.6,-1.1 1,0 1.7,0.3 2.3,0.8 0.6,0.5 0.9,1.2 1,2.1 h -2 c -0.1,-0.4 -0.2,-0.7 -0.4,-0.9 -0.2,-0.2 -0.5,-0.3 -0.9,-0.3 -0.5,0 -0.9,0.2 -1.1,0.6 -0.2,0.4 -0.4,1 -0.4,1.7 0,0.7 0.1,1.3 0.4,1.7 0.3,0.4 0.6,0.6 1.1,0.6 0.4,0 0.7,-0.1 0.9,-0.3 0,-0.3 0.2,-0.6 0.3,-1 m 7.8,0.5 h 2 c -0.2,0.8 -0.6,1.4 -1.2,1.9 -0.6,0.4 -1.4,0.7 -2.2,0.7 -1.1,0 -1.9,-0.4 -2.6,-1.1 -0.6,-0.7 -0.9,-1.7 -0.9,-2.9 0,-1.2 0.3,-2.2 0.9,-2.9 0.6,-0.7 1.5,-1.1 2.5,-1.1 1.1,0 2,0.3 2.6,1 0.6,0.7 0.9,1.7 0.9,3 0,0.1 0,0.2 0,0.3 0,0.1 0,0.1 0,0.2 h -5 c 0,0.6 0.2,1 0.4,1.3 0.3,0.3 0.6,0.4 1.1,0.4 0.3,0 0.6,-0.1 0.8,-0.2 0.4,-0.1 0.5,-0.3 0.7,-0.6 M 817.2,42 h 2.9 c 0,-0.5 -0.2,-0.9 -0.4,-1.1 -0.2,-0.3 -0.6,-0.4 -1.1,-0.4 -0.4,0 -0.8,0.1 -1,0.4 -0.3,0.2 -0.4,0.6 -0.4,1.1" /><path
       id="path5439"
       class="st6"
       d="M 796.5,21.2 H 758.8" /><path
       id="path5441"
       d="M 763.6,27.8 V 14.6 l -13.2,6.6 z" /><g
       id="g5459"
       transform="translate(0,7.5)">
		<path
   id="path5453"
   class="st6"
   d="M 132,70.6 H 107" />
		<path
   id="path5455"
   d="M 112.3,77.2 V 64 l -13.2,6.6 z" />
		<path
   id="path5457"
   class="st6"
   d="m 99.1,64 c 0,13.2 0,13.2 0,13.2" />
	</g><g
       id="g5464"
       transform="rotate(180,63.75,86.25)">
		<path
   id="path5466"
   class="st6"
   d="M 28.4,81.3 H 3.4" />
		<path
   id="path5468"
   d="M 8.6,87.8 V 74.7 l -13.2,6.6 z" />
		<path
   id="path5470"
   class="st6"
   d="m -4.5,74.7 c 0,13.2 0,13.2 0,13.2" />
	</g><path
       id="text5474"
       d="m 153.6,76.4 -1.6,-1.6 1.7,-1.8 1.6,1.6 c 0.2,-0.4 0.4,-0.9 0.5,-1.4 0.1,-0.5 0.2,-1.1 0.2,-1.7 0,-1.7 -0.4,-3 -1.1,-3.9 -0.7,-0.9 -1.8,-1.4 -3.1,-1.4 -1.3,0 -2.4,0.5 -3.1,1.4 -0.7,0.9 -1.1,2.2 -1.1,3.9 0,1.7 0.4,3 1.1,3.9 0.7,0.9 1.8,1.4 3.1,1.4 0.3,0 0.7,0 1,-0.1 0.2,-0.1 0.5,-0.2 0.8,-0.3 m 2.2,2.1 c -0.5,0.3 -1.1,0.6 -1.8,0.8 -0.7,0.2 -1.4,0.3 -2.2,0.3 -2.3,0 -4.1,-0.7 -5.4,-2.2 -1.3,-1.4 -2,-3.4 -2,-5.8 0,-2.4 0.7,-4.4 2,-5.8 1.3,-1.4 3.1,-2.2 5.4,-2.2 2.3,0 4.1,0.7 5.4,2.2 1.3,1.4 2,3.4 2,5.8 0,1.1 -0.1,2 -0.4,2.9 -0.3,0.9 -0.7,1.7 -1.2,2.3 l 1.6,1.6 -1.7,1.8 -1.7,-1.7" /><path
       id="text5482"
       d="M 199.1,79.1 194.8,64 h 3.2 l 2.6,10.7 2.2,-10.7 h 3.3 l 2.2,10.7 2.6,-10.7 h 3.2 l -4.3,15.1 h -3 l -2.3,-11.6 -2.4,11.6 h -3" /><path
       id="text5492"
       d="M 251.4,79.1 V 63.9 h 11 v 2.6 h -7.9 v 3.2 h 7.2 v 2.6 h -7.2 v 3.9 h 8.3 V 79 l -11.4,0.1" /><path
       id="text5500"
       d="m 306.5,70.6 h 3.7 c 0.8,0 1.4,-0.2 1.7,-0.5 0.4,-0.3 0.6,-0.8 0.6,-1.5 0,-0.7 -0.2,-1.2 -0.5,-1.5 -0.4,-0.3 -0.9,-0.5 -1.6,-0.5 h -3.8 v 4 m -3.2,8.5 V 63.9 h 7.3 c 1.7,0 2.9,0.4 3.7,1.1 0.8,0.7 1.2,1.8 1.2,3.2 0,0.9 -0.2,1.7 -0.6,2.3 -0.4,0.6 -0.9,1 -1.7,1.3 0.7,0.2 1.1,0.6 1.4,1.1 0.3,0.5 0.4,1.2 0.5,2.2 l 0.1,1.8 c 0,0 0,0 0,0.1 0,0.9 0.2,1.5 0.6,1.6 v 0.5 h -3.4 c -0.1,-0.2 -0.2,-0.5 -0.3,-0.8 -0.1,-0.3 -0.1,-0.7 -0.1,-1.1 v -1.6 c 0,-0.9 -0.2,-1.6 -0.5,-1.9 -0.3,-0.3 -0.9,-0.5 -1.7,-0.5 h -3.3 v 5.9 h -3.2" /><path
       id="text5504"
       d="M 360.7,79.1 V 66.6 h -4.5 v -2.7 h 12.1 v 2.7 h -4.5 V 79 l -3.1,0.1" /><path
       id="text5518"
       d="m 416.7,79.1 h -3.1 V 73.5 L 408.1,64 h 3.8 l 3.2,6.5 3,-6.5 h 3.6 l -5,9.5 v 5.6" /><path
       id="text5522"
       d="m 461.5,63.7 h 3.1 v 9.5 c 0,1.2 0.2,2 0.7,2.6 0.5,0.5 1.2,0.8 2.2,0.8 1,0 1.8,-0.3 2.2,-0.8 0.5,-0.5 0.7,-1.4 0.7,-2.6 v -9.5 h 3.1 v 9.8 c 0,1.9 -0.5,3.3 -1.6,4.3 -1,1 -2.5,1.5 -4.5,1.5 -2,0 -3.5,-0.5 -4.5,-1.5 -1,-1 -1.6,-2.4 -1.6,-4.3 v -9.8" /><path
       id="text5526"
       d="M 518.6,79.1 V 63.9 h 3.1 V 79 l -3.1,0.1" /><path
       id="text5530"
       d="m 568.6,71.5 c 0,1.7 0.4,3 1.1,3.9 0.7,0.9 1.8,1.4 3.1,1.4 1.3,0 2.4,-0.5 3.1,-1.4 0.7,-0.9 1.1,-2.2 1.1,-3.9 0,-1.7 -0.4,-3 -1.1,-3.9 -0.7,-0.9 -1.8,-1.4 -3.1,-1.4 -1.3,0 -2.4,0.5 -3.1,1.4 -0.7,0.9 -1.1,2.2 -1.1,3.9 m -3.2,0 c 0,-2.4 0.7,-4.4 2,-5.8 1.3,-1.4 3.1,-2.2 5.4,-2.2 2.3,0 4.1,0.7 5.4,2.2 1.3,1.4 2,3.4 2,5.8 0,2.4 -0.7,4.4 -2,5.8 -1.3,1.4 -3.1,2.2 -5.4,2.2 -2.3,0 -4.1,-0.7 -5.4,-2.2 -1.3,-1.4 -2,-3.4 -2,-5.8" /><path
       id="text5534"
       d="m 622.8,70.9 h 3 c 0.8,0 1.4,-0.2 1.8,-0.5 0.4,-0.3 0.6,-0.9 0.6,-1.7 0,-0.7 -0.2,-1.3 -0.5,-1.6 -0.4,-0.4 -0.9,-0.6 -1.6,-0.6 h -3.2 l -0.1,4.4 m 0,2.8 v 5.4 h -3.1 V 63.9 h 6.7 c 1.6,0 2.8,0.4 3.6,1.2 0.8,0.8 1.2,2 1.2,3.6 0,1.6 -0.4,2.8 -1.2,3.6 -0.8,0.8 -1.9,1.3 -3.4,1.3 l -3.8,0.1" /><path
       id="text5546"
       d="m 681.8,61.8 v 2.1 c -0.1,0 -0.1,0 -0.3,0 -0.1,0 -0.2,0 -0.2,0 -0.7,0 -1.2,0.1 -1.4,0.4 -0.2,0.3 -0.4,0.8 -0.4,1.7 v 2.5 c 0,1 -0.2,1.7 -0.5,2.2 -0.3,0.4 -0.9,0.7 -1.7,0.9 0.8,0.2 1.4,0.5 1.7,0.9 0.3,0.4 0.5,1.1 0.5,2.1 v 2.5 c 0,0.8 0.1,1.4 0.4,1.7 0.3,0.3 0.7,0.4 1.4,0.4 0,0 0.1,0 0.2,0 0.1,0 0.2,0 0.3,0 v 2.1 c -0.1,0 -0.2,0 -0.4,0 -0.2,0 -0.3,0 -0.4,0 -0.7,0 -1.3,0 -1.7,-0.1 -0.5,-0.1 -0.8,-0.2 -1.2,-0.4 -0.4,-0.2 -0.7,-0.5 -0.8,-0.9 -0.2,-0.4 -0.2,-1.1 -0.2,-2 v -2.6 c 0,-0.9 -0.2,-1.6 -0.5,-2 -0.3,-0.4 -0.9,-0.6 -1.8,-0.6 0,0 -0.1,0 -0.2,0 -0.1,0 -0.2,0 -0.2,0 v -2.1 c 0,0 0.1,0 0.2,0 0.1,0 0.2,0 0.2,0 0.8,0 1.4,-0.2 1.8,-0.6 0.4,-0.4 0.5,-1.1 0.5,-2 v -2.6 c 0,-1 0.1,-1.7 0.2,-2.1 0.2,-0.4 0.4,-0.7 0.8,-0.9 0.3,-0.2 0.7,-0.3 1.2,-0.4 0.5,-0.1 1,-0.1 1.7,-0.1 0.1,0 0.2,0 0.4,0 0.2,-0.1 0.3,-0.1 0.4,-0.1 m -5.4,26.3 h 5.2 v 2.2 h -2.4 v 15.2 h 2.4 v 2.2 h -5.2 V 88.1" /><path
       id="text5554"
       d="m 727,61.8 h 0.7 c 0.8,0 1.4,0 1.8,0.1 0.5,0.1 0.8,0.2 1.2,0.4 0.4,0.2 0.7,0.5 0.8,0.9 0.2,0.4 0.2,1.1 0.2,2 v 2.6 c 0,0.9 0.2,1.6 0.5,2 0.3,0.4 0.9,0.6 1.8,0.6 0,0 0.1,0 0.2,0 0.1,0 0.2,0 0.2,0 v 2.1 H 734 c -0.9,0 -1.5,0.2 -1.8,0.6 -0.3,0.4 -0.5,1 -0.5,2 v 2.6 c 0,1 -0.1,1.7 -0.2,2.1 -0.2,0.4 -0.4,0.7 -0.8,0.9 -0.3,0.2 -0.7,0.3 -1.2,0.4 -0.5,0.1 -1,0.1 -1.7,0.1 -0.1,0 -0.2,0 -0.4,0 -0.2,0 -0.3,0 -0.4,0 v -2.1 c 0.1,0 0.1,0 0.3,0 0.1,0 0.2,0 0.2,0 0.7,0 1.2,-0.1 1.4,-0.4 0.2,-0.3 0.4,-0.8 0.4,-1.6 v -2.5 c 0,-1 0.2,-1.8 0.5,-2.2 0.3,-0.4 0.9,-0.7 1.7,-0.9 -0.8,-0.2 -1.4,-0.5 -1.7,-0.9 -0.3,-0.4 -0.5,-1.1 -0.5,-2.2 V 66 c 0,-0.8 -0.1,-1.4 -0.4,-1.6 -0.2,-0.3 -0.7,-0.4 -1.4,-0.4 0,0 -0.1,0 -0.2,0 -0.1,0 -0.2,0 -0.3,0 v -2.2 m 5.5,26.3 v 19.6 h -5.2 v -2.2 h 2.4 V 90.3 h -2.4 v -2.2 h 5.2" /><path
       id="text5564"
       d="m 782.3,60.9 h 2.1 V 82 h -2.1 V 60.9 m 2.9,44.3 -5.1,-17.5 h 1.4 l 5.1,17.5 h -1.4" /><g
       id="g5770"
       transform="translate(0,3.75)">
		<text
   transform="translate(69.9265,127.4517)"
   class="st7 st8"
   id="text108"
   style="line-height:0%">Caps Lock</text>
		<path
   id="path5584"
   d="m 82.7,130.3 -9.9,13.2 h 6.6 v 6.6 H 86 v -6.6 h 6.6 z m -0.9,3.7 h 1.8 l 2.7,7.6 H 84.7 L 84.2,140 h -2.9 l -0.5,1.6 h -1.6 z m 0.9,1.5 -1.1,3.2 h 2.1 z" />
	</g><path
       id="text5641"
       d="m 164.9,119.6 -2.1,6.4 h 4.2 l -2.1,-6.4 m -1.8,-3 h 3.6 l 5.5,15.1 h -3.3 l -1,-3.1 H 162 l -1,3.1 h -3.3 l 5.4,-15.1" /><path
       id="text5645"
       d="m 211.4,127 h 3.1 c 0.1,0.8 0.5,1.4 1,1.9 0.6,0.4 1.4,0.6 2.4,0.6 0.9,0 1.6,-0.2 2,-0.5 0.5,-0.3 0.7,-0.8 0.7,-1.4 0,-0.9 -1.3,-1.7 -4,-2.3 h -0.1 c -0.1,0 -0.2,0 -0.3,-0.1 -1.4,-0.3 -2.4,-0.7 -3,-1 -0.5,-0.3 -0.9,-0.8 -1.2,-1.4 -0.3,-0.6 -0.4,-1.3 -0.4,-2.1 0,-1.5 0.5,-2.6 1.5,-3.4 1,-0.8 2.4,-1.2 4.3,-1.2 1.8,0 3.1,0.4 4.1,1.3 1,0.8 1.5,2 1.6,3.5 h -3 c -0.1,-0.7 -0.3,-1.3 -0.8,-1.7 -0.5,-0.4 -1.2,-0.6 -2.2,-0.6 -0.8,0 -1.4,0.2 -1.9,0.5 -0.4,0.3 -0.7,0.8 -0.7,1.4 0,0.8 0.9,1.4 2.6,1.8 0.5,0.1 0.8,0.2 1.1,0.3 1.1,0.3 1.9,0.5 2.3,0.7 0.5,0.2 0.9,0.3 1.2,0.5 0.6,0.3 1.1,0.8 1.4,1.4 0.3,0.6 0.5,1.2 0.5,2 0,1.6 -0.5,2.8 -1.6,3.7 -1.1,0.9 -2.6,1.3 -4.5,1.3 -1.9,0 -3.4,-0.4 -4.5,-1.3 -0.9,-1 -1.5,-2.2 -1.6,-3.9" /><path
       id="text5649"
       d="m 266.8,129 h 2.5 c 1.4,0 2.5,-0.4 3.1,-1.1 0.7,-0.8 1,-2 1,-3.7 0,-1.7 -0.3,-2.9 -0.9,-3.7 -0.6,-0.8 -1.5,-1.2 -2.8,-1.2 h -2.9 v 9.7 m -3,2.7 v -15.1 h 5.9 c 2.3,0 4.1,0.6 5.2,1.9 1.1,1.3 1.7,3.2 1.7,5.7 0,1.4 -0.2,2.6 -0.6,3.7 -0.4,1.1 -1,1.9 -1.8,2.5 -0.6,0.5 -1.3,0.8 -2.1,1 -0.8,0.2 -1.8,0.3 -3.2,0.3 h -5.1" /><path
       id="text5653"
       d="m 317.5,131.7 v -15.1 h 10.6 v 2.6 h -7.5 v 3.4 h 6.6 v 2.6 h -6.6 v 6.4 h -3.1" /><path
       id="text5657"
       d="m 380,129.9 c -0.6,0.8 -1.2,1.3 -1.9,1.7 -0.7,0.4 -1.6,0.5 -2.5,0.5 -2.1,0 -3.8,-0.7 -5.1,-2.2 -1.3,-1.5 -2,-3.4 -2,-5.8 0,-2.4 0.7,-4.3 2,-5.8 1.3,-1.4 3.1,-2.2 5.2,-2.2 1.9,0 3.4,0.5 4.6,1.4 1.2,0.9 1.9,2.2 2.1,3.7 h -3.2 c -0.2,-0.8 -0.6,-1.4 -1.2,-1.8 -0.6,-0.4 -1.4,-0.6 -2.3,-0.6 -1.3,0 -2.3,0.5 -3,1.4 -0.7,0.9 -1.1,2.2 -1.1,3.8 0,1.6 0.4,2.9 1.1,3.9 0.7,1 1.8,1.4 3.1,1.4 1,0 1.8,-0.3 2.5,-0.9 0.7,-0.6 1.1,-1.4 1.2,-2.4 h -3.4 v -2.6 h 6.3 v 8.2 h -2.1 l -0.3,-1.7" /><path
       id="text5661"
       d="m 421.8,131.7 v -15.1 h 3.1 v 5.6 h 6.2 v -5.6 h 3.1 v 15.1 h -3.1 V 125 H 425 v 6.7 h -3.2" /><path
       id="text5665"
       d="m 475.9,125.9 h 3 v 1.8 c 0,0.5 0.2,0.9 0.5,1.2 0.3,0.3 0.8,0.4 1.4,0.4 0.6,0 1.1,-0.2 1.3,-0.5 0.3,-0.3 0.4,-1 0.4,-1.9 v -10.6 h 3.1 V 127 c 0,1 -0.1,1.7 -0.2,2.1 -0.1,0.4 -0.3,0.8 -0.6,1.2 -0.4,0.5 -0.9,0.9 -1.6,1.2 -0.7,0.3 -1.5,0.4 -2.4,0.4 -0.9,0 -1.6,-0.1 -2.3,-0.3 -0.7,-0.2 -1.2,-0.6 -1.6,-1 -0.3,-0.4 -0.6,-0.8 -0.8,-1.2 -0.1,-0.5 -0.2,-1.2 -0.2,-2.3 v -1.2" /><path
       id="text5669"
       d="m 526.6,131.7 v -15.1 h 3.1 v 6.2 l 5.9,-6.2 h 3.9 l -6,6.1 6.6,9 h -3.8 l -4.9,-6.9 -1.6,1.6 v 5.3 h -3.2" /><path
       id="text5673"
       d="m 580.7,131.7 v -15.1 h 3.1 v 12.3 h 7.4 v 2.8 h -10.5" /><path
       id="text5679"
       d="m 185.2,184.3 v -2.6 l 8.2,-9.8 h -8.1 v -2.7 h 11.9 v 2.6 l -8.3,9.8 h 8.1 v 2.7 h -11.8" /><path
       id="text5683"
       d="m 237.2,184.3 4.8,-7.7 -4.8,-7.4 h 3.6 l 3.1,5.3 3.1,-5.3 h 3.6 l -4.8,7.4 4.8,7.8 H 247 l -3.1,-5.2 -3.1,5.2 h -3.6" /><path
       id="text5687"
       d="m 303.4,179.1 c -0.1,1.7 -0.8,3.1 -2,4.1 -1.2,1 -2.8,1.5 -4.7,1.5 -2.2,0 -4,-0.7 -5.2,-2.1 -1.2,-1.4 -1.9,-3.4 -1.9,-5.9 0,-2.6 0.6,-4.6 1.9,-5.9 1.3,-1.4 3.1,-2.1 5.5,-2.1 1.9,0 3.5,0.5 4.6,1.4 1.1,0.9 1.7,2.3 1.9,4 h -3.1 c -0.1,-0.9 -0.5,-1.5 -1,-2 -0.6,-0.5 -1.3,-0.7 -2.3,-0.7 -1.4,0 -2.4,0.4 -3.1,1.3 -0.7,0.9 -1.1,2.2 -1.1,3.9 0,1.6 0.4,2.9 1.1,3.8 0.7,0.9 1.7,1.3 3,1.3 0.9,0 1.7,-0.2 2.3,-0.7 0.6,-0.5 1,-1.2 1.2,-2.1 h 2.9" /><path
       id="text5691"
       d="m 347.7,184.3 -5.2,-15.1 h 3.5 l 3.2,11.3 3.3,-11.3 h 3.4 l -5.2,15.1 h -3" /><path
       id="text5695"
       d="m 398.5,181.6 h 3.7 c 0.9,0 1.5,-0.2 1.9,-0.5 0.4,-0.3 0.6,-0.8 0.6,-1.5 0,-0.7 -0.2,-1.2 -0.6,-1.5 -0.4,-0.3 -1,-0.5 -1.9,-0.5 h -3.7 v 4 m 0,-6.5 h 3.6 c 0.8,0 1.3,-0.1 1.7,-0.4 0.4,-0.3 0.5,-0.7 0.5,-1.3 0,-0.6 -0.2,-1 -0.5,-1.2 -0.3,-0.3 -0.9,-0.4 -1.7,-0.4 h -3.5 v 3.3 m -3,9.2 v -15.1 h 7.1 c 1.5,0 2.7,0.3 3.5,1 0.8,0.7 1.2,1.6 1.2,2.8 0,0.8 -0.2,1.4 -0.5,1.9 -0.3,0.5 -0.8,0.9 -1.4,1.2 0.8,0.3 1.4,0.8 1.7,1.4 0.4,0.6 0.6,1.3 0.6,2.2 0,1.5 -0.5,2.6 -1.4,3.4 -1,0.8 -2.3,1.2 -4.1,1.2 h -6.7" /><path
       id="text5699"
       d="m 448.2,184.3 v -15.1 h 3.3 l 6.1,10.4 v -10.4 h 3.1 v 15.1 h -3.2 l -6.2,-10.4 v 10.4 h -3.1" /><path
       id="text5703"
       d="m 499.4,184.3 v -15.1 h 4.6 l 3,11.5 3,-11.5 h 4.6 v 15.1 h -2.9 v -12.2 l -3.1,12.2 h -3.2 l -3.1,-12.2 v 12.2 h -2.9" /><path
       id="text5725"
       d="m 637,123.8 v -3.1 h 3.1 v 3.1 H 637 m 0,7.9 v -3.1 h 3.1 v 3.1 H 637 m 0.1,18.4 V 147 h 3.1 v 3.1 h -3.1 m 0,11.5 v -1.2 c 0.6,-0.2 1,-0.4 1.3,-0.8 0.3,-0.3 0.4,-0.8 0.4,-1.3 V 158 H 637 v -3.1 h 3.1 v 3 c 0,1 -0.3,1.9 -0.8,2.5 -0.4,0.6 -1.2,1 -2.2,1.2" /><path
       id="text5731"
       d="m 691.9,116.9 h 2 v 5.7 h -2 v -5.7 m -3.3,0 h 2 v 5.7 h -2 v -5.7 m 1.7,26.3 h 2 v 5.7 h -2 v -5.7" /><path
       id="text5737"
       d="M 737.3,129.1 V 119 h 7.3 v 1.8 h -5.3 v 2.2 h 4.8 v 1.7 h -4.8 v 2.6 h 5.5 v 1.9 l -7.5,-0.1 m 9,0 v -7.4 h 2 v 0.9 c 0.3,-0.4 0.6,-0.6 1,-0.8 0.4,-0.2 0.8,-0.3 1.3,-0.3 0.8,0 1.4,0.2 1.8,0.6 0.4,0.4 0.6,1.1 0.6,1.9 v 5.1 h -2 v -4.5 c 0,-0.5 -0.1,-0.9 -0.3,-1.1 -0.2,-0.2 -0.5,-0.3 -0.9,-0.3 -0.5,0 -0.8,0.1 -1.1,0.4 -0.3,0.3 -0.4,0.7 -0.4,1.1 v 4.4 h -2 m 11.7,0 c -0.2,0 -0.4,0 -0.7,0 -0.3,0 -0.4,0 -0.5,0 -0.8,0 -1.3,-0.1 -1.6,-0.4 -0.3,-0.3 -0.4,-0.9 -0.4,-1.7 v -4 h -1 v -1.4 h 1 v -2 h 2 v 2 h 1.2 v 1.4 h -1.2 v 4.1 c 0,0.2 0,0.3 0.1,0.4 0.1,0.1 0.3,0.1 0.5,0.1 h 0.5 v 1.5 m 5.8,-2.3 h 2 c -0.2,0.8 -0.6,1.4 -1.2,1.9 -0.6,0.4 -1.4,0.7 -2.2,0.7 -1.1,0 -1.9,-0.4 -2.6,-1.1 -0.6,-0.7 -0.9,-1.7 -0.9,-2.9 0,-1.2 0.3,-2.2 0.9,-2.9 0.6,-0.7 1.5,-1.1 2.5,-1.1 1.1,0 2,0.3 2.6,1 0.6,0.7 0.9,1.7 0.9,3 0,0.1 0,0.2 0,0.3 0,0.1 0,0.1 0,0.2 h -5 c 0,0.6 0.2,1 0.4,1.3 0.3,0.3 0.6,0.4 1.1,0.4 0.3,0 0.6,-0.1 0.8,-0.2 0.4,-0.1 0.6,-0.3 0.7,-0.6 m -2.9,-2.3 h 2.9 c 0,-0.5 -0.2,-0.9 -0.4,-1.1 -0.2,-0.3 -0.6,-0.4 -1.1,-0.4 -0.4,0 -0.8,0.1 -1,0.4 -0.2,0.3 -0.4,0.7 -0.4,1.1 m 6.3,4.6 v -7.4 h 1.9 v 1.3 c 0.3,-0.5 0.6,-0.9 0.9,-1.1 0.3,-0.2 0.8,-0.4 1.2,-0.4 0.1,0 0.1,0 0.2,0 h 0.1 v 2 h -0.7 c -0.5,0 -1,0.1 -1.2,0.4 -0.3,0.3 -0.4,0.7 -0.4,1.3 v 3.9 h -2" /><path
       id="path5745"
       d="m 750.4,157 v -13.2 l -13.2,6.6 z" /><path
       id="path5747"
       class="st6"
       d="m 770.2,137.3 v 13.2 h -26.3" /><g
       id="g5790">
		<text
   transform="translate(71.9821,182.2007)"
   class="st7 st8"
   id="text133"
   style="line-height:0%">Shift</text>
		<path
   id="path5757"
   class="st9"
   d="m 83.6,187.4 -9.9,13.2 h 6.6 v 6.6 h 6.6 v -6.6 h 6.6 z" />
	</g><g
       id="g5795"
       transform="translate(727.5)">
		<text
   transform="translate(-17.3782,182.2007)"
   class="st7 st8"
   id="text137"
   style="line-height:0%">Shift</text>
		<path
   id="path5801"
   class="st9"
   d="m -5.8,187.4 -9.9,13.2 h 6.6 v 6.6 h 6.6 v -6.6 h 6.6 z" />
	</g><path
       id="text5803"
       d="m 565.7,172.1 v 2.3 l -9.2,3.8 9.2,3.7 v 2.3 l -12.1,-5 v -2 l 12.1,-5.1 m -7.6,42.1 V 213 c 0.6,-0.2 1,-0.4 1.3,-0.8 0.3,-0.3 0.4,-0.8 0.4,-1.3 v -0.3 h -1.7 v -3.1 h 3.1 v 3 c 0,1 -0.3,1.8 -0.8,2.5 -0.5,0.6 -1.3,1 -2.3,1.2" /><path
       id="text5813"
       d="m 606.2,172.1 12.1,5 v 2 l -12.1,5 v -2.3 l 9.2,-3.7 -9.2,-3.8 v -2.2 m 4.5,38.6 v -3.1 h 3.1 v 3.1 h -3.1" /><path
       id="text5819"
       d="m 663.6,179.9 c 0,-0.1 0,-0.2 0,-0.3 0,-0.1 0,-0.2 0,-0.3 0,-0.6 0.1,-1.1 0.2,-1.5 0.1,-0.4 0.3,-0.8 0.6,-1.1 0.2,-0.3 0.5,-0.6 1,-0.9 0.4,-0.3 0.7,-0.6 0.9,-0.7 0.3,-0.3 0.5,-0.6 0.6,-0.8 0.1,-0.2 0.2,-0.5 0.2,-0.8 0,-0.7 -0.2,-1.2 -0.5,-1.5 -0.4,-0.4 -0.9,-0.5 -1.5,-0.5 -0.7,0 -1.2,0.2 -1.5,0.7 -0.4,0.4 -0.6,1 -0.6,1.8 h -2.9 v -0.3 c 0,-1.4 0.5,-2.6 1.4,-3.5 0.9,-0.9 2.2,-1.3 3.7,-1.3 1.6,0 2.8,0.4 3.8,1.2 0.9,0.8 1.4,1.9 1.4,3.3 0,0.5 -0.1,0.9 -0.2,1.3 -0.1,0.4 -0.3,0.7 -0.5,1 -0.3,0.4 -0.7,0.8 -1.3,1.3 -0.6,0.5 -0.9,0.7 -1.1,0.9 -0.3,0.3 -0.4,0.5 -0.6,0.8 -0.1,0.3 -0.2,0.6 -0.2,1 0,0 0,0.1 0,0.2 0,0.1 0,0.1 0,0.2 h -2.9 m -0.2,4.2 v -3 h 3 v 3 h -3 m -1.7,28.3 5.1,-17.5 h 1.4 l -5.1,17.5 h -1.4" /><path
       id="text5827"
       d="m 75.5,244.1 c -0.1,1.1 -0.5,2.1 -1.3,2.7 -0.8,0.7 -1.9,1 -3.2,1 -1.5,0 -2.7,-0.5 -3.5,-1.4 -0.8,-0.9 -1.2,-2.2 -1.2,-3.9 0,-1.7 0.4,-3 1.3,-3.9 0.8,-0.9 2.1,-1.4 3.6,-1.4 1.3,0 2.3,0.3 3,0.9 0.7,0.6 1.2,1.5 1.2,2.7 h -2 c -0.1,-0.6 -0.3,-1 -0.7,-1.3 -0.4,-0.3 -0.9,-0.5 -1.5,-0.5 -0.9,0 -1.6,0.3 -2.1,0.9 -0.5,0.6 -0.7,1.5 -0.7,2.6 0,1.1 0.2,1.9 0.7,2.5 0.5,0.6 1.1,0.9 2,0.9 0.6,0 1.1,-0.2 1.5,-0.5 0.4,-0.3 0.7,-0.8 0.8,-1.4 l 2.1,0.1 m 4.8,3.5 c -0.2,0 -0.4,0 -0.7,0 -0.3,0 -0.4,0 -0.5,0 -0.8,0 -1.3,-0.1 -1.6,-0.4 -0.3,-0.3 -0.4,-0.9 -0.4,-1.7 v -4 h -1 v -1.4 h 1 v -2 h 2 v 2 h 1.2 v 1.4 h -1.2 v 4.1 c 0,0.2 0,0.3 0.1,0.4 0.1,0.1 0.3,0.1 0.5,0.1 h 0.5 l 0.1,1.5 m 1.1,0 v -7.4 h 1.9 v 1.3 c 0.3,-0.5 0.6,-0.9 0.9,-1.1 0.3,-0.2 0.8,-0.4 1.2,-0.4 0.1,0 0.1,0 0.2,0 h 0.1 v 2 H 85 c -0.5,0 -1,0.1 -1.2,0.4 -0.3,0.3 -0.4,0.7 -0.4,1.3 v 3.9 h -2 m 5.5,0 v -10.1 h 2 v 10.1 h -2" /><path
       id="text5831"
       d="m 202.6,239.5 -1.4,4.3 h 2.8 l -1.4,-4.3 m -1.2,-2 h 2.4 l 3.6,10.1 h -2.2 l -0.7,-2.1 h -3.9 l -0.7,2.1 h -2.2 l 3.7,-10.1 m 7,10.1 v -10.1 h 2 v 10.1 h -2 m 7.1,0 c -0.2,0 -0.4,0 -0.7,0 -0.3,0 -0.4,0 -0.5,0 -0.8,0 -1.3,-0.1 -1.6,-0.4 -0.3,-0.3 -0.4,-0.9 -0.4,-1.7 v -4 h -1 v -1.4 h 1 v -2 h 2 v 2 h 1.2 v 1.4 h -1.2 v 4.1 c 0,0.2 0,0.3 0.1,0.4 0.1,0.1 0.3,0.1 0.5,0.1 h 0.5 l 0.1,1.5" /><path
       id="text5839"
       d="m 786,244.1 c -0.1,1.1 -0.5,2.1 -1.3,2.7 -0.8,0.7 -1.9,1 -3.2,1 -1.5,0 -2.7,-0.5 -3.5,-1.4 -0.8,-0.9 -1.2,-2.2 -1.2,-3.9 0,-1.7 0.4,-3 1.3,-3.9 0.8,-0.9 2.1,-1.4 3.6,-1.4 1.3,0 2.3,0.3 3,0.9 0.7,0.6 1.2,1.5 1.2,2.7 h -2 c -0.1,-0.6 -0.3,-1 -0.7,-1.3 -0.4,-0.3 -0.9,-0.5 -1.5,-0.5 -0.9,0 -1.6,0.3 -2.1,0.9 -0.5,0.6 -0.7,1.5 -0.7,2.6 0,1.1 0.2,1.9 0.7,2.5 0.5,0.6 1.1,0.9 2,0.9 0.6,0 1.1,-0.2 1.5,-0.5 0.4,-0.3 0.7,-0.8 0.8,-1.4 l 2.1,0.1 m 4.8,3.5 c -0.2,0 -0.4,0 -0.7,0 -0.3,0 -0.4,0 -0.5,0 -0.8,0 -1.3,-0.1 -1.6,-0.4 -0.3,-0.3 -0.4,-0.9 -0.4,-1.7 v -4 h -1 v -1.4 h 1 v -2 h 2 v 2 h 1.2 v 1.4 h -1.2 v 4.1 c 0,0.2 0,0.3 0.1,0.4 0.1,0.1 0.3,0.1 0.5,0.1 h 0.5 v 1.5 m 1.2,0 v -7.4 h 1.9 v 1.3 c 0.3,-0.5 0.6,-0.9 0.9,-1.1 0.3,-0.2 0.8,-0.4 1.2,-0.4 0.1,0 0.1,0 0.2,0 h 0.1 v 2 h -0.7 c -0.5,0 -1,0.1 -1.2,0.4 -0.3,0.3 -0.4,0.7 -0.4,1.3 v 3.9 h -2 m 5.5,0 v -10.1 h 2 v 10.1 h -2" /><path
       id="text5872"
       d="m 155.2,237.3 -2.9,-10.1 h 2.2 l 1.7,7.1 1.5,-7.1 h 2.2 l 1.5,7.1 1.7,-7.1 h 2.1 l -2.9,10.1 h -2 l -1.6,-7.7 -1.6,7.7 h -1.9 m 11,-8.3 v -1.8 h 2 v 1.8 h -2 m 0,8.3 v -7.4 h 2 v 7.4 h -2 m 3.8,0 v -7.4 h 2 v 0.9 c 0.3,-0.4 0.6,-0.6 1,-0.8 0.4,-0.2 0.8,-0.3 1.3,-0.3 0.8,0 1.4,0.2 1.8,0.6 0.4,0.4 0.6,1.1 0.6,1.9 v 5.1 h -2 v -4.5 c 0,-0.5 -0.1,-0.9 -0.3,-1.1 -0.2,-0.2 -0.5,-0.3 -0.9,-0.3 -0.5,0 -0.8,0.1 -1.1,0.4 -0.3,0.3 -0.4,0.7 -0.4,1.1 v 4.4 h -2 m -16.8,17.6 v -10.1 h 2.1 v 4.1 l 3.9,-4.1 h 2.6 l -4,4.1 4.4,6 h -2.5 l -3.3,-4.6 -1.1,1.1 v 3.5 h -2.1 m 14.3,-2.3 h 2 c -0.2,0.8 -0.6,1.4 -1.2,1.9 -0.6,0.4 -1.4,0.7 -2.2,0.7 -1.1,0 -1.9,-0.4 -2.6,-1.1 -0.6,-0.7 -0.9,-1.7 -0.9,-2.9 0,-1.2 0.3,-2.2 0.9,-2.9 0.6,-0.7 1.5,-1.1 2.5,-1.1 1.1,0 2,0.3 2.6,1 0.6,0.7 0.9,1.7 0.9,3 0,0.1 0,0.2 0,0.3 0,0.1 0,0.1 0,0.2 h -5 c 0,0.6 0.2,1 0.4,1.3 0.3,0.3 0.6,0.4 1.1,0.4 0.3,0 0.6,-0.1 0.8,-0.2 0.4,-0.1 0.6,-0.3 0.7,-0.6 m -2.9,-2.3 h 2.9 c 0,-0.5 -0.2,-0.9 -0.4,-1.1 -0.2,-0.3 -0.6,-0.4 -1.1,-0.4 -0.4,0 -0.8,0.1 -1,0.4 -0.2,0.3 -0.4,0.6 -0.4,1.1 m 6.6,7.5 v -1.6 c 0.1,0 0.1,0 0.2,0 0.1,0 0.2,0 0.3,0 0.4,0 0.7,-0.1 0.9,-0.3 0.2,-0.2 0.3,-0.5 0.3,-0.8 v -0.1 -0.1 l -2.7,-7.5 h 2.2 l 1.6,5.4 1.5,-5.4 h 2.1 l -3.1,8.8 c -0.2,0.7 -0.5,1.1 -0.9,1.3 -0.3,0.2 -0.9,0.4 -1.5,0.4 -0.1,0 -0.3,0 -0.4,0 -0.2,0 -0.3,0 -0.5,-0.1" /><path
       id="text5878"
       d="m 681.5,237.3 -2.9,-10.1 h 2.2 l 1.7,7.1 1.5,-7.1 h 2.2 l 1.5,7.1 1.7,-7.1 h 2.1 l -2.9,10.1 h -2 l -1.6,-7.7 -1.6,7.7 h -1.9 m 11,-8.3 v -1.8 h 2 v 1.8 h -2 m 0,8.3 v -7.4 h 2 v 7.4 h -2 m 3.8,0 v -7.4 h 2 v 0.9 c 0.3,-0.4 0.6,-0.6 1,-0.8 0.4,-0.2 0.8,-0.3 1.3,-0.3 0.8,0 1.4,0.2 1.8,0.6 0.4,0.4 0.6,1.1 0.6,1.9 v 5.1 h -2 v -4.5 c 0,-0.5 -0.1,-0.9 -0.3,-1.1 -0.2,-0.2 -0.5,-0.3 -0.9,-0.3 -0.5,0 -0.8,0.1 -1.1,0.4 -0.3,0.3 -0.4,0.7 -0.4,1.1 v 4.4 h -2 m -16.8,17.6 v -10.1 h 2.1 v 4.1 l 3.9,-4.1 h 2.6 l -4,4.1 4.4,6 H 686 l -3.3,-4.6 -1.1,1.1 v 3.5 h -2.1 m 14.3,-2.3 h 2 c -0.2,0.8 -0.6,1.4 -1.2,1.9 -0.6,0.4 -1.4,0.7 -2.2,0.7 -1.1,0 -1.9,-0.4 -2.6,-1.1 -0.6,-0.7 -0.9,-1.7 -0.9,-2.9 0,-1.2 0.3,-2.2 0.9,-2.9 0.6,-0.7 1.5,-1.1 2.5,-1.1 1.1,0 2,0.3 2.6,1 0.6,0.7 0.9,1.7 0.9,3 0,0.1 0,0.2 0,0.3 0,0.1 0,0.1 0,0.2 h -5 c 0,0.6 0.2,1 0.4,1.3 0.3,0.3 0.6,0.4 1.1,0.4 0.3,0 0.6,-0.1 0.8,-0.2 0.4,-0.1 0.6,-0.3 0.7,-0.6 m -2.9,-2.3 h 2.9 c 0,-0.5 -0.2,-0.9 -0.4,-1.1 -0.2,-0.3 -0.6,-0.4 -1.1,-0.4 -0.4,0 -0.8,0.1 -1,0.4 -0.2,0.3 -0.4,0.6 -0.4,1.1 m 6.6,7.5 v -1.6 c 0.1,0 0.1,0 0.2,0 0.1,0 0.2,0 0.3,0 0.4,0 0.7,-0.1 0.9,-0.3 0.2,-0.2 0.3,-0.5 0.3,-0.8 v -0.1 -0.1 l -2.7,-7.5 h 2.2 l 1.6,5.4 1.5,-5.4 h 2.1 l -3.1,8.8 c -0.2,0.7 -0.5,1.1 -0.9,1.3 -0.3,0.2 -0.9,0.4 -1.5,0.4 -0.1,0 -0.3,0 -0.4,0 -0.1,0 -0.3,0 -0.5,-0.1" /><path
       id="text5884"
       d="m 726.3,247.5 v -10.1 h 3.1 l 2,7.7 2,-7.7 h 3.1 v 10.1 h -1.9 v -8.1 l -2,8.1 h -2.1 l -2.1,-8.1 v 8.1 h -2.1 m 16.7,-2.3 h 2 c -0.2,0.8 -0.6,1.4 -1.2,1.9 -0.6,0.4 -1.4,0.7 -2.2,0.7 -1.1,0 -1.9,-0.4 -2.6,-1.1 -0.6,-0.7 -0.9,-1.7 -0.9,-2.9 0,-1.2 0.3,-2.2 0.9,-2.9 0.6,-0.7 1.5,-1.1 2.5,-1.1 1.1,0 2,0.3 2.6,1 0.6,0.7 0.9,1.7 0.9,3 0,0.1 0,0.2 0,0.3 0,0.1 0,0.1 0,0.2 h -5 c 0,0.6 0.2,1 0.4,1.3 0.3,0.3 0.6,0.4 1.1,0.4 0.3,0 0.6,-0.1 0.8,-0.2 0.4,-0.1 0.5,-0.3 0.7,-0.6 m -2.9,-2.2 h 2.9 c 0,-0.5 -0.2,-0.9 -0.4,-1.1 -0.2,-0.3 -0.6,-0.4 -1.1,-0.4 -0.4,0 -0.8,0.1 -1,0.4 -0.2,0.2 -0.4,0.6 -0.4,1.1 m 6.3,4.5 V 240 h 2 v 0.9 c 0.3,-0.4 0.6,-0.6 1,-0.8 0.4,-0.2 0.8,-0.3 1.3,-0.3 0.8,0 1.4,0.2 1.8,0.6 0.4,0.4 0.6,1.1 0.6,1.9 v 5.1 h -2 V 243 c 0,-0.5 -0.1,-0.9 -0.3,-1.1 -0.2,-0.2 -0.5,-0.3 -0.9,-0.3 -0.5,0 -0.8,0.1 -1.1,0.4 -0.3,0.3 -0.4,0.7 -0.4,1.1 v 4.4 h -2 m 15,-7.5 v 7.4 h -2 v -0.9 c -0.3,0.4 -0.6,0.6 -1,0.8 -0.4,0.2 -0.8,0.3 -1.3,0.3 -0.8,0 -1.4,-0.2 -1.8,-0.6 -0.4,-0.4 -0.6,-1.1 -0.6,-1.9 V 240 h 2 v 4.5 c 0,0.5 0.1,0.9 0.3,1.1 0.2,0.2 0.5,0.3 0.9,0.3 0.5,0 0.8,-0.1 1.1,-0.4 0.3,-0.3 0.4,-0.7 0.4,-1.2 V 240 h 2" /><path
       id="text5831-1"
       inkscape:connector-curvature="0"
       d="m 597.3,239.5 -1.4,4.3 h 2.8 l -1.4,-4.3 m -1.2,-2 h 2.4 l 3.6,10.1 H 600 l -0.7,-2.1 h -3.9 l -0.7,2.1 h -2.2 l 3.6,-10.1 m 7,10.1 v -10.1 h 2 v 10.1 h -2 m 7.1,0 c -0.2,0 -0.4,0 -0.7,0 -0.3,0 -0.4,0 -0.5,0 -0.8,0 -1.3,-0.1 -1.6,-0.4 -0.3,-0.3 -0.4,-0.9 -0.4,-1.7 v -4 h -1 v -1.4 h 1 v -2 h 2 v 2 h 1.2 v 1.4 H 609 v 4.1 c 0,0.2 0,0.3 0.1,0.4 0.1,0.1 0.3,0.1 0.5,0.1 h 0.5 v 1.5" /></g><g
     id="g156"
     inkscape:label="hands"
     transform="matrix(0.8,0,0,0.8,11.84,1.04)">
	<path
   class="st10"
   d="m 610.6,374.6 c -3.9,0.6 -7.1,3.5 -8.8,6.9 -2.8,4.9 -4.8,10.3 -7.2,15.4 -5.1,11.6 -10.1,23.3 -14.9,35 -3.7,9.5 -7.5,18.9 -11,28.4 -1.8,4.9 -3.1,9.9 -4.8,14.8 -0.8,2.4 -1.3,5.3 -3.8,6.7 -1.7,1.2 -4.1,1.2 -5.6,-0.3 -2,-1.6 -2.7,-4.4 -2.4,-6.9 0.4,-5.8 1.6,-11.4 2.6,-17.1 3.6,-20.1 7.4,-40.2 11.1,-60.2 0.5,-4.2 0.7,-8.4 0.9,-12.7 -0.2,-2.4 -0.9,-4.9 -2.5,-6.8 -2.1,-2.1 -5,-3.3 -8,-3.1 -2.3,0.2 -4.7,1.2 -6.4,2.8 -1.8,1.6 -2.6,4 -3.7,6.1 -4.6,11.7 -8.6,23.6 -12.4,35.5 -1.8,5.4 -3.3,11 -4.7,16.6 -3.8,15.8 -7.4,31.6 -11.3,47.3 -1.4,4.5 -2.6,9.1 -4.4,13.5 -1.5,4.2 -3.1,8.4 -5.3,12.3 -1.6,2.5 -2.9,5.1 -4.5,7.6 -1.8,2.4 -2.9,5.3 -5.1,7.3 -2,1.9 -5.6,1.7 -6.9,-1 -1.6,-2.9 -1.2,-6.3 -1.6,-9.5 -0.5,-7.1 -0.7,-14.3 -1.5,-21.4 -0.2,-2.9 -0.6,-5.8 -1.5,-8.5 -0.9,-3.4 -2.1,-6.8 -3.5,-10.1 -1.2,-3.4 -2.6,-6.7 -4.3,-9.8 -2,-3.5 -4.8,-6.6 -7.5,-9.5 -1.8,-1.8 -3.9,-3.7 -6.5,-4 -2.2,-0.3 -4.5,0.2 -6.4,1.4 -2.2,1.2 -3.7,3.3 -4.2,5.7 -0.7,2.9 0,6 0,8.9 1,17.8 2.6,35.5 3.4,53.3 0.4,7.4 -0.1,14.8 -0.2,22.2 0,3.8 0.1,7.7 1.4,11.4 1.9,5.9 4.2,11.6 6.6,17.2 4.3,9.5 8.4,19.1 13,28.4 2.5,5.2 4.9,10.5 7.4,15.7 1.2,3 1.2,6.2 0.9,9.4 -0.8,10.7 -1.8,21.3 -2.8,32 0.1,2.4 -0.9,4.8 -0.4,7.1 1.4,3.8 2.8,4.8 5,6.4 3.6,1.8 5,2.4 7.4,3.1 4.7,1.4 8.6,2.1 13.6,2.8 48.1,3.8 50,-1.1 52.7,-4.7 2.2,-2.9 2.6,-6.5 3,-8.6 0.7,-2.6 1,-5.3 1.1,-8 0.4,-2.7 1.5,-5.2 3.3,-7.2 4.1,-4.9 8.5,-9.5 12.6,-14.3 6,-6.8 12,-13.7 17.1,-21.2 2.8,-4.2 4.9,-8.8 7.5,-13.1 3.6,-7.2 7.3,-14.3 11.2,-21.3 5.8,-10.7 11.5,-21.5 17.3,-32.2 4.8,-6.6 9.6,-13.2 14.7,-19.5 8,-10 16.2,-19.9 24.3,-29.8 2.2,-2.9 3.9,-6.1 5.8,-9.3 1.1,-3.2 2.8,-6.5 2.1,-9.9 -1.6,-3.3 -4.9,-5.9 -8.7,-6 -3.1,-0.5 -5.6,1.9 -7.8,3.8 -3.7,3.1 -6.7,6.9 -10,10.4 -11.1,12.3 -22.2,24.6 -33.3,36.9 -2,1.6 -4.1,3.4 -6.7,3.6 -2.4,0.4 -4.6,-1.4 -5.3,-3.7 -1.3,-3.1 0.2,-6.3 1.2,-9.3 2.1,-6.1 4.4,-12.2 6.9,-18.2 2.6,-6.9 5.2,-13.8 7.6,-20.8 3.3,-9.7 6.4,-19.4 9.6,-29.1 2.6,-8 5.2,-16.1 7.6,-24.2 0.8,-3.1 2.1,-6.2 1.7,-9.5 -0.1,-2.5 -1.5,-4.6 -3.4,-6.2 -1.6,-1.3 -3.7,-1.8 -5.7,-2 -2.3,-0.1 -4.7,0.6 -6.5,2.2 -2,1.9 -3.1,4.6 -4.1,7.1 -8.9,20.9 -17.3,42.1 -25.9,63.1 -1.7,4.6 -3.6,9.1 -5.2,13.7 -0.7,2.2 -1.1,4.7 -3.2,6 -2.4,1.7 -5,-2 -3.8,-4.2 1,-3.3 2.5,-6.4 3.6,-9.7 5.1,-13.4 10.1,-26.9 14.9,-40.4 5.8,-15.9 11.6,-31.8 17.3,-47.6 0.6,-2.9 1.7,-5.9 0.8,-8.9 -0.8,-2.5 -2.5,-4.9 -4.8,-6.4 -2.2,-1.3 -4.9,-1.6 -7.4,-1.8 -0.3,0 -0.8,0 -1.3,0 z"
   id="path152" />
	<path
   class="st10"
   d="m 289.4,375.6 c 3.9,0.6 7.1,3.5 8.8,6.9 2.8,4.9 4.8,10.3 7.2,15.4 5.1,11.6 10.1,23.3 14.9,35 3.7,9.5 7.5,18.9 11,28.4 1.8,4.9 3.1,9.9 4.8,14.8 0.8,2.4 1.3,5.3 3.8,6.7 1.7,1.2 4.1,1.2 5.6,-0.3 2,-1.6 2.7,-4.4 2.4,-6.9 -0.4,-5.8 -1.6,-11.4 -2.6,-17.1 -3.6,-20.1 -7.4,-40.2 -11.1,-60.2 -0.5,-4.2 -0.7,-8.4 -0.9,-12.7 0.2,-2.4 0.9,-4.9 2.5,-6.8 2.1,-2.1 5,-3.3 8,-3.1 2.3,0.2 4.7,1.2 6.4,2.8 1.8,1.6 2.6,4 3.7,6.1 4.6,11.7 8.6,23.6 12.4,35.5 1.8,5.4 3.3,11 4.7,16.6 3.8,15.8 7.4,31.6 11.3,47.3 1.4,4.5 2.6,9.1 4.4,13.5 1.5,4.2 3.1,8.4 5.3,12.3 1.6,2.5 2.9,5.1 4.5,7.6 1.7,2.4 2.9,5.3 5.1,7.3 2,1.9 5.6,1.7 6.9,-1 1.6,-2.9 1.2,-6.3 1.6,-9.5 0.5,-7.1 0.7,-14.3 1.5,-21.4 0.2,-2.9 0.6,-5.8 1.5,-8.5 0.9,-3.4 2.1,-6.8 3.5,-10.1 1.2,-3.4 2.6,-6.7 4.3,-9.8 2,-3.5 4.8,-6.6 7.5,-9.5 1.8,-1.8 3.9,-3.7 6.5,-4 2.2,-0.3 4.5,0.2 6.4,1.4 2.2,1.2 3.7,3.3 4.2,5.7 0.7,2.9 0,6 0,8.9 -1,17.8 -2.6,35.5 -3.4,53.3 -0.4,7.4 0.1,14.8 0.2,22.2 0,3.8 -0.1,7.7 -1.4,11.4 -1.9,5.9 -4.2,11.6 -6.6,17.2 -4.3,9.5 -8.4,19.1 -13,28.4 -2.5,5.2 -4.9,10.5 -7.4,15.7 -1.2,3 -1.2,6.2 -0.9,9.4 0.8,10.7 1.8,21.3 2.8,32 -0.1,2.4 0.9,4.8 0.4,7.1 -1.4,3.8 -2.8,4.8 -5,6.4 -3.6,1.8 -5,2.4 -7.4,3.1 -4.7,1.4 -8.6,2.1 -13.6,2.8 -48.1,3.8 -50,-1.1 -52.7,-4.7 -2.2,-2.9 -2.6,-6.5 -3,-8.6 -0.7,-2.6 -1,-5.3 -1.1,-8 -0.4,-2.7 -1.5,-5.2 -3.3,-7.2 -4.1,-4.9 -8.5,-9.5 -12.6,-14.3 -6,-6.8 -12,-13.7 -17.1,-21.2 -2.8,-4.2 -4.9,-8.8 -7.5,-13.1 -3.6,-7.2 -7.3,-14.3 -11.2,-21.3 l -17.3,-32.2 c -4.8,-6.6 -9.6,-13.2 -14.7,-19.5 -8,-10 -16.2,-19.9 -24.3,-29.8 -2.2,-2.9 -3.9,-6.1 -5.8,-9.3 -1.1,-3.2 -2.8,-6.5 -2.1,-9.9 1.6,-3.3 4.9,-5.9 8.7,-6 3.1,-0.5 5.6,1.9 7.8,3.8 3.7,3.1 6.7,6.9 10,10.4 11.1,12.3 22.2,24.6 33.3,36.9 2,1.6 4.1,3.4 6.7,3.6 2.4,0.4 4.6,-1.4 5.3,-3.7 1.3,-3.1 -0.2,-6.3 -1.2,-9.3 -2.1,-6.1 -4.4,-12.2 -6.9,-18.2 -2.6,-6.9 -5.2,-13.8 -7.6,-20.8 -3.3,-9.7 -6.4,-19.4 -9.6,-29.1 -2.6,-8 -5.2,-16.1 -7.6,-24.2 -0.8,-3.1 -2.1,-6.2 -1.7,-9.5 0.1,-2.5 1.5,-4.6 3.4,-6.2 1.6,-1.3 3.7,-1.8 5.7,-2 2.3,-0.1 4.7,0.6 6.5,2.2 2,1.9 3.1,4.6 4.1,7.1 8.9,20.9 17.3,42.1 25.9,63.1 1.7,4.6 3.6,9.1 5.2,13.7 0.7,2.2 1.1,4.7 3.2,6 2.4,1.7 5,-2 3.8,-4.2 -1,-3.3 -2.5,-6.4 -3.6,-9.7 -5,-13.4 -10.1,-26.9 -14.9,-40.4 -5.8,-15.9 -11.6,-31.8 -17.3,-47.6 -0.6,-2.9 -1.7,-5.9 -0.8,-8.9 0.8,-2.5 2.5,-4.9 4.8,-6.4 2.2,-1.3 4.9,-1.6 7.4,-1.8 0.3,-0.1 0.8,0 1.3,0 z"
   id="path154" />
</g><g
     id="g168"
     inkscape:label="B"
     transform="matrix(0.8,0,0,0.8,11.84,1.04)">
	<path
   id="rect2336_1_"
   class="st4"
   d="m 529.5,311.7 h 48.2 v 48.2 h -48.2 z" />
	<path
   id="text5695_1_"
   d="m 538.6,328.1 h 3.4 c 0.8,0 1.4,-0.1 1.7,-0.4 0.4,-0.3 0.5,-0.7 0.5,-1.4 0,-0.6 -0.2,-1.1 -0.5,-1.4 -0.4,-0.3 -0.9,-0.4 -1.8,-0.4 h -3.4 l 0.1,3.6 m 0,-6 h 3.3 c 0.7,0 1.2,-0.1 1.5,-0.4 0.3,-0.2 0.5,-0.6 0.5,-1.1 0,-0.5 -0.2,-0.9 -0.5,-1.1 -0.3,-0.2 -0.8,-0.3 -1.6,-0.3 h -3.2 v 2.9 m -2.7,8.5 v -13.9 h 6.5 c 1.4,0 2.5,0.3 3.2,0.9 0.7,0.6 1.1,1.5 1.1,2.6 0,0.7 -0.1,1.3 -0.4,1.8 -0.3,0.5 -0.7,0.8 -1.2,1.1 0.7,0.3 1.2,0.7 1.6,1.3 0.4,0.5 0.5,1.2 0.5,2 0,1.3 -0.4,2.4 -1.3,3.1 -0.9,0.7 -2.1,1.1 -3.7,1.1 h -6.3" />
</g><g
     id="g164"
     inkscape:label="Y"
     transform="matrix(0.8,0,0,0.8,11.84,1.04)">
	<path
   id="rect2264_1_"
   class="st3"
   d="m 588.2,311.7 h 48.2 v 48.2 h -48.2 z" />
	<path
   id="text5518_1_"
   d="m 601.8,330.6 h -2.9 v -5.2 l -5,-8.7 h 3.5 l 3,6 2.7,-6 h 3.3 l -4.6,8.7 v 5.2" />
</g><g
     id="g160"
     inkscape:label="R"
     transform="matrix(0.8,0,0,0.8,11.84,1.04)">
	<path
   id="rect2258_1_"
   class="st2"
   d="m 258.1,311.7 h 48.2 v 48.2 h -48.2 z" />
	<path
   id="text5500_1_"
   d="m 267.3,322.8 h 3.3 c 0.7,0 1.3,-0.1 1.6,-0.4 0.3,-0.3 0.5,-0.8 0.5,-1.4 0,-0.6 -0.2,-1.1 -0.5,-1.4 -0.3,-0.3 -0.8,-0.5 -1.5,-0.5 h -3.5 v 3.7 m -2.8,7.8 v -13.9 h 6.7 c 1.5,0 2.6,0.3 3.4,1 0.7,0.6 1.1,1.6 1.1,3 0,0.8 -0.2,1.6 -0.5,2.1 -0.4,0.6 -0.9,1 -1.5,1.2 0.6,0.2 1,0.5 1.3,1 0.3,0.4 0.4,1.1 0.4,2.1 l 0.1,1.6 c 0,0 0,0 0,0.1 0,0.8 0.2,1.3 0.5,1.5 v 0.4 h -3.1 c -0.1,-0.2 -0.2,-0.4 -0.2,-0.7 -0.1,-0.3 -0.1,-0.6 -0.1,-1 v -1.5 c 0,-0.9 -0.2,-1.4 -0.5,-1.7 -0.3,-0.3 -0.8,-0.5 -1.6,-0.5 h -3 v 5.4 h -3" />
</g></g></g>




</svg>
