<?xml version="1.0" encoding="utf-8"?>
<!-- Generator: Adobe Illustrator 21.0.0, SVG Export Plug-In . SVG Version: 6.00 Build 0)  -->
<svg version="1.1"
	 id="svg2" inkscape:version="0.48.0 r9654" sodipodi:docname="KB_United_States.svg" sodipodi:version="0.32" xmlns:cc="http://creativecommons.org/ns#" xmlns:dc="http://purl.org/dc/elements/1.1/" xmlns:inkscape="http://www.inkscape.org/namespaces/inkscape" xmlns:rdf="http://www.w3.org/1999/02/22-rdf-syntax-ns#" xmlns:sodipodi="http://sodipodi.sourceforge.net/DTD/sodipodi-0.dtd" xmlns:svg="http://www.w3.org/2000/svg"
	 xmlns="http://www.w3.org/2000/svg" xmlns:xlink="http://www.w3.org/1999/xlink" x="0px" y="0px" viewBox="0 0 900 700.6"
	 style="enable-background:new 0 0 900 700.6;" xml:space="preserve">
<style type="text/css">
	.st0{fill:#FFFFFF;stroke:#000000;}
	.st1{fill:#DFDFDF;stroke:#000000;}
	.st2{fill:#F64747;stroke:#000000;}
	.st3{fill:#F1F227;stroke:#000000;}
	.st4{fill:#00BFFF;stroke:#000000;}
	.st5{fill:#EFEFEF;stroke:#000000;}
	.st6{fill:none;stroke:#000000;stroke-width:3;}
	.st7{font-family:'Arial-BoldMT';}
	.st8{font-size:14.0347px;}
	.st9{fill:none;stroke:#000000;stroke-width:2;}
	.st10{fill:#FFFFFF;stroke:#000000;stroke-miterlimit:10;}
</style>
<rect width="906.6" height="700.6"/>
<sodipodi:namedview  bordercolor="#666666" borderopacity="1.0" gridtolerance="15px" id="base" inkscape:current-layer="layer1" inkscape:cx="478.56812" inkscape:cy="24.935499" inkscape:document-units="px" inkscape:grid-points="true" inkscape:guide-bbox="true" inkscape:pageopacity="0.0" inkscape:pageshadow="2" inkscape:window-height="968" inkscape:window-maximized="1" inkscape:window-width="1280" inkscape:window-x="-4" inkscape:window-y="-4" inkscape:zoom="0.73806881" pagecolor="#ffffff" showborder="false" showgrid="true" showguides="true">
	
		<inkscape:grid  color="#0000ff" empcolor="#0000ff" empopacity="0.25098039" empspacing="4" id="GridFromPre046Settings" opacity="0.12156863" originx="0px" originy="0px" spacingx="7.5px" spacingy="7.5px" type="xygrid">
		</inkscape:grid>
</sodipodi:namedview>
<g id="layer1" inkscape:groupmode="layer" inkscape:label="Layer 1">
	<path id="rect2186" class="st0" d="M59.7,5.7h52.6v52.6H59.7V5.7z"/>
	<path id="rect2218" class="st0" d="M112.3,5.7h52.6v52.6h-52.6C112.3,58.3,112.3,5.7,112.3,5.7z"/>
	<path id="rect2222" class="st0" d="M164.9,5.7h52.6v52.6h-52.6V5.7z"/>
	<path id="rect2228" class="st0" d="M217.6,5.7h52.6v52.6h-52.6V5.7z"/>
	<path id="rect2230" class="st0" d="M270.2,5.7h52.6v52.6h-52.6V5.7z"/>
	<path id="rect2232" class="st0" d="M322.8,5.7h52.6v52.6h-52.6V5.7z"/>
	<path id="rect2234" class="st0" d="M375.4,5.7H428v52.6h-52.6V5.7z"/>
	<path id="rect2236" class="st0" d="M428.1,5.7h52.6v52.6h-52.6V5.7z"/>
	<path id="rect2238" class="st0" d="M480.7,5.7h52.6v52.6h-52.6L480.7,5.7L480.7,5.7z"/>
	<path id="rect2240" class="st0" d="M533.3,5.7H586v52.6h-52.6V5.7H533.3z"/>
	<path id="rect2242" class="st0" d="M586,5.7h52.6v52.6H586V5.7z"/>
	<path id="rect2244" class="st0" d="M638.6,5.7h52.6v52.6h-52.6V5.7z"/>
	<path id="rect2246" class="st0" d="M691.2,5.7h52.6v52.6h-52.6V5.7z"/>
	<path id="rect2248" class="st1" d="M743.9,5.7h105.3v52.6H743.9V5.7z"/>
	<path id="rect2250" class="st1" d="M59.7,58.3h78.9V111H59.7V58.3z"/>
	<path id="rect2252" class="st0" d="M138.6,58.3h52.6V111h-52.6V58.3z"/>
	<path id="rect2254" class="st0" d="M191.2,58.3h52.6V111h-52.6L191.2,58.3L191.2,58.3z"/>
	<path id="rect2256" class="st0" d="M243.9,58.3h52.6V111h-52.6V58.3z"/>
	<path id="rect2258" class="st2" d="M296.5,58.3h52.6V111h-52.6V58.3z"/>
	<path id="rect2262" class="st0" d="M349.1,58.3h52.6V111h-52.6V58.3z"/>
	<path id="rect2264" class="st3" d="M401.8,58.3h52.6V111h-52.6V58.3z"/>
	<path id="rect2266" class="st0" d="M454.4,58.3H507V111h-52.6V58.3z"/>
	<path id="rect2270" class="st0" d="M507,58.3h52.6V111H507V58.3z"/>
	<path id="rect2272" class="st0" d="M559.7,58.3h52.6V111h-52.6V58.3z"/>
	<path id="rect2274" class="st0" d="M612.3,58.3h52.6V111h-52.6V58.3z"/>
	<path id="rect2278" class="st0" d="M664.9,58.3h52.6V111h-52.6V58.3z"/>
	<path id="rect2280" class="st0" d="M717.5,58.3h52.6V111h-52.6V58.3z"/>
	<path id="rect2284" class="st0" d="M770.2,58.3h78.9V111h-78.9V58.3z"/>
	<path id="rect2286" class="st1" d="M59.7,111h92.1v52.6H59.7V111z"/>
	<path id="rect2292" class="st0" d="M151.8,111h52.6v52.6h-52.6L151.8,111L151.8,111z"/>
	<path id="rect2296" class="st0" d="M204.4,111H257v52.6h-52.6V111z"/>
	<path id="rect2298" class="st0" d="M257,111h52.6v52.6H257V111z"/>
	<path id="rect2300" class="st0" d="M309.7,111h52.6v52.6h-52.6V111z"/>
	<path id="rect2302" class="st0" d="M362.3,111h52.6v52.6h-52.6V111z"/>
	<path id="rect2306" class="st0" d="M414.9,111h52.6v52.6h-52.6V111z"/>
	<path id="rect2308" class="st0" d="M467.6,111h52.6v52.6h-52.6V111z"/>
	<path id="rect2312" class="st0" d="M520.2,111h52.6v52.6h-52.6V111z"/>
	<path id="rect2314" class="st0" d="M572.8,111h52.6v52.6h-52.6V111z"/>
	<path id="rect2316" class="st0" d="M625.4,111H678v52.6h-52.6V111z"/>
	<path id="rect2318" class="st0" d="M678.1,111h52.6v52.6h-52.6V111z"/>
	<path id="rect2320" class="st1" d="M730.7,111h118.4v52.6H730.7V111z"/>
	<path id="rect2322" class="st1" d="M59.7,163.6h118.4v52.6H59.7V163.6z"/>
	<path id="rect2324" class="st0" d="M178.1,163.6h52.6v52.6h-52.6V163.6z"/>
	<path id="rect2326" class="st0" d="M230.7,163.6h52.6v52.6h-52.6L230.7,163.6L230.7,163.6z"/>
	<path id="rect2330" class="st0" d="M283.3,163.6H336v52.6h-52.6v-52.6H283.3z"/>
	<path id="rect2334" class="st0" d="M336,163.6h52.6v52.6H336V163.6z"/>
	<path id="rect2336" class="st4" d="M388.6,163.6h52.6v52.6h-52.6V163.6z"/>
	<path id="rect2338" class="st0" d="M441.2,163.6h52.6v52.6h-52.6V163.6z"/>
	<path id="rect2340" class="st0" d="M493.9,163.6h52.6v52.6h-52.6V163.6z"/>
	<path id="rect2342" class="st0" d="M546.5,163.6h52.6v52.6h-52.6V163.6z"/>
	<path id="rect2344" class="st0" d="M599.1,163.6h52.6v52.6h-52.6V163.6z"/>
	<path id="rect2346" class="st0" d="M651.8,163.6h52.6v52.6h-52.6V163.6z"/>
	<path id="rect2348" class="st1" d="M704.4,163.6h144.7v52.6H704.4V163.6z"/>
	<path id="rect2350" class="st1" d="M59.7,216.2h78.9v52.6H59.7V216.2z"/>
	<path id="rect2352" class="st1" d="M770.2,216.2h78.9v52.6h-78.9V216.2z"/>
	<path id="rect2354" class="st1" d="M191.2,216.2h78.9v52.6h-78.9L191.2,216.2L191.2,216.2z"/>
	<path id="rect2360" class="st1" d="M586,216.2h78.9v52.6H586V216.2z"/>
	<path id="rect2362" class="st0" d="M270.2,216.2H586v52.6H270.2V216.2z"/>
	<path id="rect2364" class="st5" d="M138.6,216.2h52.6v52.6h-52.6V216.2z"/>
	<path id="rect2366" class="st5" d="M664.9,216.2h52.6v52.6h-52.6V216.2z"/>
	<path id="rect2368" class="st5" d="M717.5,216.2h52.6v52.6h-52.6V216.2z"/>
	<path id="flowRoot4146" class="st5" d="M59.7,5.7"/>
	<path id="text5091" d="M125.8,22.2l-0.8-6.8v-4.1h3.2v4.1l-0.8,6.8H125.8 M125,26.4v-3h3.1v3H125 M125.8,52.8V42.7h-3.5v-2.1h0.2
		c1.3,0,2.2-0.2,2.8-0.6c0.6-0.4,0.9-1.1,1-2h2.4v14.7L125.8,52.8"/>
	<path id="text5103" d="M80.1,18.2v2.3c-0.7,0.5-1.4,0.8-2,1.1c-0.6,0.2-1.3,0.3-1.9,0.3c-0.3,0-0.6,0-0.9-0.1s-0.6-0.1-0.9-0.2
		c-0.2-0.1-0.4-0.1-0.7-0.3c-1.5-0.5-2.6-0.8-3.4-0.8c-0.6,0-1.2,0.1-1.8,0.4c-0.6,0.3-1.3,0.7-2.1,1.2v-2.3
		c0.7-0.5,1.4-0.9,2.1-1.1s1.3-0.4,1.9-0.4c0.8,0,1.8,0.2,3,0.6l0,0c0.1,0,0.3,0.1,0.6,0.2c1.1,0.4,1.9,0.6,2.5,0.6s1.2-0.1,1.8-0.4
		C78.7,19.1,79.4,18.7,80.1,18.2 M70.2,36.4h2.7l2,3.8h-1.5L70.2,36.4"/>
	<path id="text5127" d="M179.4,23.7c-0.4,0.6-0.8,1-1.3,1.3s-1.1,0.4-1.7,0.4c-1.1,0-1.9-0.3-2.5-0.9s-0.8-1.5-0.8-2.6
		c0-1.6,0.5-3,1.4-4.1c1-1.1,2.1-1.7,3.5-1.7c0.5,0,1,0.1,1.4,0.3c0.4,0.2,0.7,0.6,1,1l0.5-1h1.8l-1.5,6.1c0,0.1,0,0.2-0.1,0.2
		c0,0.1,0,0.1,0,0.2c0,0.2,0.1,0.4,0.2,0.5c0.2,0.1,0.4,0.2,0.7,0.2s0.5-0.1,0.8-0.2s0.6-0.3,0.8-0.6c0.6-0.5,1-1.2,1.3-1.9
		c0.3-0.7,0.5-1.5,0.5-2.4c0-1.6-0.6-3-1.9-4.1c-1.3-1.1-2.9-1.6-4.9-1.6c-1,0-1.9,0.1-2.7,0.3s-1.6,0.6-2.3,1
		c-1.2,0.8-2.1,1.8-2.7,2.9c-0.6,1.2-0.9,2.5-0.9,3.9c0,2.1,0.7,3.8,2.1,5c1.4,1.3,3.3,1.9,5.7,1.9c1.1,0,2.2-0.2,3.2-0.5
		c1.1-0.3,2-0.8,3-1.5l0.8,1.2c-1,0.8-2.2,1.4-3.3,1.8c-1.2,0.4-2.4,0.6-3.7,0.6s-2.5-0.2-3.6-0.5s-2.1-0.8-2.9-1.5
		c-1.1-0.8-1.9-1.8-2.4-2.9s-0.8-2.3-0.8-3.7c0-1.1,0.2-2.2,0.5-3.3c0.4-1,0.9-2,1.6-2.8c1-1.2,2.2-2.2,3.7-2.8c1.4-0.6,3-1,4.8-1
		c1.2,0,2.2,0.2,3.3,0.5c1,0.3,1.9,0.7,2.7,1.3c0.9,0.7,1.6,1.5,2.1,2.5c0.5,0.9,0.7,2,0.7,3.1c0,1.1-0.2,2.2-0.7,3.1
		c-0.4,1-1.1,1.8-1.9,2.4c-0.5,0.4-1,0.7-1.6,0.9c-0.6,0.2-1.1,0.3-1.8,0.3s-1.3-0.1-1.6-0.4C179.6,24.6,179.4,24.2,179.4,23.7
		 M179.9,19.3c-0.1-0.6-0.3-1-0.6-1.3s-0.7-0.4-1.2-0.4c-0.8,0-1.5,0.4-2,1.3c-0.6,0.8-0.9,1.9-0.9,3.1c0,0.6,0.1,1.1,0.4,1.4
		c0.3,0.3,0.7,0.5,1.2,0.5c0.6,0,1.1-0.2,1.6-0.6s0.8-1,1-1.7L179.9,19.3 M172.4,52.8c0-1.3,0.3-2.4,0.8-3.3
		c0.5-0.9,1.5-1.8,2.9-2.8c0.2-0.1,0.5-0.3,0.9-0.6c1.9-1.2,2.8-2.3,2.8-3.4c0-0.7-0.2-1.2-0.6-1.5c-0.4-0.4-0.9-0.6-1.6-0.6
		c-0.7,0-1.3,0.2-1.7,0.7s-0.6,1.1-0.6,2v0.1h-2.7c0-1.7,0.5-3,1.4-3.9s2.2-1.4,3.9-1.4c1.5,0,2.7,0.4,3.6,1.2
		c0.9,0.8,1.4,1.9,1.4,3.3c0,1-0.2,1.8-0.7,2.5s-1.4,1.5-2.7,2.5c-0.3,0.2-0.7,0.5-1.2,0.8c-1.3,0.8-2,1.5-2.2,1.9h6.7v2.5H172.4"/>
	<path id="text5139" d="M231,17.7l-0.9,2.5h2.6l0.9-2.5H231 M231,11.4h2.3l-1.5,4.3h2.5l1.5-4.3h2.3l-1.5,4.3h2.9l-0.8,2.1h-2.9
		l-0.9,2.5h3l-0.7,2.1h-3l-1.5,4.3h-2.3l1.5-4.3h-2.5l-1.5,4.3h-2.3l1.5-4.3h-3l0.8-2.1h2.9l0.9-2.5h-3.1l0.8-2.1h3.1L231,11.4
		 M226.4,48.3h2.8c0,0.8,0.2,1.4,0.6,1.9c0.4,0.4,1,0.6,1.7,0.6s1.3-0.2,1.7-0.6c0.4-0.4,0.6-0.9,0.6-1.7c0-0.7-0.2-1.3-0.7-1.6
		c-0.5-0.4-1.2-0.6-2.1-0.6c0,0-0.1,0-0.2,0c-0.1,0-0.2,0-0.2,0v-2h0.3c0.8,0,1.5-0.2,1.9-0.5s0.6-0.8,0.6-1.5c0-0.6-0.2-1-0.5-1.3
		s-0.8-0.5-1.4-0.5c-0.7,0-1.2,0.2-1.5,0.6c-0.4,0.4-0.5,0.9-0.5,1.6v0.1h-2.8c0-1.5,0.5-2.7,1.3-3.5c0.9-0.8,2.1-1.2,3.6-1.2
		s2.6,0.4,3.5,1.1c0.9,0.7,1.3,1.7,1.3,2.9c0,0.6-0.1,1.2-0.4,1.7c-0.3,0.5-0.7,0.9-1.3,1.2c0.8,0.3,1.3,0.8,1.7,1.4
		c0.4,0.6,0.6,1.3,0.6,2.1c0,1.5-0.5,2.6-1.4,3.5c-1,0.9-2.3,1.3-4,1.3s-2.9-0.4-3.8-1.3C226.8,51.1,226.4,49.9,226.4,48.3
		L226.4,48.3"/>
	<path id="text5145" d="M282.9,24.5c0.6-0.1,1-0.3,1.3-0.6c0.3-0.3,0.4-0.8,0.4-1.3s-0.1-0.9-0.4-1.2c-0.3-0.3-0.7-0.6-1.3-0.8V24.5
		 M281.6,17.5V14c-0.5,0.1-0.9,0.3-1.2,0.6c-0.3,0.3-0.4,0.7-0.4,1.2c0,0.4,0.1,0.8,0.4,1C280.7,17.1,281.1,17.3,281.6,17.5
		 M281.6,28.8v-2c-1.5-0.1-2.7-0.5-3.5-1.3s-1.2-2-1.2-3.5h2.8c0,0.7,0.2,1.3,0.5,1.8c0.3,0.4,0.8,0.7,1.4,0.8v-4.3
		c-1.6-0.4-2.7-0.9-3.4-1.6c-0.7-0.7-1-1.5-1-2.7c0-1.3,0.4-2.3,1.2-3c0.8-0.8,1.9-1.2,3.2-1.2v-1.3h1.2v1.3
		c1.3,0.1,2.4,0.5,3.1,1.2s1.2,1.8,1.2,3.1h-2.8c0-0.6-0.2-1.1-0.5-1.5c-0.3-0.3-0.6-0.5-1.1-0.6v3.7c1.7,0.5,2.9,1.1,3.6,1.8
		c0.7,0.7,1,1.6,1,2.7c0,1.3-0.4,2.4-1.2,3.1c-0.8,0.8-1.9,1.2-3.4,1.4v2h-1.1 M283,47.3V41l-4,6.3H283 M283,52.8v-3.2h-6.2V47
		l5.4-8.5h3.6v8.8h1.7v2.3h-1.7v3.2H283"/>
	<path id="text5151" d="M340.7,23c0,0.5,0.2,0.8,0.5,1.2c0.3,0.3,0.7,0.5,1.1,0.5s0.8-0.2,1.1-0.5c0.3-0.3,0.5-0.7,0.5-1.2
		c0-0.4-0.2-0.8-0.5-1.1c-0.3-0.3-0.7-0.5-1.1-0.5c-0.5,0-0.8,0.2-1.1,0.5C340.9,22.2,340.7,22.6,340.7,23 M338.5,23
		c0-1.1,0.4-2,1.1-2.7s1.6-1.1,2.7-1.1s2,0.4,2.7,1.1s1.1,1.6,1.1,2.7s-0.4,2-1.1,2.7s-1.6,1.1-2.7,1.1s-2-0.4-2.7-1.1
		S338.5,24.1,338.5,23 M332.5,26.9l8.8-15.1h1.7l-8.8,15.1H332.5 M331.6,15.6c0,0.5,0.2,0.8,0.5,1.1c0.3,0.3,0.7,0.5,1.1,0.5
		s0.8-0.2,1.1-0.5c0.3-0.3,0.5-0.7,0.5-1.1s-0.2-0.8-0.5-1.1s-0.7-0.5-1.1-0.5c-0.5,0-0.8,0.2-1.1,0.5
		C331.8,14.7,331.6,15.1,331.6,15.6 M329.4,15.6c0-1.1,0.4-2,1.1-2.7s1.6-1.1,2.7-1.1s2,0.4,2.7,1.1c0.7,0.7,1.1,1.6,1.1,2.7
		s-0.4,2-1.1,2.7s-1.6,1.1-2.7,1.1s-2-0.4-2.7-1.1C329.8,17.5,329.4,16.6,329.4,15.6 M332.3,48.8h2.9c0,0.6,0.3,1.1,0.6,1.5
		c0.4,0.3,0.9,0.5,1.5,0.5c0.8,0,1.4-0.2,1.8-0.7s0.6-1.1,0.6-2c0-0.8-0.2-1.5-0.6-1.9c-0.4-0.5-1-0.7-1.8-0.7
		c-0.4,0-0.8,0.1-1.1,0.3c-0.3,0.2-0.6,0.4-0.8,0.8l-2.7-0.2l1-7.9h8.5V41h-6.4l-0.4,3c0.3-0.3,0.7-0.4,1.1-0.6
		c0.4-0.1,0.9-0.2,1.4-0.2c1.5,0,2.6,0.4,3.5,1.3c0.9,0.9,1.4,2.1,1.4,3.5c0,1.6-0.5,2.8-1.5,3.8c-1,0.9-2.3,1.4-4,1.4
		c-1.5,0-2.7-0.4-3.6-1.2C332.9,51.2,332.4,50.2,332.3,48.8"/>
	<path id="text5157" d="M387,11.4h2.6l4.9,5.8h-2.4l-3.8-3.8l-3.8,3.8H382L387,11.4 M386.1,48.1c0,0.8,0.2,1.5,0.6,2s1,0.7,1.7,0.7
		s1.2-0.2,1.6-0.7s0.6-1.1,0.6-2c0-0.8-0.2-1.4-0.6-1.8c-0.4-0.4-1-0.7-1.7-0.7s-1.3,0.2-1.7,0.7C386.3,46.7,386.1,47.3,386.1,48.1
		 M386.1,44.2c0.3-0.3,0.7-0.6,1.2-0.8s1-0.3,1.6-0.3c1.4,0,2.6,0.4,3.5,1.3c0.9,0.9,1.3,2,1.3,3.5s-0.5,2.8-1.4,3.8
		s-2.2,1.4-3.7,1.4c-1.8,0-3.1-0.6-4.1-1.9c-0.9-1.2-1.4-3-1.4-5.4c0-2.6,0.5-4.5,1.5-5.9s2.4-2,4.3-2c1.3,0,2.4,0.3,3.1,1
		c0.8,0.7,1.2,1.6,1.3,2.8h-3c-0.1-0.5-0.3-0.8-0.6-1.1c-0.3-0.2-0.7-0.4-1.3-0.4c-0.7,0-1.3,0.3-1.7,1
		C386.3,42,386.1,43,386.1,44.2"/>
	<path id="text5163" d="M439.4,19.8l-0.8,0.6c-0.3,0.2-0.6,0.5-0.7,0.8c-0.2,0.3-0.2,0.7-0.2,1c0,0.6,0.2,1.1,0.6,1.5
		s0.9,0.6,1.5,0.6c0.4,0,0.9-0.1,1.3-0.3c0.4-0.2,0.8-0.5,1.1-0.8L439.4,19.8 M440.2,16.6l0.4-0.3c0.3-0.2,0.6-0.5,0.7-0.8
		c0.2-0.3,0.2-0.6,0.2-1c0-0.3-0.1-0.6-0.3-0.8c-0.2-0.2-0.5-0.3-0.9-0.3s-0.7,0.1-0.9,0.3c-0.2,0.2-0.3,0.5-0.3,0.8
		c0,0.2,0.1,0.4,0.2,0.6c0.1,0.2,0.3,0.5,0.5,0.7L440.2,16.6 M437.9,18l-0.6-0.8c-0.3-0.4-0.5-0.8-0.7-1.2c-0.1-0.4-0.2-0.7-0.2-1.1
		c0-1.1,0.3-2,1-2.6c0.7-0.7,1.7-1,2.9-1c1.2,0,2.1,0.3,2.7,0.9c0.7,0.6,1,1.4,1,2.4c0,0.8-0.2,1.5-0.6,2.1s-1,1.2-1.9,1.7l2.2,2.7
		c0.2-0.3,0.4-0.7,0.5-1.1s0.2-0.9,0.3-1.4h2.7c-0.1,0.9-0.3,1.7-0.6,2.5c-0.3,0.8-0.7,1.5-1.2,2.1l2.8,3.4h-3.5l-1-1.3
		c-0.6,0.6-1.3,1-2,1.3s-1.5,0.4-2.3,0.4c-1.4,0-2.5-0.4-3.4-1.2c-0.9-0.8-1.3-1.9-1.3-3.2c0-1,0.2-1.8,0.7-2.5
		C435.9,19.3,436.7,18.6,437.9,18 M440.9,52.8h-3.1c0.1-2,0.6-4,1.4-6c0.9-2,2.1-3.9,3.7-5.8h-7.2v-2.5h10.4v2.2
		c-1.6,1.8-2.9,3.7-3.7,5.7C441.6,48.3,441.1,50.5,440.9,52.8"/>
	<path id="text5169" d="M492.6,17.3l-1.8,2.5l-1.7-1.2l2-2.5l-2.9-0.8l0.7-2.1l2.8,1v-3h2v3l2.8-1l0.7,2.1l-2.9,0.8l2,2.5l-1.8,1.3
		L492.6,17.3 M490.2,48.5c0,0.7,0.2,1.3,0.6,1.7s1,0.6,1.7,0.6s1.3-0.2,1.7-0.6c0.4-0.4,0.6-0.9,0.6-1.7c0-0.7-0.2-1.2-0.6-1.6
		c-0.4-0.4-1-0.6-1.7-0.6s-1.3,0.2-1.7,0.6C490.5,47.3,490.2,47.8,490.2,48.5 M490.5,42.2c0,0.6,0.2,1,0.5,1.3
		c0.4,0.3,0.9,0.5,1.5,0.5c0.7,0,1.2-0.2,1.5-0.5c0.4-0.3,0.5-0.7,0.5-1.3c0-0.5-0.2-1-0.6-1.3s-0.9-0.5-1.5-0.5s-1.1,0.2-1.5,0.5
		C490.7,41.2,490.5,41.6,490.5,42.2 M489.4,45c-0.6-0.3-1.1-0.7-1.3-1.2c-0.3-0.5-0.4-1-0.4-1.8c0-1.3,0.4-2.3,1.3-3
		s2.1-1.1,3.6-1.1s2.7,0.4,3.6,1.1c0.9,0.7,1.3,1.7,1.3,3c0,0.7-0.1,1.3-0.4,1.8s-0.7,0.9-1.3,1.2c0.7,0.3,1.3,0.8,1.6,1.4
		c0.4,0.6,0.5,1.3,0.5,2.2c0,1.4-0.5,2.6-1.4,3.4c-0.9,0.8-2.2,1.2-3.9,1.2c-1.7,0-3-0.4-3.9-1.2s-1.4-1.9-1.4-3.4
		c0-0.8,0.2-1.5,0.5-2.1C488.1,45.9,488.7,45.4,489.4,45"/>
	<path id="text5175" d="M549,11.3c-0.9,1.5-1.6,3.1-2.1,4.7s-0.7,3.3-0.7,5c0,1.8,0.2,3.4,0.7,5s1.2,3.2,2.1,4.7h-2.2
		c-1.2-1.6-2.1-3.3-2.7-4.9c-0.6-1.7-0.9-3.3-0.9-4.8c0-1.6,0.3-3.2,0.9-4.8c0.6-1.7,1.5-3.3,2.7-4.9L549,11.3 M547.4,43.2
		c0-0.8-0.2-1.5-0.6-2c-0.4-0.5-1-0.7-1.7-0.7s-1.2,0.2-1.6,0.7c-0.4,0.5-0.6,1.1-0.6,2c0,0.8,0.2,1.4,0.6,1.9
		c0.4,0.4,1,0.7,1.7,0.7s1.3-0.2,1.7-0.7C547.2,44.6,547.4,43.9,547.4,43.2 M547.5,47c-0.3,0.3-0.7,0.6-1.2,0.8s-1,0.3-1.6,0.3
		c-1.4,0-2.6-0.4-3.5-1.3c-0.9-0.9-1.3-2-1.3-3.5s0.5-2.8,1.4-3.8s2.2-1.4,3.7-1.4c1.8,0,3.2,0.6,4.1,1.9c0.9,1.2,1.4,3,1.4,5.4
		c0,2.5-0.5,4.5-1.5,5.9s-2.4,2-4.3,2c-1.3,0-2.3-0.3-3.1-1s-1.2-1.6-1.3-2.8h3c0.1,0.5,0.3,0.8,0.6,1.1c0.3,0.2,0.7,0.3,1.3,0.3
		c0.7,0,1.3-0.3,1.7-1C547.2,49.2,547.4,48.3,547.5,47"/>
	<path id="text5181" d="M594.2,11.3h2.2c1.2,1.6,2.1,3.3,2.7,4.9c0.6,1.7,0.9,3.3,0.9,4.8c0,1.6-0.3,3.2-0.9,4.8
		c-0.6,1.7-1.5,3.3-2.7,4.9h-2.2c1-1.6,1.7-3.1,2.1-4.7c0.5-1.6,0.7-3.3,0.7-5s-0.2-3.4-0.7-5C595.9,14.5,595.1,12.9,594.2,11.3
		 M595.6,45.6c0,1.8,0.2,3.1,0.5,3.9c0.4,0.8,0.9,1.2,1.7,1.2s1.4-0.4,1.7-1.2c0.4-0.8,0.5-2.1,0.5-3.9c0-1.8-0.2-3.1-0.5-3.9
		c-0.4-0.8-0.9-1.2-1.7-1.2s-1.4,0.4-1.7,1.2C595.8,42.5,595.6,43.8,595.6,45.6 M592.5,45.6c0-2.5,0.4-4.4,1.3-5.7
		c0.9-1.3,2.2-1.9,4-1.9s3.1,0.6,4,1.9c0.9,1.3,1.3,3.2,1.3,5.7s-0.4,4.4-1.3,5.7c-0.9,1.2-2.2,1.9-4,1.9s-3.1-0.6-4-1.9
		C593,50,592.5,48.1,592.5,45.6"/>
	<path id="text5187" d="M645.2,29.3h10.5v2.1h-10.5V29.3 M647.6,48.6v-2.8h5.8v2.8H647.6"/>
	<path id="text5201" d="M702.9,13.9h2.1v5.2h5.1v2H705v5.3h-2.1v-5.3h-5.1v-2h5.1V13.9 M697.8,47.7h12.3v2h-12.3V47.7 M697.8,43.2
		h12.3v2h-12.3V43.2"/>
	<path id="text5427" d="M69.4,89.6v-8.3h-3v-1.8h8v1.8h-3v8.3H69.4 M79.7,88.7c-0.3,0.4-0.6,0.7-1,0.9c-0.4,0.2-0.9,0.3-1.4,0.3
		c-0.7,0-1.3-0.2-1.7-0.6c-0.4-0.4-0.6-1-0.6-1.8c0-0.7,0.2-1.2,0.6-1.6s1-0.6,1.9-0.8c0.2,0,0.5-0.1,0.8-0.1
		c0.8-0.1,1.3-0.4,1.3-0.7c0-0.3-0.1-0.5-0.3-0.6c-0.2-0.1-0.5-0.2-0.9-0.2s-0.7,0.1-0.9,0.2c-0.2,0.2-0.3,0.4-0.3,0.7v0.1h-1.9
		v-0.1c0-0.8,0.3-1.4,0.8-1.8s1.3-0.7,2.2-0.7c1,0,1.8,0.2,2.4,0.5c0.6,0.4,0.8,0.9,0.8,1.6v4.2c0,0.3,0,0.5,0.1,0.7
		s0.2,0.3,0.3,0.3v0.3h-2.1c-0.1-0.1-0.1-0.3-0.2-0.4C79.7,89,79.7,88.8,79.7,88.7 M79.7,85.9c-0.3,0.2-0.7,0.3-1.1,0.4
		s-0.6,0.1-0.7,0.1c-0.4,0.1-0.6,0.2-0.7,0.4C77,86.9,77,87.2,77,87.4c0,0.3,0.1,0.5,0.3,0.7c0.2,0.2,0.4,0.2,0.7,0.2
		c0.5,0,1-0.2,1.3-0.5s0.5-0.7,0.5-1.2v-0.7 M83.4,79.5h1.9v3.6c0.2-0.4,0.6-0.7,0.9-0.9c0.4-0.2,0.8-0.3,1.3-0.3
		c0.9,0,1.6,0.4,2.2,1.1s0.9,1.7,0.9,2.9c0,1.2-0.3,2.1-0.9,2.9c-0.6,0.7-1.3,1.1-2.2,1.1c-0.5,0-0.9-0.1-1.3-0.3
		c-0.4-0.2-0.7-0.5-1-1v1h-1.9L83.4,79.5 M88.6,85.8c0-0.7-0.1-1.2-0.4-1.6s-0.7-0.6-1.2-0.6s-0.9,0.2-1.2,0.6
		c-0.3,0.4-0.4,0.9-0.4,1.6c0,0.8,0.1,1.3,0.4,1.7c0.3,0.4,0.7,0.6,1.2,0.6s1-0.2,1.2-0.6C88.5,87.1,88.6,86.6,88.6,85.8"/>
	<path id="text5207" d="M752.4,44.6h2.5c0.6,0,1-0.1,1.3-0.3s0.4-0.5,0.4-1s-0.1-0.8-0.4-1c-0.3-0.2-0.7-0.3-1.3-0.3h-2.4
		L752.4,44.6 M752.4,40.3h2.4c0.5,0,0.9-0.1,1.1-0.3c0.2-0.2,0.4-0.5,0.4-0.8c0-0.4-0.1-0.6-0.3-0.8s-0.6-0.3-1.1-0.3h-2.4v2.2
		 M750.4,46.5V36.4h4.8c1,0,1.8,0.2,2.4,0.7c0.5,0.4,0.8,1.1,0.8,1.9c0,0.5-0.1,0.9-0.3,1.3c-0.2,0.3-0.5,0.6-0.9,0.8
		c0.5,0.2,0.9,0.5,1.2,0.9s0.4,0.9,0.4,1.5c0,1-0.3,1.7-1,2.3c-0.6,0.5-1.5,0.8-2.7,0.8h-4.7 M764.4,45.5c-0.3,0.4-0.6,0.7-1,0.9
		s-0.9,0.3-1.4,0.3c-0.7,0-1.3-0.2-1.7-0.6c-0.4-0.4-0.6-1-0.6-1.8c0-0.7,0.2-1.2,0.6-1.6c0.4-0.4,1-0.6,1.9-0.8
		c0.2,0,0.5-0.1,0.8-0.1c0.8-0.1,1.3-0.4,1.3-0.7s-0.1-0.5-0.3-0.6s-0.5-0.2-0.9-0.2s-0.7,0.1-0.9,0.2c-0.2,0.2-0.3,0.4-0.3,0.7v0.1
		H760v-0.1c0-0.8,0.3-1.4,0.8-1.8c0.5-0.4,1.3-0.7,2.2-0.7c1,0,1.8,0.2,2.4,0.5c0.6,0.4,0.8,0.9,0.8,1.6V45c0,0.3,0,0.5,0.1,0.7
		s0.2,0.3,0.3,0.3v0.3h-2.1c-0.1-0.1-0.1-0.3-0.2-0.4S764.4,45.7,764.4,45.5 M764.4,42.8c-0.3,0.2-0.7,0.3-1.1,0.4
		c-0.4,0.1-0.6,0.1-0.7,0.1c-0.4,0.1-0.6,0.2-0.7,0.4c-0.1,0.2-0.2,0.4-0.2,0.6c0,0.3,0.1,0.5,0.3,0.7s0.4,0.2,0.7,0.2
		c0.5,0,1-0.2,1.3-0.5s0.5-0.7,0.5-1.2L764.4,42.8 M772.6,43.7h2c-0.1,0.9-0.4,1.7-1,2.2s-1.4,0.8-2.3,0.8c-1.1,0-1.9-0.4-2.5-1.1
		c-0.6-0.7-0.9-1.7-0.9-2.9s0.3-2.2,0.9-2.9c0.6-0.7,1.5-1.1,2.6-1.1c1,0,1.7,0.3,2.3,0.8s0.9,1.2,1,2.1h-2
		c-0.1-0.4-0.2-0.7-0.4-0.9s-0.5-0.3-0.9-0.3c-0.5,0-0.9,0.2-1.1,0.6c-0.2,0.4-0.4,1-0.4,1.7s0.1,1.3,0.4,1.7
		c0.3,0.4,0.6,0.6,1.1,0.6c0.4,0,0.7-0.1,0.9-0.3C772.3,44.4,772.5,44.1,772.6,43.7 M775.8,46.5V36.4h1.9v5.3l2.4-2.7h2.4l-2.6,2.8
		l2.8,4.7h-2.4l-1.8-3.2l-0.8,0.8v2.4H775.8 M783.2,44h2c0,0.4,0.2,0.7,0.4,0.8c0.3,0.2,0.6,0.3,1.2,0.3c0.4,0,0.7-0.1,0.9-0.2
		c0.2-0.1,0.3-0.3,0.3-0.6s-0.4-0.6-1.2-0.8c-0.3-0.1-0.6-0.1-0.8-0.2c-1-0.2-1.6-0.5-2-0.9c-0.4-0.3-0.6-0.8-0.6-1.4
		c0-0.8,0.3-1.4,0.8-1.8c0.6-0.4,1.3-0.7,2.2-0.7c1,0,1.8,0.2,2.3,0.7c0.6,0.4,0.9,1.1,0.9,1.9h-1.9c0-0.3-0.1-0.6-0.4-0.7
		c-0.2-0.2-0.5-0.3-0.9-0.3s-0.7,0.1-0.8,0.2c-0.2,0.1-0.3,0.3-0.3,0.5c0,0.3,0.5,0.6,1.5,0.8c0.2,0.1,0.4,0.1,0.5,0.1
		c1,0.2,1.7,0.5,2,0.8c0.4,0.3,0.5,0.8,0.5,1.4c0,0.8-0.3,1.5-0.9,1.9c-0.6,0.4-1.5,0.7-2.6,0.7c-1,0-1.8-0.2-2.4-0.7
		S783.2,44.9,783.2,44L783.2,44 M796.5,42.8c0-0.7-0.1-1.3-0.4-1.7c-0.3-0.4-0.7-0.6-1.2-0.6s-0.9,0.2-1.2,0.6
		c-0.3,0.4-0.4,1-0.4,1.7s0.1,1.2,0.4,1.6c0.3,0.4,0.7,0.6,1.2,0.6s0.9-0.2,1.2-0.6C796.4,44,796.5,43.5,796.5,42.8 M791.3,49.4V39
		h1.9v1c0.3-0.4,0.6-0.8,1-1s0.8-0.3,1.3-0.3c0.9,0,1.7,0.4,2.2,1.1c0.6,0.7,0.9,1.7,0.9,2.9s-0.3,2.2-0.9,2.9
		c-0.6,0.7-1.3,1.1-2.2,1.1c-0.5,0-0.9-0.1-1.3-0.3c-0.4-0.2-0.7-0.5-0.9-0.9v3.9H791.3 M804.1,45.5c-0.3,0.4-0.6,0.7-1,0.9
		s-0.9,0.3-1.4,0.3c-0.7,0-1.3-0.2-1.7-0.6c-0.4-0.4-0.6-1-0.6-1.8c0-0.7,0.2-1.2,0.6-1.6c0.4-0.4,1-0.6,1.9-0.8
		c0.2,0,0.5-0.1,0.8-0.1c0.8-0.1,1.3-0.4,1.3-0.7s-0.1-0.5-0.3-0.6s-0.5-0.2-0.9-0.2s-0.7,0.1-0.9,0.2c-0.2,0.2-0.3,0.4-0.3,0.7v0.1
		h-1.9v-0.1c0-0.8,0.3-1.4,0.8-1.8c0.5-0.4,1.3-0.7,2.2-0.7c1,0,1.8,0.2,2.4,0.5c0.6,0.4,0.8,0.9,0.8,1.6V45c0,0.3,0,0.5,0.1,0.7
		s0.2,0.3,0.3,0.3v0.3h-2.1c-0.1-0.1-0.1-0.3-0.2-0.4C804.1,45.9,804.1,45.7,804.1,45.5 M804.1,42.8c-0.3,0.2-0.7,0.3-1.1,0.4
		c-0.4,0.1-0.6,0.1-0.7,0.1c-0.4,0.1-0.6,0.2-0.7,0.4c-0.1,0.2-0.2,0.4-0.2,0.6c0,0.3,0.1,0.5,0.3,0.7s0.4,0.2,0.7,0.2
		c0.5,0,1-0.2,1.3-0.5s0.5-0.7,0.5-1.2L804.1,42.8 M812.3,43.7h2c-0.1,0.9-0.4,1.7-1,2.2s-1.4,0.8-2.3,0.8c-1.1,0-1.9-0.4-2.5-1.1
		c-0.6-0.7-0.9-1.7-0.9-2.9s0.3-2.2,0.9-2.9c0.6-0.7,1.5-1.1,2.6-1.1c1,0,1.7,0.3,2.3,0.8s0.9,1.2,1,2.1h-2
		c-0.1-0.4-0.2-0.7-0.4-0.9s-0.5-0.3-0.9-0.3c-0.5,0-0.9,0.2-1.1,0.6c-0.2,0.4-0.4,1-0.4,1.7s0.1,1.3,0.4,1.7
		c0.3,0.4,0.6,0.6,1.1,0.6c0.4,0,0.7-0.1,0.9-0.3C812,44.4,812.2,44.1,812.3,43.7 M820.1,44.2h2c-0.2,0.8-0.6,1.4-1.2,1.9
		c-0.6,0.4-1.4,0.7-2.2,0.7c-1.1,0-1.9-0.4-2.6-1.1c-0.6-0.7-0.9-1.7-0.9-2.9s0.3-2.2,0.9-2.9c0.6-0.7,1.5-1.1,2.5-1.1
		c1.1,0,2,0.3,2.6,1s0.9,1.7,0.9,3c0,0.1,0,0.2,0,0.3s0,0.1,0,0.2h-5c0,0.6,0.2,1,0.4,1.3c0.3,0.3,0.6,0.4,1.1,0.4
		c0.3,0,0.6-0.1,0.8-0.2C819.8,44.7,819.9,44.5,820.1,44.2 M817.2,42h2.9c0-0.5-0.2-0.9-0.4-1.1c-0.2-0.3-0.6-0.4-1.1-0.4
		c-0.4,0-0.8,0.1-1,0.4C817.3,41.1,817.2,41.5,817.2,42"/>
	<path id="path5439" class="st6" d="M796.5,21.2h-37.7"/>
	<path id="path5441" d="M763.6,27.8V14.6l-13.2,6.6L763.6,27.8z"/>
	<g id="g5459" transform="translate(0,7.5)">
		<path id="path5453" class="st6" d="M132,70.6h-25"/>
		<path id="path5455" d="M112.3,77.2V64l-13.2,6.6L112.3,77.2z"/>
		<path id="path5457" class="st6" d="M99.1,64c0,13.2,0,13.2,0,13.2"/>
	</g>
	<g id="g5464" transform="matrix(-1,9.581637e-17,-9.581637e-17,-1,127.5,172.5)">
		<path id="path5466" class="st6" d="M28.4,81.3h-25"/>
		<path id="path5468" d="M8.6,87.8V74.7l-13.2,6.6L8.6,87.8z"/>
		<path id="path5470" class="st6" d="M-4.5,74.7c0,13.2,0,13.2,0,13.2"/>
	</g>
	<path id="text5474" d="M153.6,76.4l-1.6-1.6l1.7-1.8l1.6,1.6c0.2-0.4,0.4-0.9,0.5-1.4s0.2-1.1,0.2-1.7c0-1.7-0.4-3-1.1-3.9
		c-0.7-0.9-1.8-1.4-3.1-1.4s-2.4,0.5-3.1,1.4c-0.7,0.9-1.1,2.2-1.1,3.9c0,1.7,0.4,3,1.1,3.9c0.7,0.9,1.8,1.4,3.1,1.4
		c0.3,0,0.7,0,1-0.1C153,76.6,153.3,76.5,153.6,76.4 M155.8,78.5c-0.5,0.3-1.1,0.6-1.8,0.8c-0.7,0.2-1.4,0.3-2.2,0.3
		c-2.3,0-4.1-0.7-5.4-2.2c-1.3-1.4-2-3.4-2-5.8s0.7-4.4,2-5.8s3.1-2.2,5.4-2.2c2.3,0,4.1,0.7,5.4,2.2c1.3,1.4,2,3.4,2,5.8
		c0,1.1-0.1,2-0.4,2.9c-0.3,0.9-0.7,1.7-1.2,2.3l1.6,1.6l-1.7,1.8L155.8,78.5"/>
	<path id="text5482" d="M199.1,79.1L194.8,64h3.2l2.6,10.7l2.2-10.7h3.3l2.2,10.7l2.6-10.7h3.2l-4.3,15.1h-3l-2.3-11.6l-2.4,11.6
		H199.1"/>
	<path id="text5492" d="M251.4,79.1V63.9h11v2.6h-7.9v3.2h7.2v2.6h-7.2v3.9h8.3V79L251.4,79.1"/>
	<path id="text5500" d="M306.5,70.6h3.7c0.8,0,1.4-0.2,1.7-0.5c0.4-0.3,0.6-0.8,0.6-1.5s-0.2-1.2-0.5-1.5c-0.4-0.3-0.9-0.5-1.6-0.5
		h-3.8v4 M303.4,79.1V63.9h7.3c1.7,0,2.9,0.4,3.7,1.1c0.8,0.7,1.2,1.8,1.2,3.2c0,0.9-0.2,1.7-0.6,2.3c-0.4,0.6-0.9,1-1.7,1.3
		c0.7,0.2,1.1,0.6,1.4,1.1s0.4,1.2,0.5,2.2l0.1,1.8c0,0,0,0,0,0.1c0,0.9,0.2,1.5,0.6,1.6v0.5h-3.4c-0.1-0.2-0.2-0.5-0.3-0.8
		c-0.1-0.3-0.1-0.7-0.1-1.1v-1.6c0-0.9-0.2-1.6-0.5-1.9s-0.9-0.5-1.7-0.5h-3.3v5.9H303.4"/>
	<path id="text5504" d="M360.7,79.1V66.6h-4.5v-2.7h12.1v2.7h-4.5V79L360.7,79.1"/>
	<path id="text5518" d="M416.7,79.1h-3.1v-5.6l-5.5-9.5h3.8l3.2,6.5l3-6.5h3.6l-5,9.5V79.1"/>
	<path id="text5522" d="M461.5,63.7h3.1v9.5c0,1.2,0.2,2,0.7,2.6c0.5,0.5,1.2,0.8,2.2,0.8s1.8-0.3,2.2-0.8c0.5-0.5,0.7-1.4,0.7-2.6
		v-9.5h3.1v9.8c0,1.9-0.5,3.3-1.6,4.3c-1,1-2.5,1.5-4.5,1.5s-3.5-0.5-4.5-1.5s-1.6-2.4-1.6-4.3v-9.8"/>
	<path id="text5526" d="M518.6,79.1V63.9h3.1V79L518.6,79.1"/>
	<path id="text5530" d="M568.6,71.5c0,1.7,0.4,3,1.1,3.9c0.7,0.9,1.8,1.4,3.1,1.4s2.4-0.5,3.1-1.4c0.7-0.9,1.1-2.2,1.1-3.9
		c0-1.7-0.4-3-1.1-3.9c-0.7-0.9-1.8-1.4-3.1-1.4s-2.4,0.5-3.1,1.4S568.6,69.8,568.6,71.5 M565.4,71.5c0-2.4,0.7-4.4,2-5.8
		s3.1-2.2,5.4-2.2c2.3,0,4.1,0.7,5.4,2.2c1.3,1.4,2,3.4,2,5.8s-0.7,4.4-2,5.8s-3.1,2.2-5.4,2.2c-2.3,0-4.1-0.7-5.4-2.2
		C566.1,75.9,565.4,73.9,565.4,71.5"/>
	<path id="text5534" d="M622.8,70.9h3c0.8,0,1.4-0.2,1.8-0.5c0.4-0.3,0.6-0.9,0.6-1.7c0-0.7-0.2-1.3-0.5-1.6
		c-0.4-0.4-0.9-0.6-1.6-0.6h-3.2L622.8,70.9 M622.8,73.7v5.4h-3.1V63.9h6.7c1.6,0,2.8,0.4,3.6,1.2c0.8,0.8,1.2,2,1.2,3.6
		s-0.4,2.8-1.2,3.6c-0.8,0.8-1.9,1.3-3.4,1.3L622.8,73.7"/>
	<path id="text5546" d="M681.8,61.8v2.1c-0.1,0-0.1,0-0.3,0c-0.1,0-0.2,0-0.2,0c-0.7,0-1.2,0.1-1.4,0.4c-0.2,0.3-0.4,0.8-0.4,1.7
		v2.5c0,1-0.2,1.7-0.5,2.2c-0.3,0.4-0.9,0.7-1.7,0.9c0.8,0.2,1.4,0.5,1.7,0.9s0.5,1.1,0.5,2.1v2.5c0,0.8,0.1,1.4,0.4,1.7
		s0.7,0.4,1.4,0.4c0,0,0.1,0,0.2,0c0.1,0,0.2,0,0.3,0v2.1c-0.1,0-0.2,0-0.4,0s-0.3,0-0.4,0c-0.7,0-1.3,0-1.7-0.1
		c-0.5-0.1-0.8-0.2-1.2-0.4c-0.4-0.2-0.7-0.5-0.8-0.9c-0.2-0.4-0.2-1.1-0.2-2v-2.6c0-0.9-0.2-1.6-0.5-2s-0.9-0.6-1.8-0.6
		c0,0-0.1,0-0.2,0c-0.1,0-0.2,0-0.2,0v-2.1c0,0,0.1,0,0.2,0c0.1,0,0.2,0,0.2,0c0.8,0,1.4-0.2,1.8-0.6c0.4-0.4,0.5-1.1,0.5-2v-2.6
		c0-1,0.1-1.7,0.2-2.1c0.2-0.4,0.4-0.7,0.8-0.9c0.3-0.2,0.7-0.3,1.2-0.4c0.5-0.1,1-0.1,1.7-0.1c0.1,0,0.2,0,0.4,0
		C681.6,61.8,681.7,61.8,681.8,61.8 M676.4,88.1h5.2v2.2h-2.4v15.2h2.4v2.2h-5.2V88.1"/>
	<path id="text5554" d="M727,61.8h0.7c0.8,0,1.4,0,1.8,0.1c0.5,0.1,0.8,0.2,1.2,0.4s0.7,0.5,0.8,0.9c0.2,0.4,0.2,1.1,0.2,2v2.6
		c0,0.9,0.2,1.6,0.5,2s0.9,0.6,1.8,0.6c0,0,0.1,0,0.2,0c0.1,0,0.2,0,0.2,0v2.1H734c-0.9,0-1.5,0.2-1.8,0.6s-0.5,1-0.5,2v2.6
		c0,1-0.1,1.7-0.2,2.1c-0.2,0.4-0.4,0.7-0.8,0.9c-0.3,0.2-0.7,0.3-1.2,0.4s-1,0.1-1.7,0.1c-0.1,0-0.2,0-0.4,0s-0.3,0-0.4,0v-2.1
		c0.1,0,0.1,0,0.3,0c0.1,0,0.2,0,0.2,0c0.7,0,1.2-0.1,1.4-0.4s0.4-0.8,0.4-1.6v-2.5c0-1,0.2-1.8,0.5-2.2c0.3-0.4,0.9-0.7,1.7-0.9
		c-0.8-0.2-1.4-0.5-1.7-0.9s-0.5-1.1-0.5-2.2V66c0-0.8-0.1-1.4-0.4-1.6c-0.2-0.3-0.7-0.4-1.4-0.4c0,0-0.1,0-0.2,0
		c-0.1,0-0.2,0-0.3,0L727,61.8 M732.5,88.1v19.6h-5.2v-2.2h2.4V90.3h-2.4v-2.2L732.5,88.1"/>
	<path id="text5564" d="M782.3,60.9h2.1V82h-2.1V60.9 M785.2,105.2l-5.1-17.5h1.4l5.1,17.5H785.2"/>
	<g id="g5770" transform="translate(0,3.75)">
		<text transform="matrix(1 0 0 1 69.9265 127.4517)" class="st7 st8">Caps Lock</text>
		<path id="path5584" d="M82.7,130.3l-9.9,13.2h6.6v6.6H86v-6.6h6.6L82.7,130.3z M81.8,134h1.8l2.7,7.6h-1.6l-0.5-1.6h-2.9l-0.5,1.6
			h-1.6L81.8,134z M82.7,135.5l-1.1,3.2h2.1L82.7,135.5z"/>
	</g>
	<path id="text5641" d="M164.9,119.6l-2.1,6.4h4.2L164.9,119.6 M163.1,116.6h3.6l5.5,15.1h-3.3l-1-3.1H162l-1,3.1h-3.3L163.1,116.6"
		/>
	<path id="text5645" d="M211.4,127h3.1c0.1,0.8,0.5,1.4,1,1.9c0.6,0.4,1.4,0.6,2.4,0.6c0.9,0,1.6-0.2,2-0.5c0.5-0.3,0.7-0.8,0.7-1.4
		c0-0.9-1.3-1.7-4-2.3h-0.1c-0.1,0-0.2,0-0.3-0.1c-1.4-0.3-2.4-0.7-3-1c-0.5-0.3-0.9-0.8-1.2-1.4s-0.4-1.3-0.4-2.1
		c0-1.5,0.5-2.6,1.5-3.4s2.4-1.2,4.3-1.2c1.8,0,3.1,0.4,4.1,1.3c1,0.8,1.5,2,1.6,3.5h-3c-0.1-0.7-0.3-1.3-0.8-1.7
		c-0.5-0.4-1.2-0.6-2.2-0.6c-0.8,0-1.4,0.2-1.9,0.5c-0.4,0.3-0.7,0.8-0.7,1.4c0,0.8,0.9,1.4,2.6,1.8c0.5,0.1,0.8,0.2,1.1,0.3
		c1.1,0.3,1.9,0.5,2.3,0.7c0.5,0.2,0.9,0.3,1.2,0.5c0.6,0.3,1.1,0.8,1.4,1.4c0.3,0.6,0.5,1.2,0.5,2c0,1.6-0.5,2.8-1.6,3.7
		s-2.6,1.3-4.5,1.3s-3.4-0.4-4.5-1.3C212.1,129.9,211.5,128.7,211.4,127"/>
	<path id="text5649" d="M266.8,129h2.5c1.4,0,2.5-0.4,3.1-1.1c0.7-0.8,1-2,1-3.7s-0.3-2.9-0.9-3.7c-0.6-0.8-1.5-1.2-2.8-1.2h-2.9
		L266.8,129 M263.8,131.7v-15.1h5.9c2.3,0,4.1,0.6,5.2,1.9s1.7,3.2,1.7,5.7c0,1.4-0.2,2.6-0.6,3.7c-0.4,1.1-1,1.9-1.8,2.5
		c-0.6,0.5-1.3,0.8-2.1,1c-0.8,0.2-1.8,0.3-3.2,0.3H263.8"/>
	<path id="text5653" d="M317.5,131.7v-15.1h10.6v2.6h-7.5v3.4h6.6v2.6h-6.6v6.4h-3.1"/>
	<path id="text5657" d="M380,129.9c-0.6,0.8-1.2,1.3-1.9,1.7c-0.7,0.4-1.6,0.5-2.5,0.5c-2.1,0-3.8-0.7-5.1-2.2c-1.3-1.5-2-3.4-2-5.8
		s0.7-4.3,2-5.8c1.3-1.4,3.1-2.2,5.2-2.2c1.9,0,3.4,0.5,4.6,1.4s1.9,2.2,2.1,3.7h-3.2c-0.2-0.8-0.6-1.4-1.2-1.8s-1.4-0.6-2.3-0.6
		c-1.3,0-2.3,0.5-3,1.4s-1.1,2.2-1.1,3.8c0,1.6,0.4,2.9,1.1,3.9s1.8,1.4,3.1,1.4c1,0,1.8-0.3,2.5-0.9c0.7-0.6,1.1-1.4,1.2-2.4h-3.4
		v-2.6h6.3v8.2h-2.1L380,129.9"/>
	<path id="text5661" d="M421.8,131.7v-15.1h3.1v5.6h6.2v-5.6h3.1v15.1h-3.1V125H425v6.7H421.8"/>
	<path id="text5665" d="M475.9,125.9h3v1.8c0,0.5,0.2,0.9,0.5,1.2s0.8,0.4,1.4,0.4s1.1-0.2,1.3-0.5c0.3-0.3,0.4-1,0.4-1.9v-10.6h3.1
		V127c0,1-0.1,1.7-0.2,2.1c-0.1,0.4-0.3,0.8-0.6,1.2c-0.4,0.5-0.9,0.9-1.6,1.2s-1.5,0.4-2.4,0.4s-1.6-0.1-2.3-0.3
		c-0.7-0.2-1.2-0.6-1.6-1c-0.3-0.4-0.6-0.8-0.8-1.2c-0.1-0.5-0.2-1.2-0.2-2.3L475.9,125.9"/>
	<path id="text5669" d="M526.6,131.7v-15.1h3.1v6.2l5.9-6.2h3.9l-6,6.1l6.6,9h-3.8l-4.9-6.9l-1.6,1.6v5.3H526.6"/>
	<path id="text5673" d="M580.7,131.7v-15.1h3.1v12.3h7.4v2.8H580.7"/>
	<path id="text5679" d="M185.2,184.3v-2.6l8.2-9.8h-8.1v-2.7h11.9v2.6l-8.3,9.8h8.1v2.7H185.2"/>
	<path id="text5683" d="M237.2,184.3l4.8-7.7l-4.8-7.4h3.6l3.1,5.3l3.1-5.3h3.6l-4.8,7.4l4.8,7.8H247l-3.1-5.2l-3.1,5.2h-3.6"/>
	<path id="text5687" d="M303.4,179.1c-0.1,1.7-0.8,3.1-2,4.1s-2.8,1.5-4.7,1.5c-2.2,0-4-0.7-5.2-2.1c-1.2-1.4-1.9-3.4-1.9-5.9
		c0-2.6,0.6-4.6,1.9-5.9c1.3-1.4,3.1-2.1,5.5-2.1c1.9,0,3.5,0.5,4.6,1.4s1.7,2.3,1.9,4h-3.1c-0.1-0.9-0.5-1.5-1-2
		c-0.6-0.5-1.3-0.7-2.3-0.7c-1.4,0-2.4,0.4-3.1,1.3c-0.7,0.9-1.1,2.2-1.1,3.9c0,1.6,0.4,2.9,1.1,3.8c0.7,0.9,1.7,1.3,3,1.3
		c0.9,0,1.7-0.2,2.3-0.7c0.6-0.5,1-1.2,1.2-2.1h2.9"/>
	<path id="text5691" d="M347.7,184.3l-5.2-15.1h3.5l3.2,11.3l3.3-11.3h3.4l-5.2,15.1H347.7"/>
	<path id="text5695" d="M398.5,181.6h3.7c0.9,0,1.5-0.2,1.9-0.5s0.6-0.8,0.6-1.5s-0.2-1.2-0.6-1.5s-1-0.5-1.9-0.5h-3.7V181.6
		 M398.5,175.1h3.6c0.8,0,1.3-0.1,1.7-0.4c0.4-0.3,0.5-0.7,0.5-1.3s-0.2-1-0.5-1.2c-0.3-0.3-0.9-0.4-1.7-0.4h-3.5v3.3 M395.6,184.3
		v-15.1h7.1c1.5,0,2.7,0.3,3.5,1s1.2,1.6,1.2,2.8c0,0.8-0.2,1.4-0.5,1.9s-0.8,0.9-1.4,1.2c0.8,0.3,1.4,0.8,1.7,1.4
		c0.4,0.6,0.6,1.3,0.6,2.2c0,1.5-0.5,2.6-1.4,3.4c-1,0.8-2.3,1.2-4.1,1.2L395.6,184.3"/>
	<path id="text5699" d="M448.2,184.3v-15.1h3.3l6.1,10.4v-10.4h3.1v15.1h-3.2l-6.2-10.4v10.4H448.2"/>
	<path id="text5703" d="M499.4,184.3v-15.1h4.6l3,11.5l3-11.5h4.6v15.1h-2.9v-12.2l-3.1,12.2h-3.2l-3.1-12.2v12.2H499.4"/>
	<path id="text5725" d="M637,123.8v-3.1h3.1v3.1H637 M637,131.7v-3.1h3.1v3.1H637 M637.1,150.1V147h3.1v3.1H637.1 M637.1,161.6v-1.2
		c0.6-0.2,1-0.4,1.3-0.8c0.3-0.3,0.4-0.8,0.4-1.3V158H637v-3.1h3.1v3c0,1-0.3,1.9-0.8,2.5C638.9,161,638.1,161.4,637.1,161.6"/>
	<path id="text5731" d="M691.9,116.9h2v5.7h-2V116.9 M688.6,116.9h2v5.7h-2V116.9 M690.3,143.2h2v5.7h-2V143.2"/>
	<path id="text5737" d="M737.3,129.1V119h7.3v1.8h-5.3v2.2h4.8v1.7h-4.8v2.6h5.5v1.9L737.3,129.1 M746.3,129.1v-7.4h2v0.9
		c0.3-0.4,0.6-0.6,1-0.8c0.4-0.2,0.8-0.3,1.3-0.3c0.8,0,1.4,0.2,1.8,0.6c0.4,0.4,0.6,1.1,0.6,1.9v5.1h-2v-4.5c0-0.5-0.1-0.9-0.3-1.1
		s-0.5-0.3-0.9-0.3c-0.5,0-0.8,0.1-1.1,0.4s-0.4,0.7-0.4,1.1v4.4H746.3 M758,129.1c-0.2,0-0.4,0-0.7,0s-0.4,0-0.5,0
		c-0.8,0-1.3-0.1-1.6-0.4c-0.3-0.3-0.4-0.9-0.4-1.7v-4h-1v-1.4h1v-2h2v2h1.2v1.4h-1.2v4.1c0,0.2,0,0.3,0.1,0.4s0.3,0.1,0.5,0.1h0.5
		v1.5 M763.7,126.8h2c-0.2,0.8-0.6,1.4-1.2,1.9c-0.6,0.4-1.4,0.7-2.2,0.7c-1.1,0-1.9-0.4-2.6-1.1c-0.6-0.7-0.9-1.7-0.9-2.9
		c0-1.2,0.3-2.2,0.9-2.9c0.6-0.7,1.5-1.1,2.5-1.1c1.1,0,2,0.3,2.6,1s0.9,1.7,0.9,3c0,0.1,0,0.2,0,0.3c0,0.1,0,0.1,0,0.2h-5
		c0,0.6,0.2,1,0.4,1.3c0.3,0.3,0.6,0.4,1.1,0.4c0.3,0,0.6-0.1,0.8-0.2C763.4,127.3,763.6,127.1,763.7,126.8 M760.8,124.5h2.9
		c0-0.5-0.2-0.9-0.4-1.1c-0.2-0.3-0.6-0.4-1.1-0.4c-0.4,0-0.8,0.1-1,0.4C761,123.7,760.8,124.1,760.8,124.5 M767.1,129.1v-7.4h1.9
		v1.3c0.3-0.5,0.6-0.9,0.9-1.1c0.3-0.2,0.8-0.4,1.2-0.4c0.1,0,0.1,0,0.2,0h0.1v2h-0.7c-0.5,0-1,0.1-1.2,0.4
		c-0.3,0.3-0.4,0.7-0.4,1.3v3.9H767.1"/>
	<path id="path5745" d="M750.4,157v-13.2l-13.2,6.6L750.4,157z"/>
	<path id="path5747" class="st6" d="M770.2,137.3v13.2h-26.3"/>
	<g id="g5790">
		<text transform="matrix(1 0 0 1 71.9821 182.2007)" class="st7 st8">Shift</text>
		<path id="path5757" class="st9" d="M83.6,187.4l-9.9,13.2h6.6v6.6h6.6v-6.6h6.6L83.6,187.4z"/>
	</g>
	<g id="g5795" transform="translate(727.5,0)">
		<text transform="matrix(1 0 0 1 -17.3782 182.2007)" class="st7 st8">Shift</text>
		<path id="path5801" class="st9" d="M-5.8,187.4l-9.9,13.2h6.6v6.6h6.6v-6.6h6.6L-5.8,187.4z"/>
	</g>
	<path id="text5803" d="M565.7,172.1v2.3l-9.2,3.8l9.2,3.7v2.3l-12.1-5v-2L565.7,172.1 M558.1,214.2V213c0.6-0.2,1-0.4,1.3-0.8
		c0.3-0.3,0.4-0.8,0.4-1.3v-0.3h-1.7v-3.1h3.1v3c0,1-0.3,1.8-0.8,2.5C559.9,213.6,559.1,214,558.1,214.2"/>
	<path id="text5813" d="M606.2,172.1l12.1,5v2l-12.1,5v-2.3l9.2-3.7l-9.2-3.8V172.1 M610.7,210.7v-3.1h3.1v3.1H610.7"/>
	<path id="text5819" d="M663.6,179.9c0-0.1,0-0.2,0-0.3s0-0.2,0-0.3c0-0.6,0.1-1.1,0.2-1.5c0.1-0.4,0.3-0.8,0.6-1.1
		c0.2-0.3,0.5-0.6,1-0.9c0.4-0.3,0.7-0.6,0.9-0.7c0.3-0.3,0.5-0.6,0.6-0.8s0.2-0.5,0.2-0.8c0-0.7-0.2-1.2-0.5-1.5
		c-0.4-0.4-0.9-0.5-1.5-0.5c-0.7,0-1.2,0.2-1.5,0.7c-0.4,0.4-0.6,1-0.6,1.8h-2.9v-0.3c0-1.4,0.5-2.6,1.4-3.5s2.2-1.3,3.7-1.3
		c1.6,0,2.8,0.4,3.8,1.2c0.9,0.8,1.4,1.9,1.4,3.3c0,0.5-0.1,0.9-0.2,1.3c-0.1,0.4-0.3,0.7-0.5,1c-0.3,0.4-0.7,0.8-1.3,1.3
		s-0.9,0.7-1.1,0.9c-0.3,0.3-0.4,0.5-0.6,0.8c-0.1,0.3-0.2,0.6-0.2,1c0,0,0,0.1,0,0.2c0,0.1,0,0.1,0,0.2h-2.9 M663.4,184.3v-3h3v3
		H663.4 M661.7,212.6l5.1-17.5h1.4l-5.1,17.5H661.7"/>
	<path id="text5827" d="M75.5,244.1c-0.1,1.1-0.5,2.1-1.3,2.7c-0.8,0.7-1.9,1-3.2,1c-1.5,0-2.7-0.5-3.5-1.4s-1.2-2.2-1.2-3.9
		s0.4-3,1.3-3.9c0.8-0.9,2.1-1.4,3.6-1.4c1.3,0,2.3,0.3,3,0.9c0.7,0.6,1.2,1.5,1.2,2.7h-2c-0.1-0.6-0.3-1-0.7-1.3
		c-0.4-0.3-0.9-0.5-1.5-0.5c-0.9,0-1.6,0.3-2.1,0.9c-0.5,0.6-0.7,1.5-0.7,2.6s0.2,1.9,0.7,2.5s1.1,0.9,2,0.9c0.6,0,1.1-0.2,1.5-0.5
		s0.7-0.8,0.8-1.4L75.5,244.1 M80.3,247.6c-0.2,0-0.4,0-0.7,0c-0.3,0-0.4,0-0.5,0c-0.8,0-1.3-0.1-1.6-0.4c-0.3-0.3-0.4-0.9-0.4-1.7
		v-4h-1v-1.4h1v-2h2v2h1.2v1.4h-1.2v4.1c0,0.2,0,0.3,0.1,0.4c0.1,0.1,0.3,0.1,0.5,0.1h0.5L80.3,247.6 M81.4,247.6v-7.4h1.9v1.3
		c0.3-0.5,0.6-0.9,0.9-1.1c0.3-0.2,0.8-0.4,1.2-0.4c0.1,0,0.1,0,0.2,0h0.1v2H85c-0.5,0-1,0.1-1.2,0.4c-0.3,0.3-0.4,0.7-0.4,1.3v3.9
		H81.4 M86.9,247.6v-10.1h2v10.1H86.9"/>
	<path id="text5831" d="M202.6,239.5l-1.4,4.3h2.8L202.6,239.5 M201.4,237.5h2.4l3.6,10.1h-2.2l-0.7-2.1h-3.9l-0.7,2.1h-2.2
		L201.4,237.5 M208.4,247.6v-10.1h2v10.1H208.4 M215.5,247.6c-0.2,0-0.4,0-0.7,0s-0.4,0-0.5,0c-0.8,0-1.3-0.1-1.6-0.4
		c-0.3-0.3-0.4-0.9-0.4-1.7v-4h-1v-1.4h1v-2h2v2h1.2v1.4h-1.2v4.1c0,0.2,0,0.3,0.1,0.4c0.1,0.1,0.3,0.1,0.5,0.1h0.5L215.5,247.6"/>
	<path id="text5839" d="M786,244.1c-0.1,1.1-0.5,2.1-1.3,2.7c-0.8,0.7-1.9,1-3.2,1c-1.5,0-2.7-0.5-3.5-1.4s-1.2-2.2-1.2-3.9
		s0.4-3,1.3-3.9c0.8-0.9,2.1-1.4,3.6-1.4c1.3,0,2.3,0.3,3,0.9c0.7,0.6,1.2,1.5,1.2,2.7h-2c-0.1-0.6-0.3-1-0.7-1.3s-0.9-0.5-1.5-0.5
		c-0.9,0-1.6,0.3-2.1,0.9c-0.5,0.6-0.7,1.5-0.7,2.6s0.2,1.9,0.7,2.5s1.1,0.9,2,0.9c0.6,0,1.1-0.2,1.5-0.5s0.7-0.8,0.8-1.4L786,244.1
		 M790.8,247.6c-0.2,0-0.4,0-0.7,0s-0.4,0-0.5,0c-0.8,0-1.3-0.1-1.6-0.4c-0.3-0.3-0.4-0.9-0.4-1.7v-4h-1v-1.4h1v-2h2v2h1.2v1.4h-1.2
		v4.1c0,0.2,0,0.3,0.1,0.4c0.1,0.1,0.3,0.1,0.5,0.1h0.5v1.5 M791.9,247.6v-7.4h1.9v1.3c0.3-0.5,0.6-0.9,0.9-1.1
		c0.3-0.2,0.8-0.4,1.2-0.4c0.1,0,0.1,0,0.2,0h0.1v2h-0.7c-0.5,0-1,0.1-1.2,0.4c-0.3,0.3-0.4,0.7-0.4,1.3v3.9H791.9 M797.4,247.6
		v-10.1h2v10.1H797.4"/>
	<path id="text5872" d="M155.2,237.3l-2.9-10.1h2.2l1.7,7.1l1.5-7.1h2.2l1.5,7.1l1.7-7.1h2.1l-2.9,10.1h-2l-1.6-7.7l-1.6,7.7H155.2
		 M166.2,229v-1.8h2v1.8H166.2 M166.2,237.3v-7.4h2v7.4H166.2 M170,237.3v-7.4h2v0.9c0.3-0.4,0.6-0.6,1-0.8s0.8-0.3,1.3-0.3
		c0.8,0,1.4,0.2,1.8,0.6c0.4,0.4,0.6,1.1,0.6,1.9v5.1h-2v-4.5c0-0.5-0.1-0.9-0.3-1.1c-0.2-0.2-0.5-0.3-0.9-0.3
		c-0.5,0-0.8,0.1-1.1,0.4c-0.3,0.3-0.4,0.7-0.4,1.1v4.4L170,237.3 M153.2,254.9v-10.1h2.1v4.1l3.9-4.1h2.6l-4,4.1l4.4,6h-2.5
		l-3.3-4.6l-1.1,1.1v3.5H153.2 M167.5,252.6h2c-0.2,0.8-0.6,1.4-1.2,1.9c-0.6,0.4-1.4,0.7-2.2,0.7c-1.1,0-1.9-0.4-2.6-1.1
		c-0.6-0.7-0.9-1.7-0.9-2.9s0.3-2.2,0.9-2.9c0.6-0.7,1.5-1.1,2.5-1.1c1.1,0,2,0.3,2.6,1s0.9,1.7,0.9,3c0,0.1,0,0.2,0,0.3
		s0,0.1,0,0.2h-5c0,0.6,0.2,1,0.4,1.3c0.3,0.3,0.6,0.4,1.1,0.4c0.3,0,0.6-0.1,0.8-0.2C167.2,253.1,167.4,252.9,167.5,252.6
		 M164.6,250.3h2.9c0-0.5-0.2-0.9-0.4-1.1c-0.2-0.3-0.6-0.4-1.1-0.4c-0.4,0-0.8,0.1-1,0.4C164.8,249.5,164.6,249.8,164.6,250.3
		 M171.2,257.8v-1.6c0.1,0,0.1,0,0.2,0c0.1,0,0.2,0,0.3,0c0.4,0,0.7-0.1,0.9-0.3s0.3-0.5,0.3-0.8V255v-0.1l-2.7-7.5h2.2l1.6,5.4
		l1.5-5.4h2.1l-3.1,8.8c-0.2,0.7-0.5,1.1-0.9,1.3c-0.3,0.2-0.9,0.4-1.5,0.4c-0.1,0-0.3,0-0.4,0C171.5,257.9,171.4,257.9,171.2,257.8
		"/>
	<path id="text5878" d="M681.5,237.3l-2.9-10.1h2.2l1.7,7.1l1.5-7.1h2.2l1.5,7.1l1.7-7.1h2.1l-2.9,10.1h-2l-1.6-7.7l-1.6,7.7H681.5
		 M692.5,229v-1.8h2v1.8H692.5 M692.5,237.3v-7.4h2v7.4H692.5 M696.3,237.3v-7.4h2v0.9c0.3-0.4,0.6-0.6,1-0.8s0.8-0.3,1.3-0.3
		c0.8,0,1.4,0.2,1.8,0.6c0.4,0.4,0.6,1.1,0.6,1.9v5.1h-2v-4.5c0-0.5-0.1-0.9-0.3-1.1c-0.2-0.2-0.5-0.3-0.9-0.3
		c-0.5,0-0.8,0.1-1.1,0.4c-0.3,0.3-0.4,0.7-0.4,1.1v4.4L696.3,237.3 M679.5,254.9v-10.1h2.1v4.1l3.9-4.1h2.6l-4,4.1l4.4,6H686
		l-3.3-4.6l-1.1,1.1v3.5H679.5 M693.8,252.6h2c-0.2,0.8-0.6,1.4-1.2,1.9c-0.6,0.4-1.4,0.7-2.2,0.7c-1.1,0-1.9-0.4-2.6-1.1
		c-0.6-0.7-0.9-1.7-0.9-2.9s0.3-2.2,0.9-2.9c0.6-0.7,1.5-1.1,2.5-1.1c1.1,0,2,0.3,2.6,1s0.9,1.7,0.9,3c0,0.1,0,0.2,0,0.3
		s0,0.1,0,0.2h-5c0,0.6,0.2,1,0.4,1.3c0.3,0.3,0.6,0.4,1.1,0.4c0.3,0,0.6-0.1,0.8-0.2C693.5,253.1,693.7,252.9,693.8,252.6
		 M690.9,250.3h2.9c0-0.5-0.2-0.9-0.4-1.1c-0.2-0.3-0.6-0.4-1.1-0.4c-0.4,0-0.8,0.1-1,0.4C691.1,249.5,690.9,249.8,690.9,250.3
		 M697.5,257.8v-1.6c0.1,0,0.1,0,0.2,0s0.2,0,0.3,0c0.4,0,0.7-0.1,0.9-0.3s0.3-0.5,0.3-0.8V255v-0.1l-2.7-7.5h2.2l1.6,5.4l1.5-5.4
		h2.1l-3.1,8.8c-0.2,0.7-0.5,1.1-0.9,1.3c-0.3,0.2-0.9,0.4-1.5,0.4c-0.1,0-0.3,0-0.4,0S697.7,257.9,697.5,257.8"/>
	<path id="text5884" d="M726.3,247.5v-10.1h3.1l2,7.7l2-7.7h3.1v10.1h-1.9v-8.1l-2,8.1h-2.1l-2.1-8.1v8.1H726.3 M743,245.2h2
		c-0.2,0.8-0.6,1.4-1.2,1.9c-0.6,0.4-1.4,0.7-2.2,0.7c-1.1,0-1.9-0.4-2.6-1.1c-0.6-0.7-0.9-1.7-0.9-2.9s0.3-2.2,0.9-2.9
		c0.6-0.7,1.5-1.1,2.5-1.1c1.1,0,2,0.3,2.6,1s0.9,1.7,0.9,3c0,0.1,0,0.2,0,0.3s0,0.1,0,0.2h-5c0,0.6,0.2,1,0.4,1.3
		c0.3,0.3,0.6,0.4,1.1,0.4c0.3,0,0.6-0.1,0.8-0.2C742.7,245.7,742.8,245.5,743,245.2 M740.1,243h2.9c0-0.5-0.2-0.9-0.4-1.1
		c-0.2-0.3-0.6-0.4-1.1-0.4c-0.4,0-0.8,0.1-1,0.4C740.3,242.1,740.1,242.5,740.1,243 M746.4,247.5V240h2v0.9c0.3-0.4,0.6-0.6,1-0.8
		s0.8-0.3,1.3-0.3c0.8,0,1.4,0.2,1.8,0.6c0.4,0.4,0.6,1.1,0.6,1.9v5.1h-2V243c0-0.5-0.1-0.9-0.3-1.1c-0.2-0.2-0.5-0.3-0.9-0.3
		c-0.5,0-0.8,0.1-1.1,0.4c-0.3,0.3-0.4,0.7-0.4,1.1v4.4L746.4,247.5 M761.4,240v7.4h-2v-0.9c-0.3,0.4-0.6,0.6-1,0.8
		s-0.8,0.3-1.3,0.3c-0.8,0-1.4-0.2-1.8-0.6c-0.4-0.4-0.6-1.1-0.6-1.9V240h2v4.5c0,0.5,0.1,0.9,0.3,1.1c0.2,0.2,0.5,0.3,0.9,0.3
		c0.5,0,0.8-0.1,1.1-0.4c0.3-0.3,0.4-0.7,0.4-1.2V240H761.4"/>
	<path id="text5831-1" inkscape:connector-curvature="0" d="M597.3,239.5l-1.4,4.3h2.8L597.3,239.5 M596.1,237.5h2.4l3.6,10.1H600
		l-0.7-2.1h-3.9l-0.7,2.1h-2.2L596.1,237.5 M603.1,247.6v-10.1h2v10.1H603.1 M610.2,247.6c-0.2,0-0.4,0-0.7,0s-0.4,0-0.5,0
		c-0.8,0-1.3-0.1-1.6-0.4c-0.3-0.3-0.4-0.9-0.4-1.7v-4h-1v-1.4h1v-2h2v2h1.2v1.4H609v4.1c0,0.2,0,0.3,0.1,0.4
		c0.1,0.1,0.3,0.1,0.5,0.1h0.5v1.5"/>
</g>
<g>
	<path class="st10" d="M610.6,374.6c-3.9,0.6-7.1,3.5-8.8,6.9c-2.8,4.9-4.8,10.3-7.2,15.4c-5.1,11.6-10.1,23.3-14.9,35
		c-3.7,9.5-7.5,18.9-11,28.4c-1.8,4.9-3.1,9.9-4.8,14.8c-0.8,2.4-1.3,5.3-3.8,6.7c-1.7,1.2-4.1,1.2-5.6-0.3c-2-1.6-2.7-4.4-2.4-6.9
		c0.4-5.8,1.6-11.4,2.6-17.1c3.6-20.1,7.4-40.2,11.1-60.2c0.5-4.2,0.7-8.4,0.9-12.7c-0.2-2.4-0.9-4.9-2.5-6.8c-2.1-2.1-5-3.3-8-3.1
		c-2.3,0.2-4.7,1.2-6.4,2.8c-1.8,1.6-2.6,4-3.7,6.1c-4.6,11.7-8.6,23.6-12.4,35.5c-1.8,5.4-3.3,11-4.7,16.6
		c-3.8,15.8-7.4,31.6-11.3,47.3c-1.4,4.5-2.6,9.1-4.4,13.5c-1.5,4.2-3.1,8.4-5.3,12.3c-1.6,2.5-2.9,5.1-4.5,7.6
		c-1.8,2.4-2.9,5.3-5.1,7.3c-2,1.9-5.6,1.7-6.9-1c-1.6-2.9-1.2-6.3-1.6-9.5c-0.5-7.1-0.7-14.3-1.5-21.4c-0.2-2.9-0.6-5.8-1.5-8.5
		c-0.9-3.4-2.1-6.8-3.5-10.1c-1.2-3.4-2.6-6.7-4.3-9.8c-2-3.5-4.8-6.6-7.5-9.5c-1.8-1.8-3.9-3.7-6.5-4c-2.2-0.3-4.5,0.2-6.4,1.4
		c-2.2,1.2-3.7,3.3-4.2,5.7c-0.7,2.9,0,6,0,8.9c1,17.8,2.6,35.5,3.4,53.3c0.4,7.4-0.1,14.8-0.2,22.2c0,3.8,0.1,7.7,1.4,11.4
		c1.9,5.9,4.2,11.6,6.6,17.2c4.3,9.5,8.4,19.1,13,28.4c2.5,5.2,4.9,10.5,7.4,15.7c1.2,3,1.2,6.2,0.9,9.4c-0.8,10.7-1.8,21.3-2.8,32
		c0.1,2.4-0.9,4.8-0.4,7.1c1.4,3.8,2.8,4.8,5,6.4c3.6,1.8,5,2.4,7.4,3.1c4.7,1.4,8.6,2.1,13.6,2.8c48.1,3.8,50-1.1,52.7-4.7
		c2.2-2.9,2.6-6.5,3-8.6c0.7-2.6,1-5.3,1.1-8c0.4-2.7,1.5-5.2,3.3-7.2c4.1-4.9,8.5-9.5,12.6-14.3c6-6.8,12-13.7,17.1-21.2
		c2.8-4.2,4.9-8.8,7.5-13.1c3.6-7.2,7.3-14.3,11.2-21.3c5.8-10.7,11.5-21.5,17.3-32.2c4.8-6.6,9.6-13.2,14.7-19.5
		c8-10,16.2-19.9,24.3-29.8c2.2-2.9,3.9-6.1,5.8-9.3c1.1-3.2,2.8-6.5,2.1-9.9c-1.6-3.3-4.9-5.9-8.7-6c-3.1-0.5-5.6,1.9-7.8,3.8
		c-3.7,3.1-6.7,6.9-10,10.4c-11.1,12.3-22.2,24.6-33.3,36.9c-2,1.6-4.1,3.4-6.7,3.6c-2.4,0.4-4.6-1.4-5.3-3.7
		c-1.3-3.1,0.2-6.3,1.2-9.3c2.1-6.1,4.4-12.2,6.9-18.2c2.6-6.9,5.2-13.8,7.6-20.8c3.3-9.7,6.4-19.4,9.6-29.1
		c2.6-8,5.2-16.1,7.6-24.2c0.8-3.1,2.1-6.2,1.7-9.5c-0.1-2.5-1.5-4.6-3.4-6.2c-1.6-1.3-3.7-1.8-5.7-2c-2.3-0.1-4.7,0.6-6.5,2.2
		c-2,1.9-3.1,4.6-4.1,7.1c-8.9,20.9-17.3,42.1-25.9,63.1c-1.7,4.6-3.6,9.1-5.2,13.7c-0.7,2.2-1.1,4.7-3.2,6c-2.4,1.7-5-2-3.8-4.2
		c1-3.3,2.5-6.4,3.6-9.7c5.1-13.4,10.1-26.9,14.9-40.4c5.8-15.9,11.6-31.8,17.3-47.6c0.6-2.9,1.7-5.9,0.8-8.9
		c-0.8-2.5-2.5-4.9-4.8-6.4c-2.2-1.3-4.9-1.6-7.4-1.8C611.6,374.6,611.1,374.6,610.6,374.6L610.6,374.6L610.6,374.6z"/>
	<path class="st10" d="M289.4,375.6c3.9,0.6,7.1,3.5,8.8,6.9c2.8,4.9,4.8,10.3,7.2,15.4c5.1,11.6,10.1,23.3,14.9,35
		c3.7,9.5,7.5,18.9,11,28.4c1.8,4.9,3.1,9.9,4.8,14.8c0.8,2.4,1.3,5.3,3.8,6.7c1.7,1.2,4.1,1.2,5.6-0.3c2-1.6,2.7-4.4,2.4-6.9
		c-0.4-5.8-1.6-11.4-2.6-17.1c-3.6-20.1-7.4-40.2-11.1-60.2c-0.5-4.2-0.7-8.4-0.9-12.7c0.2-2.4,0.9-4.9,2.5-6.8c2.1-2.1,5-3.3,8-3.1
		c2.3,0.2,4.7,1.2,6.4,2.8c1.8,1.6,2.6,4,3.7,6.1c4.6,11.7,8.6,23.6,12.4,35.5c1.8,5.4,3.3,11,4.7,16.6c3.8,15.8,7.4,31.6,11.3,47.3
		c1.4,4.5,2.6,9.1,4.4,13.5c1.5,4.2,3.1,8.4,5.3,12.3c1.6,2.5,2.9,5.1,4.5,7.6c1.7,2.4,2.9,5.3,5.1,7.3c2,1.9,5.6,1.7,6.9-1
		c1.6-2.9,1.2-6.3,1.6-9.5c0.5-7.1,0.7-14.3,1.5-21.4c0.2-2.9,0.6-5.8,1.5-8.5c0.9-3.4,2.1-6.8,3.5-10.1c1.2-3.4,2.6-6.7,4.3-9.8
		c2-3.5,4.8-6.6,7.5-9.5c1.8-1.8,3.9-3.7,6.5-4c2.2-0.3,4.5,0.2,6.4,1.4c2.2,1.2,3.7,3.3,4.2,5.7c0.7,2.9,0,6,0,8.9
		c-1,17.8-2.6,35.5-3.4,53.3c-0.4,7.4,0.1,14.8,0.2,22.2c0,3.8-0.1,7.7-1.4,11.4c-1.9,5.9-4.2,11.6-6.6,17.2
		c-4.3,9.5-8.4,19.1-13,28.4c-2.5,5.2-4.9,10.5-7.4,15.7c-1.2,3-1.2,6.2-0.9,9.4c0.8,10.7,1.8,21.3,2.8,32c-0.1,2.4,0.9,4.8,0.4,7.1
		c-1.4,3.8-2.8,4.8-5,6.4c-3.6,1.8-5,2.4-7.4,3.1c-4.7,1.4-8.6,2.1-13.6,2.8c-48.1,3.8-50-1.1-52.7-4.7c-2.2-2.9-2.6-6.5-3-8.6
		c-0.7-2.6-1-5.3-1.1-8c-0.4-2.7-1.5-5.2-3.3-7.2c-4.1-4.9-8.5-9.5-12.6-14.3c-6-6.8-12-13.7-17.1-21.2c-2.8-4.2-4.9-8.8-7.5-13.1
		c-3.6-7.2-7.3-14.3-11.2-21.3l-17.3-32.2c-4.8-6.6-9.6-13.2-14.7-19.5c-8-10-16.2-19.9-24.3-29.8c-2.2-2.9-3.9-6.1-5.8-9.3
		c-1.1-3.2-2.8-6.5-2.1-9.9c1.6-3.3,4.9-5.9,8.7-6c3.1-0.5,5.6,1.9,7.8,3.8c3.7,3.1,6.7,6.9,10,10.4c11.1,12.3,22.2,24.6,33.3,36.9
		c2,1.6,4.1,3.4,6.7,3.6c2.4,0.4,4.6-1.4,5.3-3.7c1.3-3.1-0.2-6.3-1.2-9.3c-2.1-6.1-4.4-12.2-6.9-18.2c-2.6-6.9-5.2-13.8-7.6-20.8
		c-3.3-9.7-6.4-19.4-9.6-29.1c-2.6-8-5.2-16.1-7.6-24.2c-0.8-3.1-2.1-6.2-1.7-9.5c0.1-2.5,1.5-4.6,3.4-6.2c1.6-1.3,3.7-1.8,5.7-2
		c2.3-0.1,4.7,0.6,6.5,2.2c2,1.9,3.1,4.6,4.1,7.1c8.9,20.9,17.3,42.1,25.9,63.1c1.7,4.6,3.6,9.1,5.2,13.7c0.7,2.2,1.1,4.7,3.2,6
		c2.4,1.7,5-2,3.8-4.2c-1-3.3-2.5-6.4-3.6-9.7c-5-13.4-10.1-26.9-14.9-40.4c-5.8-15.9-11.6-31.8-17.3-47.6c-0.6-2.9-1.7-5.9-0.8-8.9
		c0.8-2.5,2.5-4.9,4.8-6.4c2.2-1.3,4.9-1.6,7.4-1.8C288.4,375.5,288.9,375.6,289.4,375.6L289.4,375.6L289.4,375.6z"/>
</g>
<g>
	<path id="rect2258_1_" class="st2" d="M258.1,311.7h48.2v48.2h-48.2V311.7z"/>
	<path id="text5500_1_" d="M267.3,322.8h3.3c0.7,0,1.3-0.1,1.6-0.4c0.3-0.3,0.5-0.8,0.5-1.4s-0.2-1.1-0.5-1.4s-0.8-0.5-1.5-0.5h-3.5
		v3.7 M264.4,330.6v-13.9h6.7c1.5,0,2.6,0.3,3.4,1c0.7,0.6,1.1,1.6,1.1,3c0,0.8-0.2,1.6-0.5,2.1c-0.4,0.6-0.9,1-1.5,1.2
		c0.6,0.2,1,0.5,1.3,1c0.3,0.4,0.4,1.1,0.4,2.1l0.1,1.6c0,0,0,0,0,0.1c0,0.8,0.2,1.3,0.5,1.5v0.4h-3.1c-0.1-0.2-0.2-0.4-0.2-0.7
		c-0.1-0.3-0.1-0.6-0.1-1v-1.5c0-0.9-0.2-1.4-0.5-1.7c-0.3-0.3-0.8-0.5-1.6-0.5h-3v5.4h-3"/>
</g>
<g>
	<path id="rect2264_1_" class="st3" d="M588.2,311.7h48.2v48.2h-48.2V311.7z"/>
	<path id="text5518_1_" d="M601.8,330.6h-2.9v-5.2l-5-8.7h3.5l3,6l2.7-6h3.3l-4.6,8.7V330.6"/>
</g>
<g>
	<path id="rect2336_1_" class="st4" d="M529.5,311.7h48.2v48.2h-48.2V311.7z"/>
	<path id="text5695_1_" d="M538.6,328.1h3.4c0.8,0,1.4-0.1,1.7-0.4c0.4-0.3,0.5-0.7,0.5-1.4c0-0.6-0.2-1.1-0.5-1.4
		c-0.4-0.3-0.9-0.4-1.8-0.4h-3.4L538.6,328.1 M538.6,322.1h3.3c0.7,0,1.2-0.1,1.5-0.4c0.3-0.2,0.5-0.6,0.5-1.1s-0.2-0.9-0.5-1.1
		s-0.8-0.3-1.6-0.3h-3.2L538.6,322.1 M535.9,330.6v-13.9h6.5c1.4,0,2.5,0.3,3.2,0.9s1.1,1.5,1.1,2.6c0,0.7-0.1,1.3-0.4,1.8
		s-0.7,0.8-1.2,1.1c0.7,0.3,1.2,0.7,1.6,1.3c0.4,0.5,0.5,1.2,0.5,2c0,1.3-0.4,2.4-1.3,3.1c-0.9,0.7-2.1,1.1-3.7,1.1H535.9"/>
</g>
</svg>
