<?xml version="1.0" encoding="UTF-8" standalone="no"?>
<!-- Created with Inkscape (http://www.inkscape.org/) -->

<svg
   width="90"
   height="30"
   id="svg2"
   sodipodi:version="0.32"
   inkscape:version="1.2.2 (732a01da63, 2022-12-09)"
   version="1.0"
   sodipodi:docname="response_keys.svg"
   xmlns:inkscape="http://www.inkscape.org/namespaces/inkscape"
   xmlns:sodipodi="http://sodipodi.sourceforge.net/DTD/sodipodi-0.dtd"
   xmlns="http://www.w3.org/2000/svg"
   xmlns:svg="http://www.w3.org/2000/svg"
   xmlns:rdf="http://www.w3.org/1999/02/22-rdf-syntax-ns#"
   xmlns:cc="http://creativecommons.org/ns#"
   xmlns:dc="http://purl.org/dc/elements/1.1/">
  <defs
     id="defs4">
    <marker
       inkscape:stockid="Arrow1Lend"
       orient="auto"
       refY="0"
       refX="0"
       id="Arrow1Lend"
       style="overflow:visible">
      <path
         id="path5387"
         d="M 0,0 5,-5 -12.5,0 5,5 Z"
         style="fill-rule:evenodd;stroke:#000000;stroke-width:1pt;marker-start:none"
         transform="scale(-0.8)" />
    </marker>
    <marker
       inkscape:stockid="Arrow1Lstart"
       orient="auto"
       refY="0"
       refX="0"
       id="Arrow1Lstart"
       style="overflow:visible">
      <path
         id="path5390"
         d="M 0,0 5,-5 -12.5,0 5,5 Z"
         style="fill-rule:evenodd;stroke:#000000;stroke-width:1pt;marker-start:none"
         transform="scale(0.8)" />
    </marker>
    <marker
       inkscape:stockid="Tail"
       orient="auto"
       refY="0"
       refX="0"
       id="Tail"
       style="overflow:visible">
      <g
         id="g5342"
         transform="scale(-1.2)">
        <path
           id="path5344"
           d="M -3.8048674,-3.9585227 0.54352094,-6.8114835e-4"
           style="fill:none;fill-rule:evenodd;stroke:#000000;stroke-width:0.8;stroke-linecap:round;marker-start:none;marker-end:none" />
        <path
           id="path5346"
           d="M -1.2866832,-3.9585227 3.0617053,-6.8114835e-4"
           style="fill:none;fill-rule:evenodd;stroke:#000000;stroke-width:0.8;stroke-linecap:round;marker-start:none;marker-end:none" />
        <path
           id="path5348"
           d="M 1.3053582,-3.9585227 5.6537466,-6.8114835e-4"
           style="fill:none;fill-rule:evenodd;stroke:#000000;stroke-width:0.8;stroke-linecap:round;marker-start:none;marker-end:none" />
        <path
           id="path5350"
           d="M -3.8048674,4.1775838 0.54352094,0.21974226"
           style="fill:none;fill-rule:evenodd;stroke:#000000;stroke-width:0.8;stroke-linecap:round;marker-start:none;marker-end:none" />
        <path
           id="path5352"
           d="M -1.2866832,4.1775838 3.0617053,0.21974226"
           style="fill:none;fill-rule:evenodd;stroke:#000000;stroke-width:0.8;stroke-linecap:round;marker-start:none;marker-end:none" />
        <path
           id="path5354"
           d="M 1.3053582,4.1775838 5.6537466,0.21974226"
           style="fill:none;fill-rule:evenodd;stroke:#000000;stroke-width:0.8;stroke-linecap:round;marker-start:none;marker-end:none" />
      </g>
    </marker>
    <marker
       inkscape:stockid="Arrow2Mend"
       orient="auto"
       refY="0"
       refX="0"
       id="Arrow2Mend"
       style="overflow:visible">
      <path
         id="path5363"
         style="font-size:12px;fill-rule:evenodd;stroke-width:0.625;stroke-linejoin:round"
         d="M 8.7185878,4.0337352 -2.2072895,0.01601326 8.7185884,-4.0017078 c -1.7454984,2.3720609 -1.7354408,5.6174519 -6e-7,8.035443 z"
         transform="matrix(-0.6,0,0,-0.6,3,0)" />
    </marker>
    <marker
       inkscape:stockid="Arrow2Lend"
       orient="auto"
       refY="0"
       refX="0"
       id="Arrow2Lend"
       style="overflow:visible">
      <path
         id="path5369"
         style="font-size:12px;fill-rule:evenodd;stroke-width:0.625;stroke-linejoin:round"
         d="M 8.7185878,4.0337352 -2.2072895,0.01601326 8.7185884,-4.0017078 c -1.7454984,2.3720609 -1.7354408,5.6174519 -6e-7,8.035443 z"
         transform="matrix(-1.1,0,0,-1.1,5.5,0)" />
    </marker>
    <marker
       inkscape:stockid="Arrow1Send"
       orient="auto"
       refY="0"
       refX="0"
       id="Arrow1Send"
       style="overflow:visible">
      <path
         id="path5375"
         d="M 0,0 5,-5 -12.5,0 5,5 Z"
         style="fill-rule:evenodd;stroke:#000000;stroke-width:1pt;marker-start:none"
         transform="scale(-0.2)" />
    </marker>
    <marker
       inkscape:stockid="Arrow2Send"
       orient="auto"
       refY="0"
       refX="0"
       id="Arrow2Send"
       style="overflow:visible">
      <path
         id="path5357"
         style="font-size:12px;fill-rule:evenodd;stroke-width:0.625;stroke-linejoin:round"
         d="M 8.7185878,4.0337352 -2.2072895,0.01601326 8.7185884,-4.0017078 c -1.7454984,2.3720609 -1.7354408,5.6174519 -6e-7,8.035443 z"
         transform="matrix(-0.3,0,0,-0.3,1.5,0)" />
    </marker>
    <marker
       inkscape:stockid="Arrow1Mend"
       orient="auto"
       refY="0"
       refX="0"
       id="Arrow1Mend"
       style="overflow:visible">
      <path
         id="path5381"
         d="M 0,0 5,-5 -12.5,0 5,5 Z"
         style="fill-rule:evenodd;stroke:#000000;stroke-width:1pt;marker-start:none"
         transform="scale(-0.4)" />
    </marker>
    <marker
       inkscape:stockid="Arrow2Lstart"
       orient="auto"
       refY="0"
       refX="0"
       id="Arrow2Lstart"
       style="overflow:visible">
      <path
         id="path5372"
         style="font-size:12px;fill-rule:evenodd;stroke-width:0.625;stroke-linejoin:round"
         d="M 8.7185878,4.0337352 -2.2072895,0.01601326 8.7185884,-4.0017078 c -1.7454984,2.3720609 -1.7354408,5.6174519 -6e-7,8.035443 z"
         transform="matrix(1.1,0,0,1.1,-5.5,0)" />
    </marker>
  </defs>
  <sodipodi:namedview
     id="base"
     pagecolor="#ffffff"
     bordercolor="#666666"
     borderopacity="1.0"
     inkscape:pageopacity="0.0"
     inkscape:pageshadow="2"
     inkscape:zoom="2.9522752"
     inkscape:cx="109.23778"
     inkscape:cy="-0.84680453"
     inkscape:document-units="px"
     inkscape:current-layer="layer1"
     inkscape:grid-points="true"
     showgrid="true"
     gridtolerance="15px"
     showborder="false"
     inkscape:window-width="1920"
     inkscape:window-height="991"
     inkscape:window-x="-9"
     inkscape:window-y="-9"
     showguides="true"
     inkscape:guide-bbox="true"
     inkscape:window-maximized="1"
     inkscape:showpageshadow="2"
     inkscape:pagecheckerboard="0"
     inkscape:deskcolor="#d1d1d1">
    <inkscape:grid
       id="GridFromPre046Settings"
       type="xygrid"
       originx="0"
       originy="0"
       spacingx="7.5"
       spacingy="7.5"
       color="#0000ff"
       empcolor="#0000ff"
       opacity="0.12156863"
       empopacity="0.25098039"
       empspacing="4" />
  </sodipodi:namedview>
  <metadata
     id="metadata7">
    <rdf:RDF>
      <cc:Work
         rdf:about="">
        <dc:format>image/svg+xml</dc:format>
        <dc:type
           rdf:resource="http://purl.org/dc/dcmitype/StillImage" />
      </cc:Work>
    </rdf:RDF>
  </metadata>
  <g
     inkscape:label="Layer 1"
     inkscape:groupmode="layer"
     id="layer1"
     transform="matrix(0.49944506,0,0,0.49944506,-0.25027747,-0.25027747)">
    <path
       style="fill:#f64747;fill-opacity:1;fill-rule:evenodd;stroke:#000000;stroke-width:1;stroke-linecap:butt;stroke-linejoin:miter;stroke-miterlimit:4;stroke-dashoffset:0;stroke-opacity:1"
       d="M 1.0011111,1.0011111 H 61.001111 V 61.001111 H 1.0011111 Z"
       id="rect2270" />
    <path
       style="fill:#00bfff;fill-opacity:1;fill-rule:evenodd;stroke:#000000;stroke-width:1;stroke-linecap:butt;stroke-linejoin:miter;stroke-miterlimit:4;stroke-dashoffset:0;stroke-opacity:1"
       d="M 61.001111,1.0011111 H 121.00111 V 61.001111 H 61.001111 Z"
       id="rect2272" />
    <path
       style="fill:#f1f227;fill-opacity:1;fill-rule:evenodd;stroke:#000000;stroke-width:1;stroke-linecap:butt;stroke-linejoin:miter;stroke-miterlimit:4;stroke-dashoffset:0;stroke-opacity:1"
       d="m 121.00111,1.0011111 h 60 V 61.001111 h -60 z"
       id="rect2274" />
    <path
       d=""
       id="flowRoot4146" />
    <path
       style="font-style:normal;font-variant:normal;font-weight:bold;font-stretch:normal;font-size:24px;line-height:125%;font-family:'Swis721 BT';text-align:center;writing-mode:lr-tb;text-anchor:middle;fill:#000000;fill-opacity:1;stroke:none;stroke-width:1px;stroke-linecap:butt;stroke-linejoin:miter;stroke-opacity:1"
       d="M 14.225721,24.63197 V 7.3702521 h 3.55078 V 24.63197 h -3.55078"
       id="text5526" />
    <path
       style="font-style:normal;font-variant:normal;font-weight:bold;font-stretch:normal;font-size:24px;line-height:125%;font-family:'Swis721 BT';text-align:center;writing-mode:lr-tb;text-anchor:middle;fill:#000000;fill-opacity:1;stroke:none;stroke-width:1px;stroke-linecap:butt;stroke-linejoin:miter;stroke-opacity:1"
       d="m 71.184701,16.001111 c 0,1.898444 0.42187,3.375005 1.26563,4.429688 0.84374,1.046878 2.02343,1.570315 3.53906,1.570312 1.53124,3e-6 2.72265,-0.523434 3.57422,-1.570312 0.85155,-1.054683 1.27733,-2.531244 1.27734,-4.429688 -1e-5,-1.898427 -0.42579,-3.371082 -1.27734,-4.417969 -0.85157,-1.054673 -2.04298,-1.582016 -3.57422,-1.582031 -1.51563,1.5e-5 -2.69532,0.523452 -3.53906,1.570313 -0.84376,1.046886 -1.26563,2.523448 -1.26563,4.429687 m -3.62109,0 c 0,-2.789051 0.75781,-4.999986 2.27344,-6.6328119 1.52343,-1.640609 3.57421,-2.46092 6.15234,-2.460938 2.57811,1.8e-5 4.62889,0.820329 6.15235,2.460938 1.53123,1.6406379 2.29685,3.8515729 2.29687,6.6328119 -2e-5,2.781256 -0.76564,4.992191 -2.29687,6.632813 -1.52346,1.640625 -3.57424,2.460937 -6.15235,2.460937 -2.57813,0 -4.62891,-0.820312 -6.15234,-2.460937 -1.51563,-1.640622 -2.27344,-3.851557 -2.27344,-6.632813"
       id="text5530" />
    <path
       style="font-style:normal;font-variant:normal;font-weight:bold;font-stretch:normal;font-size:24px;line-height:125%;font-family:'Swis721 BT';text-align:center;writing-mode:lr-tb;text-anchor:middle;fill:#000000;fill-opacity:1;stroke:none;stroke-width:1px;stroke-linecap:butt;stroke-linejoin:miter;stroke-opacity:1"
       d="m 132.97767,15.362439 h 3.4336 c 0.92967,9e-6 1.60545,-0.195303 2.02734,-0.585937 0.42186,-0.398428 0.6328,-1.035146 0.63281,-1.910157 -1e-5,-0.8203 -0.20704,-1.441393 -0.62109,-1.863281 -0.41407,-0.421861 -1.03126,-0.632798 -1.85156,-0.632812 h -3.6211 v 4.992187 m -0.0234,3.128906 v 6.140625 h -3.55079 V 7.3702521 h 7.67579 c 1.81248,1.7e-5 3.18358,0.472673 4.11328,1.417968 0.93748,0.937515 1.40623,2.3164199 1.40625,4.1367189 -2e-5,1.78126 -0.45705,3.156259 -1.3711,4.125 -0.91407,0.960944 -2.21876,1.441413 -3.91406,1.441406 h -4.35937"
       id="text5534" />
  </g>
</svg>
